<svg width="30" height="30" viewBox="0 0 30 30" fill="none" xmlns="http://www.w3.org/2000/svg">
<path d="M18.6655 12.9765C18.5145 13.0409 18.3527 13.0767 18.1885 13.0822C17.9287 13.0801 17.6753 13.0021 17.4597 12.8576C17.2354 12.7184 17.0631 12.5096 16.9695 12.2634C16.8551 12.0299 16.818 11.7664 16.8635 11.5106C16.9112 11.2512 17.0358 11.012 17.2212 10.8238L18.5463 9.50319C18.6751 9.38653 18.8229 9.29273 18.9835 9.22585C19.2657 9.11566 19.5772 9.10521 19.8662 9.19623C20.1551 9.28726 20.4041 9.47426 20.5715 9.72605C20.7388 9.97784 20.8146 10.2792 20.786 10.5799C20.7575 10.8806 20.6264 11.1625 20.4146 11.3785L19.0895 12.6992C18.9647 12.8146 18.8214 12.9083 18.6655 12.9765Z" fill="#00FF95"/>
<path fill-rule="evenodd" clip-rule="evenodd" d="M15.1901 2.59526C15.895 2.77151 16.3237 3.48589 16.1474 4.19087L15.4895 6.82242C15.3133 7.5274 14.5989 7.95603 13.8939 7.77978C13.1889 7.60354 12.7603 6.88916 12.9366 6.18417L13.5944 3.55263C13.7707 2.84764 14.4851 2.41901 15.1901 2.59526Z" fill="#00FF95"/>
<path fill-rule="evenodd" clip-rule="evenodd" d="M27.2964 14.6058C27.4963 15.3045 27.0919 16.0329 26.3933 16.2327L23.7853 16.9787C23.0867 17.1786 22.3583 16.7742 22.1584 16.0756C21.9586 15.3769 22.3629 14.6485 23.0616 14.4487L25.6695 13.7026C26.3682 13.5028 27.0966 13.9071 27.2964 14.6058Z" fill="#00FF95"/>
<path d="M8.31168 11.132L2.61101 23.4461C2.13437 24.5538 2.38114 25.8402 3.23385 26.6929C4.0867 27.5458 5.37333 27.7925 6.48115 27.3155L18.8064 21.6071C18.9774 21.5219 19.1257 21.3975 19.2393 21.244C19.3529 21.0906 19.4286 20.9124 19.4601 20.7241C19.4913 20.5344 19.4769 20.34 19.4179 20.157C19.359 19.974 19.2572 19.8076 19.1211 19.6718L10.2484 10.8054C10.1125 10.6694 9.946 10.5677 9.76286 10.5088C9.57971 10.4499 9.38516 10.4354 9.19532 10.4667C9.00572 10.4994 8.82666 10.5768 8.67299 10.6925C8.51931 10.8082 8.39546 10.9589 8.31168 11.132Z" fill="#00FF95"/>
<path fill-rule="evenodd" clip-rule="evenodd" d="M4.74117 6.47731C4.88363 6.50604 4.99989 6.6223 5.02862 6.76477C5.14988 7.36619 5.68126 7.81907 6.31841 7.81907C6.95557 7.81907 7.48694 7.36619 7.60821 6.76477C7.63693 6.6223 7.75319 6.50604 7.89566 6.47731C8.49708 6.35605 8.94996 5.82467 8.94996 5.18752C8.94996 4.55037 8.49708 4.01899 7.89566 3.89773C7.75319 3.869 7.63693 3.75274 7.60821 3.61027C7.48694 3.00886 6.95557 2.55598 6.31841 2.55598C5.68126 2.55598 5.14988 3.00885 5.02862 3.61027C4.99989 3.75274 4.88363 3.869 4.74117 3.89773C4.13975 4.01899 3.68687 4.55037 3.68687 5.18752C3.68687 5.82467 4.13975 6.35605 4.74117 6.47731Z" fill="#00FF95"/>
<path fill-rule="evenodd" clip-rule="evenodd" d="M23.162 6.47731C23.3045 6.50604 23.4207 6.6223 23.4494 6.76477C23.5707 7.36619 24.1021 7.81907 24.7392 7.81907C25.3764 7.81907 25.9078 7.36619 26.029 6.76477C26.0578 6.6223 26.174 6.50604 26.3165 6.47731C26.9179 6.35605 27.3708 5.82467 27.3708 5.18752C27.3708 4.55037 26.9179 4.01899 26.3165 3.89773C26.174 3.869 26.0578 3.75274 26.029 3.61027C25.9078 3.00886 25.3764 2.55598 24.7392 2.55598C24.1021 2.55598 23.5707 3.00885 23.4494 3.61027C23.4207 3.75274 23.3045 3.869 23.162 3.89773C22.5606 4.01899 22.1077 4.55037 22.1077 5.18752C22.1077 5.82467 22.5606 6.35605 23.162 6.47731Z" fill="#00FF95"/>
<path fill-rule="evenodd" clip-rule="evenodd" d="M23.162 24.8981C23.3045 24.9269 23.4207 25.0431 23.4494 25.1856C23.5707 25.787 24.1021 26.2399 24.7392 26.2399C25.3764 26.2399 25.9078 25.787 26.029 25.1856C26.0578 25.0431 26.174 24.9269 26.3165 24.8981C26.9179 24.7769 27.3708 24.2455 27.3708 23.6083C27.3708 22.9712 26.9179 22.4398 26.3165 22.3186C26.174 22.2898 26.0578 22.1736 26.029 22.0311C25.9078 21.4297 25.3764 20.9768 24.7392 20.9768C24.1021 20.9768 23.5707 21.4297 23.4494 22.0311C23.4207 22.1736 23.3045 22.2898 23.162 22.3186C22.5606 22.4398 22.1077 22.9712 22.1077 23.6083C22.1077 24.2455 22.5606 24.7769 23.162 24.8981Z" fill="#00FF95"/>
</svg>
