<svg width="30" height="30" viewBox="0 0 30 30" fill="none" xmlns="http://www.w3.org/2000/svg">
<path d="M7.33057 5.27949H24.6656C25.1514 5.27949 25.4515 5.80954 25.2015 6.22612L22.0196 11.5279L26.2073 16.7626C26.5347 17.1718 26.2434 17.778 25.7194 17.778L10.1081 17.7795L11.9906 26.2571C12.0263 26.4174 12.0301 26.5833 12.0017 26.7451C11.9733 26.907 11.9133 27.0617 11.825 27.2003C11.7368 27.3389 11.6221 27.4588 11.4875 27.553C11.3529 27.6473 11.201 27.7141 11.0406 27.7496C10.717 27.8194 10.379 27.7587 10.0998 27.5809C9.82062 27.4031 9.62282 27.1223 9.54932 26.7996L4.54931 4.29949C4.51369 4.13919 4.50999 3.97345 4.53842 3.81173C4.56685 3.65 4.62686 3.49546 4.71502 3.35692C4.80318 3.21839 4.91776 3.09858 5.05222 3.00433C5.18668 2.91007 5.33839 2.84323 5.49868 2.80761C5.65898 2.77199 5.82472 2.76829 5.98645 2.79672C6.14817 2.82515 6.30271 2.88516 6.44125 2.97332C6.57978 3.06148 6.69959 3.17606 6.79385 3.31052C6.8881 3.44498 6.95494 3.59669 6.99056 3.75699L7.33057 5.27949Z" fill="#00FF95"/>
</svg>
