<svg width="30" height="30" viewBox="0 0 30 30" fill="none" xmlns="http://www.w3.org/2000/svg">
<path d="M15.2969 2.33301C16.0148 2.33301 16.5969 2.91504 16.5969 3.63301V4.93301C16.5969 5.65098 16.0148 6.23301 15.2969 6.23301C14.5789 6.23301 13.9969 5.65098 13.9969 4.93301V3.63301C13.9969 2.91504 14.5789 2.33301 15.2969 2.33301Z" fill="#00FF95"/>
<path d="M17.8969 24.433V26.383C17.8969 27.46 17.0238 28.333 15.9469 28.333H14.6469C13.5699 28.333 12.6969 27.46 12.6969 26.383V24.433H17.8969Z" fill="#00FF95"/>
<path d="M25.6969 14.033C24.9789 14.033 24.3969 14.615 24.3969 15.333C24.3969 16.051 24.9789 16.633 25.6969 16.633H26.9969C27.7148 16.633 28.2969 16.051 28.2969 15.333C28.2969 14.615 27.7148 14.033 26.9969 14.033H25.6969Z" fill="#00FF95"/>
<path d="M2.29688 15.333C2.29688 14.615 2.8789 14.033 3.59687 14.033H4.89687C5.61485 14.033 6.19687 14.615 6.19687 15.333C6.19687 16.051 5.61485 16.633 4.89687 16.633H3.59687C2.8789 16.633 2.29688 16.051 2.29688 15.333Z" fill="#00FF95"/>
<path d="M7.94297 6.14063C7.43528 5.63295 6.61217 5.63295 6.10449 6.14063C5.59681 6.64831 5.59681 7.47143 6.10449 7.97911L7.02373 8.89835C7.53141 9.40603 8.35452 9.40603 8.8622 8.89835C9.36989 8.39067 9.36989 7.56755 8.8622 7.05987L7.94297 6.14063Z" fill="#00FF95"/>
<path d="M21.7315 8.89833C21.2239 8.39065 21.2239 7.56753 21.7315 7.05985L22.6508 6.14061C23.1585 5.63293 23.9816 5.63293 24.4893 6.14061C24.9969 6.64829 24.9969 7.47141 24.4893 7.97909L23.57 8.89833C23.0623 9.40601 22.2392 9.40601 21.7315 8.89833Z" fill="#00FF95"/>
<path d="M19.5454 17.0322C18.7415 18.1689 17.8969 19.3947 17.8969 20.7869V21.833H12.6969V20.7869C12.6969 19.3947 11.8523 18.1689 11.0484 17.0322C10.449 16.1847 10.0969 15.15 10.0969 14.033C10.0969 11.1611 12.425 8.83301 15.2969 8.83301C18.1688 8.83301 20.4969 11.1611 20.4969 14.033C20.4969 15.15 20.1447 16.1847 19.5454 17.0322Z" fill="#00FF95"/>
</svg>
