<svg width="30" height="30" viewBox="0 0 30 30" fill="none" xmlns="http://www.w3.org/2000/svg">
<path fill-rule="evenodd" clip-rule="evenodd" d="M4.97198 3C3.8214 3 2.88867 3.93273 2.88867 5.08331V20.3609C2.88867 21.5115 3.8214 22.4442 4.97198 22.4442H11.2219C11.2219 23.1736 11.2016 23.5458 11.0213 23.9064C10.8552 24.2386 10.4436 24.7528 9.21191 25.3686C8.52584 25.7116 8.24775 26.5459 8.59079 27.2319C8.83875 27.7279 9.34337 28.0106 9.86316 27.9997H20.9139C21.1824 28.0053 21.4469 27.9326 21.674 27.7926C21.8401 27.6902 21.9863 27.5518 22.0994 27.3818C22.1901 27.2462 22.2575 27.0938 22.296 26.9302C22.3821 26.567 22.316 26.1892 22.1256 25.8805C22.0232 25.7145 21.8849 25.5685 21.715 25.4554C21.6593 25.4182 21.6009 25.3849 21.54 25.356C20.3279 24.7457 19.9207 24.2363 19.7557 23.9064C19.5754 23.5458 19.5551 23.1736 19.5551 22.4442H25.8051C26.9556 22.4442 27.8884 21.5115 27.8884 20.3609V5.08331C27.8884 3.93273 26.9556 3 25.8051 3H4.97198ZM17.3088 25.222C17.296 25.1976 17.2835 25.1732 17.2712 25.1486C16.7756 24.1573 16.7766 23.1766 16.7773 22.5166L16.7774 22.4442H13.9996L13.9997 22.5166C14.0004 23.1766 14.0015 24.1573 13.5058 25.1486C13.4935 25.1732 13.481 25.1976 13.4683 25.222H17.3088ZM25.1106 16.8887H5.66642V19.6665H25.1106V16.8887Z" fill="#00FF95"/>
</svg>
