<svg width="30" height="30" viewBox="0 0 30 30" fill="none" xmlns="http://www.w3.org/2000/svg">
<path fill-rule="evenodd" clip-rule="evenodd" d="M25 25.9736C25 27.0925 24.1046 28 23 28H7C5.89543 28 5 27.0925 5 25.9736V7.74023H25V25.9736ZM19.6338 13.3662C19.1456 12.8781 18.3544 12.8781 17.8662 13.3662L15 16.2324L12.1338 13.3662C11.6456 12.8781 10.8544 12.8781 10.3662 13.3662C9.87806 13.8544 9.87806 14.6456 10.3662 15.1338L13.2324 18L10.3662 20.8662C9.87806 21.3544 9.87806 22.1456 10.3662 22.6338C10.8544 23.1219 11.6456 23.1219 12.1338 22.6338L15 19.7676L17.8662 22.6338C18.3544 23.1219 19.1456 23.1219 19.6338 22.6338C20.1219 22.1456 20.1219 21.3544 19.6338 20.8662L16.7676 18L19.6338 15.1338C20.1219 14.6456 20.1219 13.8544 19.6338 13.3662Z" fill="#00FF95"/>
<path d="M17.5488 2C17.8213 2.00013 18.0667 2.16857 18.168 2.4248L18.4004 3.0127H25C25.5523 3.0127 26 3.46691 26 4.02637V5.37695H5C4.44772 5.37695 4 4.92274 4 4.36328V4.02637C4 3.46691 4.44772 3.0127 5 3.0127H11.5996L11.832 2.4248C11.9333 2.16857 12.1787 2.00013 12.4512 2H17.5488Z" fill="#00FF95"/>
</svg>
