<svg width="30" height="30" viewBox="0 0 30 30" fill="none" xmlns="http://www.w3.org/2000/svg">
<path d="M21.8531 18.5067C22.3842 18.5067 22.7548 18.8409 22.8622 19.4258H20.8451C20.9525 18.841 21.322 18.5068 21.8531 18.5067Z" fill="#00FF95"/>
<path fill-rule="evenodd" clip-rule="evenodd" d="M25.9167 3C27.0278 3 28 3.97222 28 5.08333V25.9167C28 27.0278 27.0278 28 25.9167 28H5.08333C3.97222 28 3 27.0278 3 25.9167V5.08333C3 3.97222 3.97222 3 5.08333 3H25.9167ZM21.788 16.8238C19.7291 16.8238 18.4275 18.1134 18.4275 20.2559V20.2613C18.4275 22.4037 19.7286 23.6988 21.865 23.6988C24.1563 23.6988 24.909 22.3566 25.1061 21.4972L25.1235 21.4191H22.9457L22.9392 21.4375C22.8732 21.6287 22.5567 22.0158 21.9128 22.0158C21.2444 22.0158 20.8385 21.5682 20.8147 20.8103H25.1539V20.1181C25.1539 18.113 23.8407 16.824 21.788 16.8238ZM6.35503 14.9444L8.57509 23.5556H11.0816L12.2459 18.9191H12.2936L13.4568 23.5556H15.9633L18.1834 14.9444H15.5694L14.5788 20.2135H14.531L13.3082 14.9444H11.2313L10.0074 20.2135H9.95964L8.96897 14.9444H6.35503ZM5.77778 5.96332V11.3333H25.2222V5.96332H5.77778Z" fill="#00FF95"/>
</svg>
