<svg width="30" height="30" viewBox="0 0 30 30" fill="none" xmlns="http://www.w3.org/2000/svg">
<path d="M15.5 3C22.4036 3 28 8.59644 28 15.5C28 22.4036 22.4036 28 15.5 28C8.59644 28 3 22.4036 3 15.5C3 8.59644 8.59644 3 15.5 3ZM16.3701 17.5068C15.8264 17.796 15.1736 17.796 14.6299 17.5068L8.24707 14.1113V19.8213C8.24723 20.3325 8.66158 20.7471 9.17285 20.7471H21.8271C22.3384 20.7471 22.7528 20.3325 22.7529 19.8213V14.1113L16.3701 17.5068ZM8.24707 10.4072V11.5801C8.24718 11.8082 8.37282 12.0179 8.57422 12.125L14.6299 15.3457C15.1736 15.6349 15.8264 15.6349 16.3701 15.3457L22.4258 12.125C22.6272 12.0179 22.7528 11.8082 22.7529 11.5801V10.4072H8.24707Z" fill="#00FF95"/>
</svg>
