<svg width="30" height="30" viewBox="0 0 30 30" fill="none" xmlns="http://www.w3.org/2000/svg">
<path d="M1.89715 11.5959C1.40228 11.5959 1 12.0015 1 12.5004V15.1078C1 15.6068 1.40228 16.0124 1.89715 16.0124H2.3569L3.95644 26.0847C4.13204 27.1888 5.07708 28 6.18495 28H23.8151C24.9229 28 25.868 27.1888 26.0436 26.0847L27.6431 16.0124H28.1029C28.5977 16.0124 29 15.6068 29 15.1078V12.5004C29 12.0015 28.5977 11.5959 28.1029 11.5959H1.89715ZM12.0148 23.5964C12.0148 24.2853 11.4593 24.8454 10.7761 24.8454C10.0928 24.8454 9.53729 24.2853 9.53729 23.5964V16.9201C9.53729 16.2313 10.0928 15.6712 10.7761 15.6712C11.4593 15.6712 12.0148 16.2313 12.0148 16.9201V23.5964ZM16.3122 23.5964C16.3122 24.2853 15.7567 24.8454 15.0734 24.8454C14.3902 24.8454 13.8347 24.2853 13.8347 23.5964V16.9201C13.8347 16.2313 14.3902 15.6712 15.0734 15.6712C15.7567 15.6712 16.3122 16.2313 16.3122 16.9201V23.5964ZM20.6064 23.5964C20.6064 24.2853 20.0509 24.8454 19.3676 24.8454C18.6844 24.8454 18.1288 24.2853 18.1288 23.5964V16.9201C18.1288 16.2313 18.6844 15.6712 19.3676 15.6712C20.0509 15.6712 20.6064 16.2313 20.6064 16.9201V23.5964Z" fill="#00FF95"/>
<path d="M10.2556 9.61619L14.9872 4.84561L19.7188 9.61619H23.1063L15.9482 2.39916C15.6928 2.14164 15.3512 2 14.9872 2C14.6233 2 14.2848 2.14164 14.0294 2.39916L6.87777 9.60976L6.88415 9.61619H10.2556Z" fill="#00FF95"/>
</svg>
