<svg width="30" height="30" viewBox="0 0 30 30" fill="none" xmlns="http://www.w3.org/2000/svg">
<path fill-rule="evenodd" clip-rule="evenodd" d="M23.8047 7.93066C23.8047 8.62829 23.6762 9.25636 23.4225 9.80566H25.6797C26.7152 9.80566 27.5547 10.6451 27.5547 11.6807V14.8057H2.55469V11.6807C2.55469 10.6451 3.39415 9.80566 4.42969 9.80566H6.68691C6.4332 9.25636 6.30469 8.62829 6.30469 7.93066C6.30469 5.39394 8.53383 3.55566 11.0162 3.55566C12.4732 3.55566 14.0144 4.23776 15.0547 5.4669C16.095 4.23776 17.6361 3.55566 19.0931 3.55566C21.5755 3.55566 23.8047 5.39394 23.8047 7.93066ZM8.80469 7.93066C8.80469 7.00906 9.66785 6.05566 11.0162 6.05566C12.3285 6.05566 13.8047 7.14261 13.8047 8.97233V9.80566H12.747C11.7407 9.80566 10.6769 9.79179 9.86528 9.49232C9.48712 9.35279 9.24214 9.17685 9.0884 8.97644C8.94419 8.78848 8.80469 8.48178 8.80469 7.93066ZM17.3624 9.80566H16.3047V8.97233C16.3047 7.14261 17.7809 6.05566 19.0931 6.05566C20.4415 6.05566 21.3047 7.00906 21.3047 7.93066C21.3047 8.48178 21.1652 8.78848 21.021 8.97644C20.8672 9.17685 20.6223 9.35279 20.2441 9.49232C19.4325 9.79179 18.3687 9.80566 17.3624 9.80566Z" fill="#00FF95"/>
<path d="M13.8047 27.3057V17.3057H3.80469V25.4307C3.80469 26.4682 4.64219 27.3057 5.67969 27.3057H13.8047Z" fill="#00FF95"/>
<path d="M16.3047 27.3057V17.3057H26.3047V25.4307C26.3047 26.4682 25.4672 27.3057 24.4297 27.3057H16.3047Z" fill="#00FF95"/>
</svg>
