<svg width="30" height="30" viewBox="0 0 30 30" fill="none" xmlns="http://www.w3.org/2000/svg">
<path fill-rule="evenodd" clip-rule="evenodd" d="M3.21133 5.55566C2.65437 5.55566 2.12023 5.77691 1.7264 6.17074C1.33258 6.56457 1.11133 7.09871 1.11133 7.65566L1.11133 23.0557C1.11133 23.6126 1.33258 24.1468 1.7264 24.5406C2.12023 24.9344 2.65437 25.1557 3.21133 25.1557H27.0113C27.5683 25.1557 28.1024 24.9344 28.4963 24.5406C28.8901 24.1468 29.1113 23.6126 29.1113 23.0557V7.65566C29.1113 7.09871 28.8901 6.56457 28.4963 6.17074C28.1024 5.77691 27.5683 5.55566 27.0113 5.55566H3.21133ZM17.3513 9.75566C17.0543 9.75566 16.7694 9.87366 16.5594 10.0837C16.3493 10.2937 16.2313 10.5786 16.2313 10.8757C16.2313 11.1727 16.3493 11.4576 16.5594 11.6676C16.7694 11.8777 17.0543 11.9957 17.3513 11.9957H25.1913C25.4884 11.9957 25.7732 11.8777 25.9833 11.6676C26.1933 11.4576 26.3113 11.1727 26.3113 10.8757C26.3113 10.5786 26.1933 10.2937 25.9833 10.0837C25.7732 9.87366 25.4884 9.75566 25.1913 9.75566H17.3513ZM17.3513 14.2357C17.0543 14.2357 16.7694 14.3537 16.5594 14.5637C16.3493 14.7737 16.2313 15.0586 16.2313 15.3557C16.2313 15.6527 16.3493 15.9376 16.5594 16.1476C16.7694 16.3577 17.0543 16.4757 17.3513 16.4757H25.1913C25.4884 16.4757 25.7732 16.3577 25.9833 16.1476C26.1933 15.9376 26.3113 15.6527 26.3113 15.3557C26.3113 15.0586 26.1933 14.7737 25.9833 14.5637C25.7732 14.3537 25.4884 14.2357 25.1913 14.2357H17.3513ZM17.3513 18.7157C17.0543 18.7157 16.7694 18.8337 16.5594 19.0437C16.3493 19.2537 16.2313 19.5386 16.2313 19.8357C16.2313 20.1327 16.3493 20.4176 16.5594 20.6276C16.7694 20.8377 17.0543 20.9557 17.3513 20.9557H22.9513C23.2484 20.9557 23.5332 20.8377 23.7433 20.6276C23.9533 20.4176 24.0713 20.1327 24.0713 19.8357C24.0713 19.5386 23.9533 19.2537 23.7433 19.0437C23.5332 18.8337 23.2484 18.7157 22.9513 18.7157H17.3513ZM8.81133 14.7341C10.1637 14.7341 11.2613 13.6197 11.2613 12.2449C11.2613 10.8701 10.1637 9.75566 8.81133 9.75566C7.45893 9.75566 6.36133 10.8701 6.36133 12.2449C6.36133 13.6197 7.45893 14.7341 8.81133 14.7341ZM3.91133 19.0881C3.91133 20.1213 4.73453 20.9557 5.74953 20.9557H11.8731C12.8881 20.9557 13.7113 20.1199 13.7113 19.0895C13.7113 18.0577 12.7929 15.9773 8.81133 15.9773C4.82973 15.9773 3.91133 18.0577 3.91133 19.0895V19.0881Z" fill="#00FF95"/>
</svg>
