<svg width="30" height="30" viewBox="0 0 30 30" fill="none" xmlns="http://www.w3.org/2000/svg">
<path fill-rule="evenodd" clip-rule="evenodd" d="M9.13856 4.27783C9.13856 3.4494 9.81326 2.77783 10.6455 2.77783H16.6735C17.5058 2.77783 18.1805 3.4494 18.1805 4.27783C18.1805 4.83304 17.8774 5.3178 17.427 5.57716V13.6774C17.9267 13.9317 18.3971 14.235 18.8318 14.5809L20.8716 12.5506L21.3652 11.2828C21.5619 10.7775 22.2156 10.6403 22.6006 11.0235L25.4002 13.8101C25.7851 14.1933 25.6473 14.844 25.1396 15.0398L23.8677 15.5304L21.3761 18.0105C21.6279 18.648 21.8022 19.3243 21.8877 20.0278C21.8883 20.0333 21.889 20.0388 21.8896 20.0443C21.9281 20.3668 21.9479 20.695 21.9479 21.0278C21.9479 23.5906 20.774 25.8804 18.9321 27.3936C18.6127 27.656 18.2039 27.7778 17.7897 27.7778H9.52929C9.1151 27.7778 8.70632 27.656 8.38689 27.3936C6.54505 25.8804 5.37109 23.5906 5.37109 21.0278C5.37109 20.6894 5.39157 20.3556 5.43136 20.0278C5.76847 17.2508 7.49169 14.8988 9.89205 13.6774V5.57716C9.44161 5.3178 9.13856 4.83304 9.13856 4.27783ZM19.3493 20.0278H7.96974C8.28679 18.2273 9.44544 16.7124 11.0353 15.9034L12.4037 15.2071V5.77783H14.9153V15.2071L16.2837 15.9034C17.8736 16.7124 19.0322 18.2273 19.3493 20.0278Z" fill="#00FF95"/>
</svg>
