<svg width="30" height="30" viewBox="0 0 30 30" fill="none" xmlns="http://www.w3.org/2000/svg">
<path fill-rule="evenodd" clip-rule="evenodd" d="M13.8664 1C13.1488 1 12.5404 1.51231 12.439 2.20201L11.9034 5.84019C10.8904 6.21524 9.95558 6.74413 9.1292 7.39743L5.61312 6.0274C4.94694 5.7679 4.1857 6.02328 3.82691 6.62666L2.19351 9.37332C1.83437 9.9767 1.98718 10.7444 2.55195 11.1746L5.53108 13.4447C5.44798 13.9512 5.40467 14.4707 5.40467 15C5.40467 15.5293 5.44798 16.0488 5.53108 16.5553L2.55195 18.8254C1.98718 19.2556 1.83437 20.0233 2.19351 20.6267L3.82691 23.3733C4.1857 23.9767 4.94694 24.2321 5.61312 23.9726L9.1292 22.6025C9.95558 23.2558 10.8904 23.7848 11.9034 24.1598L12.439 27.798C12.5404 28.4877 13.1488 29 13.8664 29H17.1339C17.8515 29 18.4599 28.4877 18.5613 27.798L19.0968 24.1598C20.1098 23.7848 21.0447 23.2559 21.871 22.6027L25.3868 23.9726C26.0529 24.2321 26.8142 23.9767 27.173 23.3733L28.8067 20.6267C29.1655 20.0233 29.0127 19.2556 28.4483 18.8254L25.4692 16.5554C25.5523 16.0488 25.5956 15.5293 25.5956 15C25.5956 14.8271 25.591 14.6553 25.5818 14.4847C25.5632 14.1327 25.5251 13.7857 25.4692 13.4446L28.4483 11.1746C29.0127 10.7444 29.1655 9.9767 28.8067 9.37332L27.173 6.62666C26.8142 6.02328 26.0529 5.7679 25.3868 6.0274L21.871 7.39735C21.0447 6.74409 20.1098 6.21524 19.0968 5.84019L18.5613 2.20201C18.4599 1.51231 17.8515 1 17.1339 1H13.8664ZM15.5003 19.2C17.8898 19.2 19.8269 17.3196 19.8269 15C19.8269 12.6804 17.8898 10.8 15.5003 10.8C13.1107 10.8 11.1736 12.6804 11.1736 15C11.1736 17.3196 13.1107 19.2 15.5003 19.2Z" fill="#00FF95"/>
</svg>
