<svg width="30" height="30" viewBox="0 0 30 30" fill="none" xmlns="http://www.w3.org/2000/svg">
<path fill-rule="evenodd" clip-rule="evenodd" d="M2.70312 15.0557C2.70312 8.15254 8.3 2.55566 15.2031 2.55566C22.1063 2.55566 27.7031 8.15254 27.7031 15.0557C27.7031 21.9588 22.1063 27.5557 15.2031 27.5557C8.3 27.5557 2.70312 21.9588 2.70312 15.0557ZM16.6094 17.5581H13.9393V17.3818C13.953 14.9248 14.5539 14.565 15.6568 13.9045C15.7733 13.8348 15.8955 13.7616 16.0231 13.6823C16.9362 13.1088 17.638 12.3843 17.638 11.3279C17.638 10.1431 16.7098 9.3734 15.5553 9.3734C14.4913 9.3734 13.484 9.87073 13.416 11.2894H10.5828C10.6582 8.42187 12.9292 6.93066 15.5704 6.93066C18.453 6.93066 20.4376 8.73952 20.4376 11.2901C20.4376 13.0182 19.5698 14.1501 18.1813 14.9802C18.0756 15.0451 17.9766 15.1047 17.8838 15.1605C16.8974 15.7544 16.6232 15.9195 16.6094 17.3818V17.5581ZM16.8228 21.3232C16.8153 22.2438 16.0531 22.9833 15.1627 22.9833C14.2421 22.9833 13.495 22.2438 13.5025 21.3232C13.495 20.4176 14.2421 19.6781 15.1627 19.6781C16.0531 19.6781 16.8153 20.4176 16.8228 21.3232Z" fill="#00FF95"/>
</svg>
