<svg width="30" height="30" viewBox="0 0 30 30" fill="none" xmlns="http://www.w3.org/2000/svg">
<path fill-rule="evenodd" clip-rule="evenodd" d="M6.80324 0.777832H22.2041C23.3639 0.777832 24.3042 1.71808 24.3042 2.87795V28.3909C24.3042 28.6341 24.0155 28.7616 23.8357 28.598L21.5085 26.4799C21.2414 26.2368 20.8332 26.2368 20.5661 26.4799L18.2417 28.5955C17.9746 28.8386 17.5664 28.8386 17.2993 28.5955L14.9749 26.4799C14.7078 26.2368 14.2996 26.2368 14.0325 26.4799L11.708 28.5955C11.4409 28.8386 11.0327 28.8386 10.7656 28.5955L8.44116 26.4799C8.17407 26.2368 7.76587 26.2368 7.49877 26.4799L5.17162 28.598C4.99178 28.7616 4.70312 28.6341 4.70312 28.3909V2.87795C4.70312 1.71809 5.64338 0.777832 6.80324 0.777832ZM12.6934 16.5889C13.6272 17.5227 14.4995 17.5773 14.5359 17.5787C15.2751 17.5787 15.9037 16.9515 15.9037 16.1787C15.9037 15.2742 15.7245 15.1272 14.1634 14.7366L14.1617 14.7361C12.718 14.3749 10.3034 13.7706 10.3034 10.5784C10.3059 9.71265 10.5764 8.86894 11.0778 8.16321C11.5792 7.45748 12.2869 6.92437 13.1036 6.63715V6.37813C13.1036 6.00681 13.2511 5.6507 13.5137 5.38813C13.7762 5.12557 14.1323 4.97806 14.5037 4.97806C14.875 4.97806 15.2311 5.12557 15.4937 5.38813C15.7562 5.6507 15.9037 6.00681 15.9037 6.37813V6.65815C16.8063 6.98012 17.6236 7.50345 18.2937 8.18843C18.5562 8.45096 18.7037 8.80702 18.7037 9.17829C18.7037 9.54955 18.5562 9.90561 18.2937 10.1681C18.0311 10.4307 17.6751 10.5781 17.3038 10.5781C16.9325 10.5781 16.5765 10.4307 16.314 10.1681C15.3801 9.23429 14.5065 9.17969 14.4701 9.17829C13.7308 9.17829 13.1036 9.80552 13.1036 10.5784C13.1036 11.4828 13.2814 11.6298 14.8425 12.0204L14.8447 12.021C16.2884 12.3823 18.7039 12.9867 18.7039 16.1787C18.701 17.0443 18.4303 17.8878 17.929 18.5934C17.4276 19.2991 16.7202 19.8323 15.9037 20.1199V20.3789C15.9037 20.7502 15.7562 21.1063 15.4937 21.3689C15.2311 21.6315 14.875 21.779 14.5037 21.779C14.1323 21.779 13.7762 21.6315 13.5137 21.3689C13.2511 21.1063 13.1036 20.7502 13.1036 20.3789V20.0989C12.2007 19.7776 11.3833 19.2541 10.7137 18.5686C10.5837 18.4386 10.4805 18.2843 10.4102 18.1144C10.3398 17.9446 10.3036 17.7626 10.3036 17.5787C10.3036 17.2075 10.4511 16.8514 10.7137 16.5889C10.9762 16.3264 11.3322 16.1789 11.7035 16.1789C12.0748 16.1789 12.4308 16.3264 12.6934 16.5889Z" fill="#00FF95"/>
</svg>
