<svg width="30" height="30" viewBox="0 0 30 30" fill="none" xmlns="http://www.w3.org/2000/svg">
<path fill-rule="evenodd" clip-rule="evenodd" d="M25.9167 3C27.0278 3 28 3.97222 28 5.08333V25.9167C28 27.0278 27.0278 28 25.9167 28H5.08333C3.97222 28 3 27.0278 3 25.9167V5.08333C3 3.97222 3.97222 3 5.08333 3H25.9167ZM22.5974 15.0573C22.0602 14.5366 21.1891 14.5367 20.6519 15.0573L14.0579 21.4473L10.9036 18.3906C10.3664 17.87 9.49531 17.87 8.95812 18.3906C8.42113 18.9113 8.42099 19.7559 8.95812 20.2765L13.0857 24.276C13.623 24.7967 14.494 24.7967 15.0313 24.276L22.5974 16.9431C23.1346 16.4225 23.1344 15.578 22.5974 15.0573ZM5.77778 5.96332V11.3333H25.2222V5.96332H5.77778Z" fill="#00FF95"/>
</svg>
