<svg width="30" height="30" viewBox="0 0 30 30" fill="none" xmlns="http://www.w3.org/2000/svg">
<path fill-rule="evenodd" clip-rule="evenodd" d="M27.9999 7.10362C27.9941 8.19408 27.5591 9.18792 26.8532 9.92913C27.5512 10.6631 27.9758 11.6525 27.97 12.743C27.9597 14.6852 26.5875 16.3209 24.749 16.7686C24.8326 17.0962 24.8761 17.4397 24.8742 17.7939C24.8621 20.0722 22.9761 21.9287 20.6617 21.9406C19.771 21.9452 18.9466 21.6759 18.2702 21.213C15.6528 22.268 12.5508 21.7623 10.4438 19.6882C8.31882 17.5964 7.81435 14.5085 8.92241 11.9184C8.55596 11.3055 8.34757 10.5892 8.35164 9.82297C8.36374 7.54472 10.2498 5.68817 12.5642 5.67626C13.1011 5.6735 13.6138 5.77024 14.0846 5.94891C14.624 4.2668 16.2218 3.03923 18.1024 3.02955C18.5771 3.0271 19.0799 3.076 19.4577 3.24347C20.2886 3.61187 21.0859 4.6268 21.2382 5.23833C21.2967 5.47356 21.3377 5.83615 21.3091 6.20629C21.2796 6.58667 21.1844 6.87851 21.0576 7.05268C20.7769 7.43815 20.8645 7.97135 21.2532 8.24362C21.6418 8.51589 22.1844 8.42412 22.4651 8.03865C22.8533 7.5055 22.9983 6.85971 23.0402 6.31837C23.0828 5.76679 23.0263 5.22359 22.9246 4.81517C22.8072 4.34356 22.578 3.81563 22.2195 3.32378C22.7163 3.118 23.2608 3.00299 23.8312 3.00006C26.1457 2.98814 28.012 4.82537 27.9999 7.10362ZM20.2358 15.8091C19.6508 16.5076 18.7809 16.7644 18.1399 16.7571C17.8933 16.7543 17.5265 16.7031 17.171 16.5838C16.8056 16.4612 16.5448 16.2981 16.408 16.1342C16.1052 15.7714 15.5584 15.722 15.1867 16.0239C14.815 16.3258 14.7592 16.8646 15.0619 17.2273C15.4807 17.7291 16.0755 18.0275 16.5954 18.202C17.1252 18.3798 17.6735 18.4611 18.1016 18.466C19.1474 18.4779 20.575 18.0769 21.5707 16.888C21.8772 16.522 21.8269 15.9838 21.4582 15.6859C21.0896 15.3879 20.5423 15.4431 20.2358 15.8091Z" fill="#00FF95"/>
<path d="M5.57818 11.8809C6.07404 12.0403 6.85448 12.3925 7.23849 12.5803C6.63496 14.4704 6.72152 16.5223 7.50023 18.351C7.87663 19.2811 8.44635 20.1516 9.20969 20.903C9.22629 20.9193 9.24295 20.9356 9.25967 20.9517L9.28644 20.9784L9.31145 21.0031C11.594 23.25 14.866 23.9371 17.7768 23.0714C17.9733 23.4791 18.2411 24.0742 18.375 24.4777C18.6058 25.1737 18.6777 25.6696 18.6751 26.0109C18.3967 26.1494 17.5492 26.3877 16.3858 26.2327C15.2224 26.0776 14.2425 25.498 13.8979 25.2277C13.8978 25.2514 13.9006 25.2886 13.9044 25.3371C13.9221 25.567 13.9594 26.0507 13.7837 26.5592C13.6122 27.0556 13.0471 27.6906 12.7328 28C12.3867 27.9343 11.3023 27.417 9.73368 25.8729C8.16504 24.3288 8.0607 22.5758 8.20461 21.8923C7.5103 22.034 5.72953 21.9313 4.16089 20.3872C2.59225 18.843 2.0667 17.7756 2 17.4349C2.31433 17.1255 2.95942 16.5692 3.46372 16.4004C3.98028 16.2275 4.4716 16.2642 4.70516 16.2816C4.75441 16.2853 4.79221 16.2882 4.81635 16.288C4.54168 15.9488 3.95295 14.9842 3.7954 13.839C3.63784 12.6938 3.87996 11.8595 4.02072 11.5855C4.36735 11.5829 4.87118 11.6536 5.57818 11.8809Z" fill="#00FF95"/>
</svg>
