<svg width="30" height="30" viewBox="0 0 30 30" fill="none" xmlns="http://www.w3.org/2000/svg">
<path fill-rule="evenodd" clip-rule="evenodd" d="M28.6821 14.8691C25.7107 7.44049 19.996 4.05532 14.2839 4.35077C8.63758 4.64282 3.3102 8.52455 1.052 14.9228L0.888672 15.3855L1.052 15.8483C3.3102 22.2465 8.63758 26.1283 14.2839 26.4203C19.996 26.7158 25.7107 23.3306 28.6821 15.9019L28.8887 15.3855L28.6821 14.8691ZM14.8773 22.3378C18.7169 22.3378 21.8295 19.2251 21.8295 15.3855C21.8295 11.546 18.7169 8.43334 14.8773 8.43334C11.0377 8.43334 7.92507 11.546 7.92507 15.3855C7.92507 19.2251 11.0377 22.3378 14.8773 22.3378Z" fill="#00FF95"/>
<path d="M19.0486 15.3855C19.0486 17.6893 17.181 19.5569 14.8773 19.5569C12.5735 19.5569 10.7059 17.6893 10.7059 15.3855C10.7059 13.0818 12.5735 11.2142 14.8773 11.2142C17.181 11.2142 19.0486 13.0818 19.0486 15.3855Z" fill="#00FF95"/>
</svg>
