<svg width="30" height="30" viewBox="0 0 30 30" fill="none" xmlns="http://www.w3.org/2000/svg">
<path d="M3.86576 28.7875C3.51785 29.0874 2.9975 29.0675 2.67269 28.7427L1.25719 27.3272C0.932553 27.0023 0.912591 26.4819 1.21241 26.134L5.14766 21.5718L8.42715 24.8514L3.86576 28.7875Z" fill="#00FF95"/>
<path d="M28.7613 3.03152C29.1969 3.46767 29.0084 4.20072 28.4219 4.35175L26.4033 5.12381L26.898 5.61853C27.8613 6.58193 26.9399 9.04496 25.9642 9.94972L17.0148 17.4421L9.61805 23.8237L6.17534 20.3808L12.6014 12.9318L20.0502 4.03542C20.9548 3.05982 23.4175 2.13903 24.3812 3.10158L24.8766 3.59703L25.6479 1.57769C25.7991 0.99125 26.5328 0.803172 26.9688 1.23896L28.7613 3.03152Z" fill="#00FF95"/>
</svg>
