<svg width="30" height="30" viewBox="0 0 30 30" fill="none" xmlns="http://www.w3.org/2000/svg">
<path d="M23.308 3C22.4558 3 21.7669 3.71807 21.7669 4.60638V4.82304L10.9143 8.15341V18.8378L21.7669 22.1682V22.2765C21.7669 23.1649 22.4558 23.8829 23.308 23.8829C23.887 23.8829 24.3858 23.5456 24.6501 23.0534L24.849 23.1153V3.87902L24.6976 3.92545C24.4511 3.3807 23.9226 3.0031 23.308 3.0031V3Z" fill="#00FF95"/>
<path d="M26.6899 10.7348V16.1234C27.9667 16.1234 29 14.9163 29 13.4306C29 11.945 27.9667 10.7379 26.6899 10.7379V10.7348Z" fill="#00FF95"/>
<path d="M1 11.2981V15.6963C1 16.826 1.83733 17.7638 2.91813 17.8412L5.28462 18.0114L6.55249 25.5636C6.59406 25.8174 6.80488 26 7.05133 26H8.39639C8.6755 26 8.90414 25.7648 8.90414 25.4707V8.68578L2.90626 9.15624C1.83139 9.23981 1 10.1745 1 11.2981Z" fill="#00FF95"/>
</svg>
