<svg width="30" height="30" viewBox="0 0 30 30" fill="none" xmlns="http://www.w3.org/2000/svg">
<path d="M18.1615 11.2623C20.3636 11.2623 22.1488 9.41272 22.1488 7.13115C22.1488 4.84958 20.3636 3 18.1615 3C16.7252 3 15.4662 3.78686 14.7643 4.96721H3.9727C2.88333 4.96721 2 5.88241 2 7.01107C2 8.13973 2.88333 9.05493 3.9727 9.05493H14.632C15.2998 10.3675 16.6298 11.2623 18.1615 11.2623Z" fill="#00FF95"/>
<path d="M7.01921 20.7049H3.9727C2.88333 20.7049 2 21.6201 2 22.7488C2 23.8774 2.88333 24.7926 3.9727 24.7926H6.8869C7.55476 26.1052 8.88473 27 10.4164 27C12.6185 27 14.4037 25.1504 14.4037 22.8689C14.4037 20.5873 12.6185 18.7377 10.4164 18.7377C8.98008 18.7377 7.72112 19.5246 7.01921 20.7049Z" fill="#00FF95"/>
<path d="M15.6289 20.7049C15.7977 21.3567 15.8887 22.0414 15.8887 22.7488C15.8887 23.4562 15.7977 24.1409 15.6289 24.7926H25.9867C27.0761 24.7926 27.9594 23.8774 27.9594 22.7488C27.9594 21.6201 27.0761 20.7049 25.9867 20.7049H15.6289Z" fill="#00FF95"/>
<path d="M23.4374 4.96721C23.6358 5.67007 23.7432 6.41267 23.7432 7.18139C23.7432 7.82748 23.6665 8.45426 23.5251 9.05493H26.0273C27.1167 9.05493 28 8.13973 28 7.01107C28 5.88241 27.1167 4.96721 26.0273 4.96721H23.4374Z" fill="#00FF95"/>
</svg>
