<svg width="30" height="30" viewBox="0 0 30 30" fill="none" xmlns="http://www.w3.org/2000/svg">
<path fill-rule="evenodd" clip-rule="evenodd" d="M17.1999 1.91122C15.9849 0.696259 14.0151 0.696259 12.8001 1.91122L11.9675 2.74381C11.0924 3.61898 9.90537 4.11064 8.6677 4.11064H7.22222C5.504 4.11064 4.11111 5.50353 4.11111 7.22175V8.66723C4.11111 9.90491 3.61945 11.0919 2.74428 11.9671L1.91122 12.8001C0.696258 14.0151 0.696259 15.9849 1.91122 17.1999L2.74427 18.0329C3.61944 18.9081 4.11111 20.0951 4.11111 21.3328V22.7773C4.11111 24.4955 5.504 25.8884 7.22222 25.8884H8.66676C9.90444 25.8884 11.0914 26.3801 11.9666 27.2553L12.8001 28.0888C14.0151 29.3037 15.9849 29.3037 17.1999 28.0888L18.0334 27.2553C18.9086 26.3801 20.0956 25.8884 21.3332 25.8884H22.7778C24.496 25.8884 25.8889 24.4955 25.8889 22.7773V21.3328C25.8889 20.0951 26.3806 18.9081 27.2557 18.0329L28.0888 17.1999C29.3037 15.9849 29.3037 14.0151 28.0888 12.8001L27.2557 11.9671C26.3806 11.0919 25.8889 9.90491 25.8889 8.66723V7.22175C25.8889 5.50353 24.496 4.11064 22.7778 4.11064H21.3323C20.0946 4.11064 18.9076 3.61898 18.0325 2.74381L17.1999 1.91122ZM19.4054 11.1962C19.882 10.4814 19.6888 9.51558 18.974 9.03903C18.2592 8.56249 17.2934 8.75565 16.8168 9.47047L10.5946 18.8038C10.118 19.5186 10.3112 20.4844 11.026 20.961C11.7408 21.4375 12.7066 21.2444 13.1832 20.5295L19.4054 11.1962ZM9.55556 13.4444C10.8442 13.4444 11.8889 12.3998 11.8889 11.1111C11.8889 9.82245 10.8442 8.77778 9.55556 8.77778C8.26689 8.77778 7.22222 9.82245 7.22222 11.1111C7.22222 12.3998 8.26689 13.4444 9.55556 13.4444ZM22.7778 18.8889C22.7778 20.1776 21.7331 21.2222 20.4444 21.2222C19.1558 21.2222 18.1111 20.1776 18.1111 18.8889C18.1111 17.6002 19.1558 16.5556 20.4444 16.5556C21.7331 16.5556 22.7778 17.6002 22.7778 18.8889Z" fill="#00FF95"/>
</svg>
