<svg width="30" height="30" viewBox="0 0 30 30" fill="none" xmlns="http://www.w3.org/2000/svg">
<path d="M12.646 6.40066C11.9793 6.40066 11.6454 5.5911 12.1168 5.11763L14.6704 2.55314C14.9626 2.25963 15.4365 2.25963 15.7287 2.55314L18.2823 5.11763C18.7537 5.5911 18.4198 6.40066 17.7531 6.40066H16.2324V9.53486C16.2324 10.0871 15.7847 10.5348 15.2324 10.5348C14.6802 10.5348 14.2325 10.0871 14.2325 9.53486V6.40066H12.646Z" fill="#00FF95"/>
<path d="M21.8657 10.2784C21.199 10.2784 20.8651 9.46888 21.3365 8.99541L23.8901 6.43092C24.1823 6.13741 24.6562 6.13741 24.9484 6.43092L27.502 8.99541C27.9734 9.46888 27.6395 10.2784 26.9728 10.2784H25.4521V13.4126C25.4521 13.9649 25.0044 14.4126 24.4521 14.4126C23.8999 14.4126 23.4522 13.9649 23.4522 13.4126V10.2784H21.8657Z" fill="#00FF95"/>
<path d="M2.9956 12.8732C2.52415 13.3466 2.85805 14.1562 3.52478 14.1562H5.11125L5.11125 17.2904C5.11125 17.8427 5.55896 18.2904 6.11123 18.2904C6.6635 18.2904 7.1112 17.8427 7.1112 17.2904V14.1562H8.63189C9.29863 14.1562 9.63253 13.3466 9.16108 12.8732L6.60752 10.3087C6.31526 10.0152 5.84141 10.0152 5.54915 10.3087L2.9956 12.8732Z" fill="#00FF95"/>
<path d="M13.2399 12.7713C12.5496 12.7713 11.99 13.3309 11.99 14.0213V27.333H18.4898V14.0213C18.4898 13.3309 17.9302 12.7713 17.2398 12.7713H13.2399Z" fill="#00FF95"/>
<path d="M22.7397 16.7883C22.0493 16.7883 21.4897 17.348 21.4897 18.0383V27.333H27.7395V18.0383C27.7395 17.348 27.1799 16.7883 26.4896 16.7883H22.7397Z" fill="#00FF95"/>
<path d="M2.74023 22.0553C2.74023 21.365 3.29986 20.8054 3.9902 20.8054H7.7401C8.43043 20.8054 8.99006 21.365 8.99006 22.0553V27.333H2.74023V22.0553Z" fill="#00FF95"/>
</svg>
