<svg width="30" height="30" viewBox="0 0 30 30" fill="none" xmlns="http://www.w3.org/2000/svg">
<path d="M8.32422 2.33301C7.17363 2.33301 6.24089 3.26575 6.24089 4.41634V5.11079H22.9076V4.41634C22.9076 3.26575 21.9748 2.33301 20.8242 2.33301H8.32422Z" fill="#00FF95"/>
<path d="M3.46311 9.9719C3.46311 8.8213 4.39585 7.88856 5.54644 7.88856H23.602C24.7526 7.88856 25.6853 8.8213 25.6853 9.9719V10.6663H3.46311V9.9719Z" fill="#00FF95"/>
<path d="M2.07422 15.5275C2.07422 14.3769 3.00696 13.4441 4.15755 13.4441H24.9909C26.1415 13.4441 27.0742 14.3769 27.0742 15.5275V25.2497C27.0742 26.4003 26.1415 27.333 24.9909 27.333H4.15755C3.00696 27.333 2.07422 26.4003 2.07422 25.2497V15.5275Z" fill="#00FF95"/>
</svg>
