<svg width="30" height="30" viewBox="0 0 30 30" fill="none" xmlns="http://www.w3.org/2000/svg">
<path fill-rule="evenodd" clip-rule="evenodd" d="M20.8542 6.32739C20.787 3.251 18.2722 0.777832 15.1798 0.777832C12.0873 0.777832 9.57267 3.251 9.50555 6.32739H4.69464C4.41346 6.32739 4.18555 6.55531 4.18555 6.83648V26.5378C4.18555 27.7749 5.18838 28.7778 6.42556 28.7778H23.7855C25.0227 28.7778 26.0256 27.7749 26.0256 26.5378V6.83648C26.0256 6.55531 25.7976 6.32739 25.5165 6.32739H20.8569V7.58862C20.8569 8.2852 20.2923 8.84991 19.5957 8.84991C18.8991 8.84991 18.3344 8.2852 18.3344 7.58862V6.32739H20.8542ZM9.50555 6.32739H12.028V7.58862C12.028 8.2852 11.4634 8.84991 10.7668 8.84991C10.0702 8.84991 9.50555 8.2852 9.50555 7.58862V6.32739ZM15.1798 3.30036C16.8791 3.30036 18.2643 4.64444 18.3305 6.32739H12.0291C12.0954 4.64444 13.4807 3.30036 15.1798 3.30036ZM13.001 23.1689C12.8351 23.2164 12.6837 23.0661 12.7303 22.9001C12.8156 22.5967 12.913 22.2993 13.0222 22.0083C12.7899 21.9787 12.5583 21.9438 12.3271 21.9027C11.3232 21.7238 10.3301 21.4273 9.34845 20.9471C9.18467 20.8669 9.18454 20.639 9.34833 20.5588C10.1172 20.1827 10.8931 19.9193 11.6757 19.7369C10.7018 18.5772 9.9671 17.2046 9.53467 15.686C9.48722 15.5194 9.63926 15.3683 9.80578 15.4164C11.1518 15.8059 12.3828 16.4336 13.4511 17.255C13.2936 15.488 13.7491 13.6935 14.8106 12.0771C14.8976 11.9447 15.0896 11.9447 15.1764 12.0771C16.2379 13.6935 16.6935 15.488 16.536 17.255C17.6044 16.4336 18.8352 15.8059 20.1812 15.4164C20.3478 15.3683 20.4998 15.5194 20.4525 15.686C20.02 17.2046 19.2853 18.5772 18.3115 19.7369C19.094 19.9193 19.8699 20.1827 20.6387 20.5588C20.8025 20.639 20.8025 20.8669 20.6387 20.9471C19.5977 21.4563 18.5439 21.7589 17.4779 21.9338C17.3516 21.9545 17.225 21.9735 17.0982 21.9908L16.9649 22.0083C17.074 22.2993 17.1715 22.5967 17.2567 22.9001C17.2754 22.9665 17.2623 23.0305 17.2293 23.0802C17.1799 23.1547 17.0856 23.1974 16.9861 23.1689C16.3021 22.9733 15.6487 22.7156 15.0318 22.4019L14.9936 22.3832L14.9553 22.4019C14.3383 22.7156 13.685 22.9733 13.001 23.1689Z" fill="#00FF95"/>
</svg>
