<svg width="30" height="30" viewBox="0 0 30 30" fill="none" xmlns="http://www.w3.org/2000/svg">
<path fill-rule="evenodd" clip-rule="evenodd" d="M4.70312 4.875C4.70312 3.83947 5.5426 3 6.57812 3H22.8281C23.8636 3 24.7031 3.83947 24.7031 4.875V26.125C24.7031 27.1605 23.8636 28 22.8281 28H6.57812C5.5426 28 4.70312 27.1605 4.70312 26.125V4.875ZM7.45312 6.5H21.9531V21.9873H7.45312V6.5ZM14.8281 26.25C15.5875 26.25 16.2031 25.6344 16.2031 24.875C16.2031 24.1156 15.5875 23.5 14.8281 23.5C14.0687 23.5 13.4531 24.1156 13.4531 24.875C13.4531 25.6344 14.0687 26.25 14.8281 26.25Z" fill="#00FF95"/>
</svg>
