<svg width="30" height="30" viewBox="0 0 30 30" fill="none" xmlns="http://www.w3.org/2000/svg">
<path fill-rule="evenodd" clip-rule="evenodd" d="M16.1553 2.48256C15.609 2.2267 14.9613 2.30348 14.4929 2.67963L9.51222 6.67871L4.75178 4.60241C3.71852 4.15175 2.55469 4.89399 2.55469 6.00362V25.7996C2.55469 26.6465 3.25424 27.333 4.11719 27.333H25.9922C26.8551 27.333 27.5547 26.6465 27.5547 25.7996V4.34865C27.5547 3.22962 26.3728 2.48747 25.3374 2.95641L21.1838 4.83774L16.1553 2.48256ZM5.15885 15.9606V24.7774H24.9505V11.9675C24.9423 11.9748 24.9342 11.9822 24.9261 11.9899L21.5646 15.2042C21.3302 15.4283 20.9783 15.4853 20.6829 15.347L15.989 13.1485C15.6687 12.9984 15.2855 13.0792 15.0561 13.3452L10.2071 18.969C9.93379 19.286 9.45304 19.3318 9.12265 19.0725L5.15885 15.9606Z" fill="#00FF95"/>
</svg>
