<svg width="30" height="30" viewBox="0 0 30 30" fill="none" xmlns="http://www.w3.org/2000/svg">
<path fill-rule="evenodd" clip-rule="evenodd" d="M12.8005 1.91104C14.0155 0.696356 15.9847 0.696281 17.1996 1.91104L18.032 2.74339C18.907 3.61846 20.0943 4.11047 21.3318 4.11059H22.7778C23.2865 4.11059 23.7658 4.23426 24.1898 4.45075C24.6725 4.87174 25.125 5.32558 25.5461 5.80811C25.7632 6.23252 25.8884 6.71178 25.8884 7.22124V8.66719C25.8884 9.90484 26.3805 11.0919 27.2556 11.9671L28.0891 12.8005C29.3036 14.0154 29.3037 15.9847 28.0891 17.1996L27.2556 18.0331C26.3805 18.9082 25.8884 20.0953 25.8884 21.3329V22.7778C25.8884 23.2878 25.7626 23.7673 25.545 24.192C25.1248 24.6734 24.6734 25.126 24.192 25.5461C23.7674 25.7634 23.2875 25.8884 22.7778 25.8884H21.3329C20.0953 25.8885 18.9082 26.3805 18.0331 27.2556L17.1996 28.0891C15.9847 29.3037 14.0154 29.3036 12.8005 28.0891L11.966 27.2556C11.0909 26.3806 9.90463 25.8886 8.66719 25.8884H7.22234C6.71231 25.8884 6.23179 25.7636 5.80701 25.5461C5.32588 25.1261 4.87398 24.6742 4.45403 24.1931C4.2363 23.7682 4.11067 23.288 4.11059 22.7778V21.3329C4.11059 20.0954 3.6195 18.9082 2.74449 18.0331L1.91104 17.1996C0.696281 15.9847 0.696356 14.0155 1.91104 12.8005L2.74449 11.9671C3.61956 11.0919 4.11057 9.90479 4.11059 8.66719V7.22124C4.11066 6.71157 4.23563 6.23155 4.45294 5.80701C4.87385 5.32472 5.32682 4.87156 5.8092 4.45075C6.23334 4.23405 6.71335 4.11059 7.22234 4.11059H8.66719C9.90485 4.11059 11.0919 3.61853 11.9671 2.74339L12.8005 1.91104ZM15.0001 6.59999C14.2269 6.59999 13.6 7.2268 13.6 8V8.23844C11.9685 8.81481 10.8 10.3708 10.8 12.2C10.8 13.6188 11.3038 14.6779 12.235 15.3763C12.9914 15.9435 13.9358 16.1785 14.568 16.3355L14.6599 16.3585C15.4301 16.5511 15.8293 16.672 16.0851 16.8638C16.2038 16.9529 16.4001 17.1191 16.4001 17.8001C16.4 18.5661 15.7861 19.1878 15.023 19.2001C15.0111 19.1991 14.9887 19.1969 14.9574 19.1924C14.8779 19.1811 14.7419 19.1552 14.568 19.0973C14.2246 18.9828 13.7188 18.7391 13.1899 18.2102C12.6431 17.6635 11.7569 17.6635 11.2102 18.2102C10.6634 18.757 10.6634 19.6432 11.2102 20.1899C12.0477 21.0274 12.9071 21.4814 13.6 21.7245V22.0001C13.6001 22.7733 14.2269 23.4001 15.0001 23.4001C15.7732 23.4001 16.4 22.7732 16.4001 22.0001V21.7617C18.0316 21.1853 19.2 19.6293 19.2001 17.8001C19.2001 16.3813 18.6963 15.3223 17.7651 14.6238C17.0087 14.0565 16.0644 13.8216 15.4321 13.6646L15.3391 13.6416C14.5693 13.4491 14.1708 13.328 13.915 13.1363C13.7963 13.0473 13.6001 12.8811 13.6 12.2C13.6 11.4339 14.2139 10.8122 14.9771 10.8C14.9891 10.801 15.0114 10.8032 15.0427 10.8077C15.1223 10.8191 15.2581 10.8449 15.4321 10.9028C15.7755 11.0173 16.2813 11.2609 16.8102 11.7899C17.357 12.3365 18.2432 12.3366 18.7899 11.7899C19.3366 11.2432 19.3366 10.3569 18.7899 9.81017C17.9524 8.97261 17.0931 8.51763 16.4001 8.27453V8C16.4001 7.22683 15.7732 6.60005 15.0001 6.59999Z" fill="#00FF95"/>
</svg>
