<svg width="30" height="30" viewBox="0 0 30 30" fill="none" xmlns="http://www.w3.org/2000/svg">
<path d="M18.0447 4.55566C17.8784 4.57741 17.7126 4.58916 17.5463 4.55566H18.0447Z" fill="#00FF95"/>
<path d="M2.74141 12.634C2.74141 10.8103 2.74317 8.98656 2.74024 7.16284C2.73965 6.70206 2.89834 6.32415 3.27566 6.05027C3.46197 5.91509 3.67649 5.85103 3.90394 5.83281C3.98446 5.82634 4.06498 5.82634 4.1455 5.82634C5.99978 5.82634 7.85407 5.82634 9.70835 5.82752C9.7207 5.82752 9.73304 5.82752 9.74479 5.82752C9.78711 5.82517 9.80122 5.83692 9.77065 5.87512C9.7254 5.93213 9.67897 5.98914 9.63724 6.0485C9.23817 6.6186 8.98839 7.24512 8.90845 7.93864C8.81501 8.74736 8.89611 9.53374 9.227 10.2813C9.7589 11.485 10.6487 12.3119 11.8947 12.7439C12.5806 12.9819 13.2876 13.0278 14.0047 12.9261C14.4131 12.8685 14.7999 12.7363 15.1848 12.594C15.6809 12.4107 16.181 12.2391 16.6741 12.0475C16.8058 11.9963 16.9415 11.9558 17.0732 11.9052C17.1149 11.8894 17.1384 11.8976 17.169 11.927C18.0612 12.7927 18.9551 13.6567 19.8473 14.5218C20.5784 15.2306 21.3078 15.9412 22.0383 16.6506C22.1923 16.8004 22.3469 16.9497 22.5038 17.0966C22.5402 17.1307 22.5485 17.1683 22.5461 17.2142C22.5161 17.8836 22.3198 18.4978 21.9378 19.0503C21.7874 19.2677 21.6146 19.4664 21.4277 19.6533C19.7356 21.343 18.0459 23.0345 16.3538 24.7236C15.8748 25.202 15.3206 25.5558 14.6553 25.7122C13.5421 25.9737 12.5394 25.7327 11.6549 25.0157C11.2817 24.713 10.9267 24.3874 10.5635 24.0718C10.2943 23.8385 10.024 23.6057 9.75596 23.3712C8.6669 22.4168 7.5796 21.4611 6.48995 20.5078C5.74588 19.8566 4.99829 19.2089 4.25305 18.5589C4.18135 18.4966 4.11023 18.4331 4.04147 18.3667C4.01091 18.3367 3.97858 18.3273 3.93685 18.3273C3.56776 18.3285 3.19925 18.3262 2.83016 18.3297C2.76198 18.3303 2.74317 18.3109 2.74317 18.2439C2.74494 16.3737 2.74435 14.5036 2.74435 12.6328H2.74141V12.634Z" fill="#00FF95"/>
<path d="M27.7352 12.2773C27.7352 13.816 27.7334 15.354 27.7375 16.8927C27.7375 17.1084 27.7469 17.3212 27.6647 17.5263C27.4801 17.9835 27.1445 18.2545 26.6567 18.3097C26.2094 18.3603 25.7587 18.3203 25.309 18.3297C25.2556 18.3309 25.2579 18.2974 25.2579 18.2621C25.2567 17.9812 25.2497 17.7003 25.255 17.4199C25.2697 16.6453 24.9899 15.9953 24.4304 15.4651C23.8062 14.8739 23.1991 14.265 22.5773 13.6714C21.7227 12.855 20.8846 12.021 20.0277 11.2064C19.2736 10.4894 18.5325 9.75945 17.7879 9.03301C17.7426 8.98893 17.7062 8.99716 17.6574 9.01538C16.4373 9.46088 15.2154 9.90344 13.9958 10.3507C12.8586 10.7674 11.6908 10.0751 11.4269 8.9472C11.2388 8.14437 11.5985 7.29627 12.3273 6.85136C12.6194 6.67328 12.9368 6.5428 13.2494 6.40704C13.6632 6.22719 14.0658 6.02266 14.4766 5.83635C15.2095 5.50429 15.94 5.1681 16.6718 4.83251C17.0232 4.67147 17.3882 4.59683 17.7779 4.59977C18.1335 4.60212 18.469 4.66266 18.7976 4.79372C19.1649 4.94007 19.5193 5.11403 19.8825 5.26919C20.4897 5.52897 21.0938 5.79697 21.6986 6.06263C22.3992 6.3706 23.1021 6.67445 23.798 6.993C23.9484 7.06177 24.0725 7.06706 24.2253 7.01122C24.8541 6.78025 25.4907 6.56984 26.1301 6.37001C26.8554 6.14315 27.5918 6.60099 27.7293 7.34799C27.7487 7.45202 27.7364 7.55722 27.7364 7.66243C27.7364 8.94955 27.7364 10.2361 27.7364 11.5232C27.7364 11.7748 27.7364 12.0263 27.7364 12.2779L27.7352 12.2773Z" fill="#00FF95"/>
</svg>
