<svg width="30" height="30" viewBox="0 0 30 30" fill="none" xmlns="http://www.w3.org/2000/svg">
<path fill-rule="evenodd" clip-rule="evenodd" d="M7.79062 13.6075C7.79062 9.91388 10.4484 6.83663 13.9703 6.15169V3.8036C13.9703 2.99105 14.6346 2.33301 15.4531 2.33301C16.2716 2.33301 16.9359 2.99105 16.9359 3.8036V6.15169C20.4578 6.83663 23.1155 9.91388 23.1155 13.6075C23.1155 15.4857 23.3068 16.782 23.6418 17.8916C23.9778 19.0046 24.4609 19.94 25.0641 21.1062L25.0643 21.1066L25.1069 21.1892L25.1071 21.1897C25.4015 21.7594 24.9831 22.431 24.3406 22.431H6.56553C5.92301 22.431 5.50464 21.7591 5.7993 21.1892L5.84187 21.1066L5.84208 21.1062C6.4453 19.94 6.9284 19.0046 7.26438 17.8916C7.59935 16.782 7.79062 15.4857 7.79062 13.6075Z" fill="#00FF95"/>
<path d="M18.1718 24.6369V24.3918H12.7344V24.6369C12.7344 26.1263 13.952 27.333 15.4531 27.333C16.9542 27.333 18.1718 26.1263 18.1718 24.6369Z" fill="#00FF95"/>
</svg>
