<svg width="30" height="30" viewBox="0 0 30 30" fill="none" xmlns="http://www.w3.org/2000/svg">
<path d="M13.6276 2.22225C13.6276 1.42452 14.2658 0.777832 15.0531 0.777832C15.8403 0.777832 16.4785 1.42452 16.4785 2.22225V4.38888H13.6276V2.22225Z" fill="#00FF95"/>
<path d="M11.2518 6.55552C11.2518 6.0237 11.6773 5.59257 12.2021 5.59257H17.904C18.4288 5.59257 18.8543 6.0237 18.8543 6.55552V8.96288H11.2518V6.55552Z" fill="#00FF95"/>
<path fill-rule="evenodd" clip-rule="evenodd" d="M10.6139 10.648C10.5189 10.728 10.4261 10.811 10.3356 10.897L9.8775 11.3323C8.63225 12.5155 7.92578 14.1682 7.92578 15.898V25.4075C7.92578 27.2689 9.41491 28.7778 11.2518 28.7778H18.8543C20.6912 28.7778 22.1803 27.2689 22.1803 25.4075V15.898C22.1803 14.1682 21.4739 12.5155 20.2286 11.3323L19.7705 10.897C19.68 10.811 19.5872 10.728 19.4922 10.648H10.6139ZM11.7293 13.5369H13.6276V17.8701H10.7767V15.898C10.7767 15.0131 11.1201 14.1657 11.7293 13.5369ZM16.4785 17.8701V22.4441C16.4785 23.2419 15.8403 23.8886 15.0531 23.8886C14.2658 23.8886 13.6276 23.2419 13.6276 22.4441V17.8701H16.4785ZM16.4785 17.8701V13.5369H18.3768C18.9861 14.1657 19.3294 15.0131 19.3294 15.898V17.8701H16.4785Z" fill="#00FF95"/>
</svg>
