<svg width="30" height="30" viewBox="0 0 30 30" fill="none" xmlns="http://www.w3.org/2000/svg">
<path fill-rule="evenodd" clip-rule="evenodd" d="M6.81445 2.77783C6.15664 2.77783 5.19961 2.96421 4.36871 3.56245C3.46983 4.20965 2.81445 5.27661 2.81445 6.77783V24.7778C2.81445 25.8824 3.70989 26.7778 4.81445 26.7778H24.8145C25.919 26.7778 26.8145 25.8824 26.8145 24.7778V21.4445H22.8145C22.1566 21.4445 21.1996 21.2581 20.3687 20.6599C19.4698 20.0127 18.8145 18.9457 18.8145 17.4445C18.8145 15.9433 19.4698 14.8763 20.3687 14.2291C21.1996 13.6309 22.1566 13.4445 22.8145 13.4445H26.8145V10.1112C26.8145 9.01294 25.9278 8.11117 24.8169 8.11117H24.1478V4.77783C24.1478 3.67326 23.2524 2.77783 22.1478 2.77783H6.81445ZM6.81445 5.4445C6.07807 5.4445 5.48112 6.04145 5.48112 6.77783V8.11117H21.4811V5.4445H6.81445Z" fill="#00FF95"/>
<path d="M22.8145 16.1112H26.8145V18.7778H22.8145C22.5834 18.7778 22.2071 18.6975 21.9269 18.4958C21.7146 18.343 21.4811 18.0766 21.4811 17.4445C21.4811 16.8124 21.7146 16.546 21.9269 16.3932C22.2071 16.1915 22.5834 16.1112 22.8145 16.1112Z" fill="#00FF95"/>
</svg>
