<svg width="30" height="30" viewBox="0 0 30 30" fill="none" xmlns="http://www.w3.org/2000/svg">
<path d="M24.1079 18.0005C24.4418 18.0005 24.7623 18.1337 24.9985 18.3696C25.2348 18.6059 25.3677 18.9271 25.3677 19.2612V21.6401H27.8188C28.1527 21.6401 28.4733 21.7724 28.7095 22.0083C28.9457 22.2446 29.0786 22.5658 29.0786 22.8999C29.0785 23.2339 28.9457 23.5543 28.7095 23.7905C28.4732 24.0265 28.1528 24.1597 27.8188 24.1597H25.3677V26.8198C25.3677 27.1539 25.2347 27.4742 24.9985 27.7104C24.7623 27.9466 24.4419 28.0796 24.1079 28.0796C23.774 28.0794 23.4534 27.9466 23.2173 27.7104C22.9813 27.4742 22.8481 27.1538 22.8481 26.8198V24.1597H20.2602C19.9263 24.1595 19.6048 24.0267 19.3686 23.7905C19.1327 23.5544 18.9996 23.2338 18.9995 22.8999C18.9995 22.5659 19.1325 22.2445 19.3686 22.0083C19.6048 21.7722 19.9263 21.6403 20.2602 21.6401H22.8481V19.2612C22.8481 18.9272 22.9812 18.6059 23.2173 18.3696C23.4534 18.1336 23.7741 18.0006 24.1079 18.0005Z" fill="#00FF95"/>
<path fill-rule="evenodd" clip-rule="evenodd" d="M24.4253 2.77783C25.9554 2.77783 27.1957 4.01821 27.1958 5.54834V13.8608C27.1959 14.3299 27.1953 15.2456 25.1177 15.2456H23.0395C18.4491 15.2459 14.728 18.9676 14.728 23.5581V26.3286C14.728 27.9494 13.4685 28.0109 11.9575 27.478C11.3903 27.278 10.8575 26.9512 10.4038 26.4976L3.47704 19.5708C1.85401 17.9478 1.85401 15.3159 3.47704 13.6929L13.1743 3.99561C13.9858 3.18409 15.0501 2.77783 16.1138 2.77783H24.4253ZM20.269 6.93408C18.739 6.93424 17.4985 8.17447 17.4985 9.70459C17.4985 11.2347 18.739 12.4749 20.269 12.4751C21.7992 12.4751 23.0395 11.2348 23.0395 9.70459C23.0395 8.17438 21.7992 6.93408 20.269 6.93408Z" fill="#00FF95"/>
</svg>
