<svg width="30" height="30" viewBox="0 0 30 30" fill="none" xmlns="http://www.w3.org/2000/svg">
<path fill-rule="evenodd" clip-rule="evenodd" d="M2.44531 15.0557C2.44531 21.9482 8.05281 27.5557 14.9453 27.5557C21.8378 27.5557 27.4453 21.9482 27.4453 15.0557C27.4453 8.16316 21.8378 2.55566 14.9453 2.55566C8.05281 2.55566 2.44531 8.16316 2.44531 15.0557ZM8.69531 15.0557C8.69531 14.3653 9.25496 13.8057 9.94531 13.8057H13.6953V10.0557C13.6953 9.36531 14.255 8.80566 14.9453 8.80566C15.6357 8.80566 16.1953 9.36531 16.1953 10.0557V13.8057H19.9453C20.6357 13.8057 21.1953 14.3653 21.1953 15.0557C21.1953 15.746 20.6357 16.3057 19.9453 16.3057H16.1953V20.0557C16.1953 20.746 15.6357 21.3057 14.9453 21.3057C14.255 21.3057 13.6953 20.746 13.6953 20.0557V16.3057H9.94531C9.25496 16.3057 8.69531 15.746 8.69531 15.0557Z" fill="#00FF95"/>
</svg>
