<svg width="30" height="30" viewBox="0 0 30 30" fill="none" xmlns="http://www.w3.org/2000/svg">
<path d="M20.8201 21.24C20.8201 21.6757 20.4197 21.9985 19.8349 21.9985C19.3813 21.9985 19.0894 21.8129 19.0894 21.4668V21.4614C19.0894 21.1331 19.3222 20.9297 19.8414 20.8939L20.8201 20.8223V21.24Z" fill="#00FF95"/>
<path fill-rule="evenodd" clip-rule="evenodd" d="M25.9167 3C27.0278 3 28 3.97222 28 5.08333V25.9167C28 27.0278 27.0278 28 25.9167 28H5.08333C3.97222 28 3 27.0278 3 25.9167V5.08333C3 3.97222 3.97222 3 5.08333 3H25.9167ZM11.8628 14.7893C9.82183 14.7893 8.32986 15.8809 8.32986 17.6115V17.6181C8.33011 18.9546 9.26705 19.8202 10.9796 20.1246L11.8444 20.2797C12.7992 20.4528 13.1454 20.6194 13.1454 21.0252V21.0317C13.145 21.461 12.6798 21.7716 11.9225 21.7717C11.2066 21.7717 10.6213 21.4611 10.5195 20.9959L10.5076 20.9416H8.18012L8.18663 21.0556C8.27643 22.756 9.66041 23.7107 11.8921 23.7107C14.2671 23.7107 15.6516 22.583 15.6519 20.8049V20.7984C15.6519 19.4019 14.7746 18.65 12.9306 18.3158L12.0658 18.1606C11.2064 18.0054 10.8364 17.8204 10.8364 17.4325V17.4271C10.8364 17.0332 11.1939 16.7283 11.8921 16.7283C12.5844 16.7283 13.0857 17.0272 13.1335 17.4987L13.14 17.5584H15.4674L15.4609 17.4271C15.3893 15.8159 14.1661 14.7894 11.8628 14.7893ZM20.2114 16.8238C18.2897 16.8238 17.1499 17.7011 17.0484 19.0438L17.0419 19.122H19.2261L19.2381 19.0623C19.2918 18.7937 19.5723 18.5729 20.0736 18.5729C20.5749 18.5729 20.8201 18.8116 20.8201 19.1936V19.4616L19.4355 19.5517C17.681 19.671 16.7023 20.3692 16.7023 21.6404V21.6458C16.7023 22.7797 17.6089 23.6391 18.9397 23.6391C19.7871 23.6391 20.4023 23.287 20.7724 22.6604H20.8201V23.5556H23.2669V19.0742C23.2669 17.7375 22.0432 16.8239 20.2114 16.8238ZM5.77778 5.96332V11.3333H25.2222V5.96332H5.77778Z" fill="#00FF95"/>
</svg>
