<svg width="30" height="30" viewBox="0 0 30 30" fill="none" xmlns="http://www.w3.org/2000/svg">
<path fill-rule="evenodd" clip-rule="evenodd" d="M9.51953 3C8.41495 3 7.51953 3.89543 7.51953 5V26C7.51953 27.1046 8.41495 28 9.51953 28H20.0195C21.1241 28 22.0195 27.1046 22.0195 26V5C22.0195 3.89543 21.1241 3 20.0195 3H9.51953ZM13.1445 5.25C12.6613 5.25 12.2695 5.64175 12.2695 6.125C12.2695 6.60825 12.6613 7 13.1445 7H16.3945C16.8778 7 17.2695 6.60825 17.2695 6.125C17.2695 5.64175 16.8778 5.25 16.3945 5.25H13.1445Z" fill="#00FF95"/>
</svg>
