<svg width="30" height="30" viewBox="0 0 30 30" fill="none" xmlns="http://www.w3.org/2000/svg">
<path fill-rule="evenodd" clip-rule="evenodd" d="M25.9167 3C27.0278 3 28 3.97222 28 5.08333V25.9167C28 27.0278 27.0278 28 25.9167 28H5.08333C3.97222 28 3 27.0278 3 25.9167V5.08333C3 3.97222 3.97222 3 5.08333 3H25.9167ZM6.44401 22.6669C5.83036 22.6669 5.3329 23.1643 5.3329 23.778C5.3329 24.3916 5.83036 24.8891 6.44401 24.8891C7.05766 24.8891 7.55512 24.3916 7.55512 23.778C7.55512 23.1643 7.05766 22.6669 6.44401 22.6669ZM10.8885 22.6669C10.2748 22.6669 9.77734 23.1643 9.77734 23.778C9.77734 24.3916 10.2748 24.8891 10.8885 24.8891C11.5021 24.8891 11.9996 24.3916 11.9996 23.778C11.9996 23.1643 11.5021 22.6669 10.8885 22.6669ZM15.3329 22.6669C14.7192 22.6669 14.2218 23.1643 14.2218 23.778C14.2218 24.3916 14.7192 24.8891 15.3329 24.8891C15.9465 24.8891 16.444 24.3916 16.444 23.778C16.444 23.1643 15.9465 22.6669 15.3329 22.6669ZM19.7773 22.6669C19.1637 22.6669 18.6662 23.1643 18.6662 23.778C18.6662 24.3916 19.1637 24.8891 19.7773 24.8891C20.391 24.8891 20.8885 24.3916 20.8885 23.778C20.8885 23.1643 20.391 22.6669 19.7773 22.6669ZM6.44401 18.2224C5.83036 18.2224 5.3329 18.7199 5.3329 19.3336C5.3329 19.9472 5.83036 20.4447 6.44401 20.4447C7.05766 20.4447 7.55512 19.9472 7.55512 19.3336C7.55512 18.7199 7.05766 18.2224 6.44401 18.2224ZM10.8885 18.2224C10.2748 18.2224 9.77734 18.7199 9.77734 19.3336C9.77734 19.9472 10.2748 20.4447 10.8885 20.4447C11.5021 20.4447 11.9996 19.9472 11.9996 19.3336C11.9996 18.7199 11.5021 18.2224 10.8885 18.2224ZM15.3329 18.2224C14.7192 18.2224 14.2218 18.7199 14.2218 19.3336C14.2218 19.9472 14.7192 20.4447 15.3329 20.4447C15.9465 20.4447 16.444 19.9472 16.444 19.3336C16.444 18.7199 15.9465 18.2224 15.3329 18.2224ZM19.7773 18.2224C19.1637 18.2224 18.6662 18.7199 18.6662 19.3336C18.6662 19.9472 19.1637 20.4447 19.7773 20.4447C20.391 20.4447 20.8885 19.9472 20.8885 19.3336C20.8885 18.7199 20.391 18.2224 19.7773 18.2224ZM24.2218 18.2224C23.6081 18.2224 23.1107 18.7199 23.1107 19.3336C23.1107 19.9472 23.6081 20.4447 24.2218 20.4447C24.8354 20.4447 25.3329 19.9472 25.3329 19.3336C25.3329 18.7199 24.8354 18.2224 24.2218 18.2224ZM10.8885 13.778C10.2748 13.778 9.77734 14.2755 9.77734 14.8891C9.77734 15.5028 10.2748 16.0002 10.8885 16.0002C11.5021 16.0002 11.9996 15.5028 11.9996 14.8891C11.9996 14.2755 11.5021 13.778 10.8885 13.778ZM15.3329 13.778C14.7192 13.778 14.2218 14.2755 14.2218 14.8891C14.2218 15.5028 14.7192 16.0002 15.3329 16.0002C15.9465 16.0002 16.444 15.5028 16.444 14.8891C16.444 14.2755 15.9465 13.778 15.3329 13.778ZM19.7773 13.778C19.1637 13.778 18.6662 14.2755 18.6662 14.8891C18.6662 15.5028 19.1637 16.0002 19.7773 16.0002C20.391 16.0002 20.8885 15.5028 20.8885 14.8891C20.8885 14.2755 20.391 13.778 19.7773 13.778ZM24.2218 13.778C23.6081 13.778 23.1107 14.2755 23.1107 14.8891C23.1107 15.5028 23.6081 16.0002 24.2218 16.0002C24.8354 16.0002 25.3329 15.5028 25.3329 14.8891C25.3329 14.2755 24.8354 13.778 24.2218 13.778ZM5.77778 5.96332V11.3333H25.2222V5.96332H5.77778Z" fill="#00FF95"/>
</svg>
