<svg width="30" height="30" viewBox="0 0 30 30" fill="none" xmlns="http://www.w3.org/2000/svg">
<path fill-rule="evenodd" clip-rule="evenodd" d="M25.9167 3C27.0278 3 28 3.97222 28 5.08333V25.9167C28 27.0278 27.0278 28 25.9167 28H5.08333C3.97222 28 3 27.0278 3 25.9167V5.08333C3 3.97222 3.97222 3 5.08333 3H25.9167ZM18.6283 14.8772C18.0155 14.4942 17.1878 14.6489 16.7793 15.2233L11.4462 22.7233C11.0378 23.2977 11.2035 24.0732 11.8162 24.4562C12.4289 24.8391 13.2567 24.6844 13.6651 24.11L18.9983 16.61C19.4067 16.0356 19.2409 15.2601 18.6283 14.8772ZM19.8891 20.9167C18.7845 20.9167 17.8893 21.7562 17.8893 22.7917C17.8894 23.8271 18.7846 24.6667 19.8891 24.6667C20.9935 24.6666 21.8888 23.8271 21.8889 22.7917C21.8889 21.7562 20.9936 20.9168 19.8891 20.9167ZM10.5553 14.6667C9.4509 14.6668 8.5556 15.5063 8.55556 16.5417C8.55556 17.5771 9.45087 18.4166 10.5553 18.4167C11.6599 18.4167 12.5551 17.5772 12.5551 16.5417C12.5551 15.5062 11.6599 14.6667 10.5553 14.6667ZM5.77778 5.96332V11.3333H25.2222V5.96332H5.77778Z" fill="#00FF95"/>
</svg>
