<svg width="30" height="30" viewBox="0 0 30 30" fill="none" xmlns="http://www.w3.org/2000/svg">
<path fill-rule="evenodd" clip-rule="evenodd" d="M25.9167 3C27.0278 3 28 3.97222 28 5.08333V25.9167C28 27.0278 27.0278 28 25.9167 28H5.08333C3.97222 28 3 27.0278 3 25.9167V5.08333C3 3.97222 3.97222 3 5.08333 3H25.9167ZM11.6675 14.7893C9.62652 14.7893 8.13455 15.8809 8.13455 17.6115V17.6181C8.1348 18.9546 9.07174 19.8202 10.7843 20.1246L11.6491 20.2797C12.6039 20.4528 12.9501 20.6194 12.9501 21.0252V21.0317C12.9497 21.461 12.4845 21.7716 11.7272 21.7717C11.0113 21.7717 10.426 21.4611 10.3242 20.9959L10.3123 20.9416H7.98481L7.99132 21.0556C8.08112 22.756 9.46509 23.7107 11.6968 23.7107C14.0718 23.7107 15.4563 22.583 15.4566 20.8049V20.7984C15.4566 19.4019 14.5793 18.65 12.7352 18.3158L11.8704 18.1606C11.0111 18.0054 10.6411 17.8204 10.6411 17.4325V17.4271C10.6411 17.0332 10.9986 16.7283 11.6968 16.7283C12.3891 16.7283 12.8904 17.0272 12.9382 17.4987L12.9447 17.5584H15.2721L15.2656 17.4271C15.194 15.8159 13.9708 14.7894 11.6675 14.7893ZM16.7218 16.967V21.1988C16.722 22.7799 17.5331 23.6988 18.9831 23.6988C19.9795 23.6988 20.654 23.2216 20.9763 22.3327H21.0241V23.5556H23.4709V16.967H21.0241V20.6671C21.0241 21.2818 20.672 21.7294 20.0931 21.7294C19.4786 21.7294 19.1688 21.3238 19.1686 20.6617V16.967H16.7218ZM5.77778 5.96332V11.3333H25.2222V5.96332H5.77778Z" fill="#00FF95"/>
</svg>
