<svg width="30" height="30" viewBox="0 0 30 30" fill="none" xmlns="http://www.w3.org/2000/svg">
<path d="M18 23.875C18 25.5984 16.5984 27 14.875 27C13.1516 27 11.75 25.5984 11.75 23.875C11.75 22.1516 13.1516 20.75 14.875 20.75C16.5984 20.75 18 22.1516 18 23.875ZM18 14.5C18 16.2234 16.5984 17.625 14.875 17.625C13.1516 17.625 11.75 16.2234 11.75 14.5C11.75 12.7766 13.1516 11.375 14.875 11.375C16.5984 11.375 18 12.7766 18 14.5ZM18 5.125C18 6.84844 16.5984 8.25 14.875 8.25C13.1516 8.25 11.75 6.84844 11.75 5.125C11.75 3.40156 13.1516 2 14.875 2C16.5984 2 18 3.40156 18 5.125Z" fill="#00FF95"/>
</svg>
