<svg width="30" height="30" viewBox="0 0 30 30" fill="none" xmlns="http://www.w3.org/2000/svg">
<path fill-rule="evenodd" clip-rule="evenodd" d="M16.5175 2.77783H24.8506C26.3847 2.77783 27.6283 4.02145 27.6283 5.55554V13.8887C27.6284 14.9552 27.2217 16.0218 26.4079 16.8355L16.6859 26.5575C15.0588 28.1846 12.4207 28.1846 10.7935 26.5575L3.84926 19.6132C2.22212 17.9861 2.22212 15.3479 3.84926 13.7208L13.5712 3.99882C14.3848 3.18525 15.4511 2.77783 16.5175 2.77783ZM20.684 12.4998C22.2181 12.4998 23.4617 11.2562 23.4617 9.7221C23.4617 8.18802 22.2181 6.9444 20.684 6.9444C19.1499 6.9444 17.9063 8.18802 17.9063 9.7221C17.9063 11.2562 19.1499 12.4998 20.684 12.4998Z" fill="#00FF95"/>
</svg>
