<svg width="30" height="30" viewBox="0 0 30 30" fill="none" xmlns="http://www.w3.org/2000/svg">
<path fill-rule="evenodd" clip-rule="evenodd" d="M22.3887 0.777832H6.98867C5.82896 0.777832 4.88867 1.72589 4.88867 2.89535V28.3877C4.88867 28.6323 5.17612 28.7612 5.35625 28.5973L7.68628 26.4766C7.95288 26.2341 8.35791 26.2341 8.62451 26.4766L10.9528 28.596C11.2194 28.8384 11.6245 28.8384 11.8911 28.596L14.2197 26.4766C14.486 26.2341 14.8914 26.2341 15.1576 26.4766L17.4863 28.596C17.7529 28.8384 18.1579 28.8384 18.4245 28.596L20.7528 26.4766C21.0194 26.2341 21.4245 26.2341 21.6911 26.4766L24.0211 28.5973C24.1035 28.6722 24.2081 28.686 24.2976 28.6556C24.4039 28.6194 24.4887 28.5207 24.4887 28.3877V2.89535C24.4887 1.72589 23.5484 0.777832 22.3887 0.777832ZM21.6887 6.37784H7.68867V9.17784H21.6887V6.37784ZM21.6887 11.9778V14.7778H7.68867V11.9778H21.6887ZM16.0887 17.5778H7.68867V20.3778H16.0887V17.5778Z" fill="#00FF95"/>
</svg>
