<svg width="30" height="30" viewBox="0 0 30 30" fill="none" xmlns="http://www.w3.org/2000/svg">
<path d="M10.7823 4.50123C10.7823 3.85603 11.3054 3.33301 11.9505 3.33301H17.7917C18.4369 3.33301 18.9599 3.85603 18.9599 4.50123V8.23955C18.9599 8.88475 18.4369 9.40777 17.7917 9.40777H16.1561V12.4452H23.516C24.5482 12.4452 25.3851 13.282 25.3851 14.3143V18.6367H23.0487V14.7816H16.1561V18.5199H13.8197V14.7816H6.81035V18.6367H4.4739V14.3143C4.4739 13.282 5.31071 12.4452 6.34306 12.4452H13.8197V9.40777H11.9505C11.3054 9.40777 10.7823 8.88475 10.7823 8.23955V4.50123Z" fill="#00FF95"/>
<path d="M12.8851 20.3891C12.24 20.3891 11.7169 20.9121 11.7169 21.5573V25.5293C11.7169 26.1745 12.24 26.6975 12.8851 26.6975H16.8571C17.5023 26.6975 18.0253 26.1745 18.0253 25.5293V21.5573C18.0253 20.9121 17.5023 20.3891 16.8571 20.3891H12.8851Z" fill="#00FF95"/>
<path d="M2.37109 21.5573C2.37109 20.9121 2.89417 20.3891 3.53932 20.3891H7.51128C8.15643 20.3891 8.6795 20.9121 8.6795 21.5573V25.5293C8.6795 26.1745 8.15643 26.6975 7.51128 26.6975H3.53932C2.89417 26.6975 2.37109 26.1745 2.37109 25.5293V21.5573Z" fill="#00FF95"/>
<path d="M22.2309 20.3891C21.5856 20.3891 21.0627 20.9121 21.0627 21.5573V25.5293C21.0627 26.1745 21.5856 26.6975 22.2309 26.6975H26.2029C26.8481 26.6975 27.3711 26.1745 27.3711 25.5293V21.5573C27.3711 20.9121 26.8481 20.3891 26.2029 20.3891H22.2309Z" fill="#00FF95"/>
</svg>
