<svg width="30" height="30" viewBox="0 0 30 30" fill="none" xmlns="http://www.w3.org/2000/svg">
<path fill-rule="evenodd" clip-rule="evenodd" d="M4 3.25C4 2.55964 4.56165 2 5.25447 2H7.13618C8.17542 2 9.01789 2.83947 9.01789 3.875V4.57569L24.7354 5.71022C25.8314 5.77847 26.6361 6.76351 26.4808 7.84673L25.3993 15.3902C25.2669 16.3139 24.4729 17 23.5365 17H9.01789V19.5H21.5716C23.65 19.5 25.335 21.1789 25.335 23.25C25.335 25.3211 23.65 27 21.5716 27C19.4931 27 17.8081 25.3211 17.8081 23.25C17.8081 22.8117 17.8836 22.391 18.0223 22H11.3127C11.4514 22.391 11.5268 22.8117 11.5268 23.25C11.5268 25.3211 9.84189 27 7.76342 27C5.68494 27 4 25.3211 4 23.25C4 21.6172 5.04724 20.2282 6.50894 19.7134V5.76154C6.50889 5.75466 6.50889 5.74776 6.50894 5.74085V4.5H5.25447C4.56165 4.5 4 3.94036 4 3.25ZM20.3171 23.25C20.3171 22.5596 20.8787 22 21.5716 22C22.2644 22 22.826 22.5596 22.826 23.25C22.826 23.9404 22.2644 24.5 21.5716 24.5C20.8787 24.5 20.3171 23.9404 20.3171 23.25ZM6.50894 23.25C6.50894 22.5596 7.07059 22 7.76342 22C8.45624 22 9.01789 22.5596 9.01789 23.25C9.01789 23.9404 8.45624 24.5 7.76342 24.5C7.07059 24.5 6.50894 23.9404 6.50894 23.25Z" fill="#00FF95"/>
</svg>
