<svg width="30" height="30" viewBox="0 0 30 30" fill="none" xmlns="http://www.w3.org/2000/svg">
<path fill-rule="evenodd" clip-rule="evenodd" d="M14.5742 27.5557C7.68172 27.5557 2.07422 21.9482 2.07422 15.0557C2.07422 8.16316 7.68172 2.55566 14.5742 2.55566C21.4667 2.55566 27.0742 8.16316 27.0742 15.0557C27.0742 21.9482 21.4667 27.5557 14.5742 27.5557ZM15.8242 8.80566C15.8242 8.11531 15.2646 7.55566 14.5742 7.55566C13.8839 7.55566 13.3242 8.11531 13.3242 8.80566V15.0557C13.3242 15.3872 13.4559 15.7051 13.6903 15.9395L17.4403 19.6895C17.9285 20.1777 18.7199 20.1777 19.2081 19.6895C19.6963 19.2014 19.6963 18.4099 19.2081 17.9218L15.8242 14.5379V8.80566Z" fill="#00FF95"/>
</svg>
