<svg width="30" height="30" viewBox="0 0 30 30" fill="none" xmlns="http://www.w3.org/2000/svg">
<path d="M9.5231 2.27819C9.5231 1.44956 10.2028 0.777832 11.041 0.777832H18.8837C19.722 0.777832 20.4016 1.44956 20.4016 2.27819V4.52875H9.5231V2.27819Z" fill="#00FF95"/>
<path fill-rule="evenodd" clip-rule="evenodd" d="M8.45668 6.77247C7.42805 7.38505 6.74023 8.49976 6.74023 9.7732V26.2772C6.74023 27.6583 7.87288 28.7778 9.27013 28.7778H20.9076C22.3048 28.7778 23.4375 27.6583 23.4375 26.2772V9.7732C23.4375 8.49976 22.7497 7.38505 21.721 6.77247H8.45668ZM17.2036 22.4749C16.5376 22.2998 15.9037 22.0582 15.3084 21.7573C14.7132 22.0582 14.0792 22.2998 13.4132 22.475C13.3202 22.4994 13.2364 22.4153 13.2612 22.3224C13.341 22.0235 13.4346 21.7311 13.5412 21.4458C12.3387 21.3157 11.1534 21.0273 9.98677 20.4353C9.89569 20.3891 9.89568 20.2609 9.98676 20.2147C10.7617 19.8215 11.5448 19.5622 12.3356 19.3943C11.4763 18.3631 10.8345 17.1413 10.4681 15.7902C10.4428 15.6971 10.5271 15.6124 10.6204 15.6372C11.8703 15.9702 13.0109 16.535 13.9941 17.2865C13.8526 15.7082 14.2775 14.1047 15.262 12.67C15.3117 12.5976 15.4178 12.5976 15.4675 12.6699C16.4335 14.0756 16.8607 15.6462 16.7427 17.1963C17.6983 16.4898 18.7971 15.9568 19.9964 15.6373C20.0897 15.6124 20.174 15.6971 20.1488 15.7903C19.7766 17.1624 19.1204 18.4012 18.2408 19.4424C18.9645 19.6101 19.6815 19.8566 20.3918 20.2145C20.4833 20.2606 20.4833 20.3893 20.3918 20.4354C19.2986 20.9864 18.1891 21.2733 17.0644 21.4154C17.1756 21.7103 17.273 22.0129 17.3556 22.3223C17.3804 22.4152 17.2966 22.4994 17.2036 22.4749Z" fill="#00FF95"/>
</svg>
