<svg width="30" height="30" viewBox="0 0 30 30" fill="none" xmlns="http://www.w3.org/2000/svg">
<path d="M11.642 23.078C11.6575 23.0992 11.6761 23.1178 11.6973 23.133C11.7533 23.1732 11.8266 23.1899 11.9028 23.1684C12.953 22.8723 13.9548 22.4747 14.8984 21.9862L14.9545 21.9583L15.0105 21.9862C15.9541 22.4747 16.9559 22.8723 18.0062 23.1684C18.1888 23.2199 18.3552 23.0516 18.3056 22.8656C18.1723 22.3657 18.0171 21.8767 17.8411 21.3993C18.092 21.3667 18.3425 21.3298 18.5924 21.2881C20.201 21.0193 21.7905 20.5483 23.3602 19.7463C23.5392 19.6549 23.5392 19.3993 23.3602 19.3079C22.1888 18.7095 21.0063 18.2952 19.813 18.0119C21.268 16.2476 22.3583 14.1528 22.986 11.8335C22.9958 11.7971 22.9975 11.7613 22.9923 11.7278L11.642 23.078Z" fill="#00FF95"/>
<path fill-rule="evenodd" clip-rule="evenodd" d="M14.8145 28.7778C22.5464 28.7778 28.8145 22.5098 28.8145 14.7778C28.8145 7.04585 22.5464 0.777832 14.8145 0.777832C7.08247 0.777832 0.814453 7.04585 0.814453 14.7778C0.814453 22.5098 7.08247 28.7778 14.8145 28.7778ZM14.8145 26.5378C21.3093 26.5378 26.5745 21.2727 26.5745 14.7778C26.5745 12.124 25.6954 9.67547 24.2126 7.70755L7.74417 24.1759C9.71209 25.6588 12.1606 26.5378 14.8145 26.5378ZM6.08943 22.6629L8.25958 20.4927C7.68671 20.2831 7.1164 20.0364 6.54871 19.7463C6.45916 19.7005 6.41445 19.6137 6.41459 19.5269C6.41459 19.4402 6.4593 19.3535 6.54871 19.3079C7.72012 18.7095 8.90273 18.2952 10.0959 18.0119C8.64092 16.2476 7.55059 14.1528 6.92277 11.8335C6.87232 11.6468 7.03939 11.4774 7.22273 11.5298C9.24658 12.1073 11.0957 13.0579 12.6957 14.3108C12.4618 11.6389 13.151 8.9249 14.7522 6.48816C14.849 6.34105 15.0599 6.34105 15.1565 6.48816C16.2198 8.10621 16.881 9.84651 17.1367 11.6155L22.6995 6.0528C20.6136 4.16657 17.8482 3.01783 14.8145 3.01783C8.31958 3.01783 3.05445 8.28296 3.05445 14.7778C3.05445 17.8116 4.20319 20.577 6.08943 22.6629Z" fill="#00FF95"/>
</svg>
