<svg width="30" height="30" viewBox="0 0 30 30" fill="none" xmlns="http://www.w3.org/2000/svg">
<path fill-rule="evenodd" clip-rule="evenodd" d="M3.54531 3C2.38552 3 1.44531 3.9402 1.44531 5.1V20.5C1.44531 21.6598 2.38551 22.6 3.54531 22.6H4.24531C4.24531 24.9196 6.12572 26.8 8.44531 26.8C10.7649 26.8 12.6453 24.9196 12.6453 22.6H18.2453C18.2453 24.9196 20.1257 26.8 22.4453 26.8C24.7649 26.8 26.6453 24.9196 26.6453 22.6H27.3453C28.5051 22.6 29.4453 21.6598 29.4453 20.5V15.7939C29.4453 15.4133 29.3419 15.0398 29.146 14.7134L25.2497 8.21956C24.8702 7.58703 24.1866 7.2 23.449 7.2H19.6453V5.1C19.6453 3.9402 18.7051 3 17.5453 3H3.54531ZM22.4453 24C21.6721 24 21.0453 23.3732 21.0453 22.6C21.0453 21.8268 21.6721 21.2 22.4453 21.2C23.2185 21.2 23.8453 21.8268 23.8453 22.6C23.8453 23.3732 23.2185 24 22.4453 24ZM7.04531 22.6C7.04531 23.3732 7.67211 24 8.44531 24C9.21851 24 9.84531 23.3732 9.84531 22.6C9.84531 21.8268 9.21851 21.2 8.44531 21.2C7.67211 21.2 7.04531 21.8268 7.04531 22.6ZM25.5726 14.2H19.6453V10H23.0526L25.5726 14.2Z" fill="#00FF95"/>
</svg>
