<svg width="30" height="30" viewBox="0 0 30 30" fill="none" xmlns="http://www.w3.org/2000/svg">
<path fill-rule="evenodd" clip-rule="evenodd" d="M25.9167 3C27.0278 3 28 3.97222 28 5.08333V25.9167C28 27.0278 27.0278 28 25.9167 28H5.08333C3.97222 28 3 27.0278 3 25.9167V5.08333C3 3.97222 3.97222 3 5.08333 3H25.9167ZM8.15191 14.9444V16.9497H10.4197V23.5556H12.9501V16.9497H15.2179V14.9444H8.15191ZM16.4646 14.9444V23.5556H18.9115V19.8555C18.9115 19.2408 19.2636 18.7932 19.8424 18.7932C20.4571 18.7932 20.768 19.1995 20.768 19.862V23.5556H23.2148V19.3249C23.2148 17.7434 22.4027 16.8238 20.9525 16.8238C19.9559 16.8238 19.2815 17.3018 18.9592 18.191H18.9115V14.9444H16.4646ZM5.77778 5.96332V11.3333H25.2222V5.96332H5.77778Z" fill="#00FF95"/>
</svg>
