<svg width="30" height="30" viewBox="0 0 30 30" fill="none" xmlns="http://www.w3.org/2000/svg">
<path fill-rule="evenodd" clip-rule="evenodd" d="M27.2598 15.0557C27.2598 21.9482 21.6523 27.5557 14.7598 27.5557C7.86727 27.5557 2.25977 21.9482 2.25977 15.0557C2.25977 8.16316 7.86726 2.55566 14.7598 2.55566C21.6523 2.55566 27.2598 8.16316 27.2598 15.0557ZM16.7423 16.3057L15.126 17.922C15.01 18.038 14.9179 18.1758 14.8551 18.3274C14.7923 18.4791 14.76 18.6416 14.76 18.8057C14.76 18.9698 14.7923 19.1323 14.8551 19.284C14.9179 19.4356 15.01 19.5734 15.126 19.6895C15.2421 19.8055 15.3798 19.8976 15.5315 19.9604C15.6831 20.0232 15.8456 20.0555 16.0098 20.0555C16.1739 20.0555 16.3364 20.0232 16.488 19.9604C16.6397 19.8976 16.7775 19.8055 16.8935 19.6894L20.6435 15.9394C20.76 15.8236 20.8524 15.6859 20.9155 15.5343C20.9786 15.3826 21.0111 15.22 21.0111 15.0557C21.0111 14.8914 20.9786 14.7288 20.9155 14.5771C20.8524 14.4255 20.76 14.2878 20.6435 14.172L16.8935 10.422C16.7775 10.3059 16.6397 10.2138 16.488 10.151C16.3364 10.0882 16.1739 10.0559 16.0098 10.0559C15.8456 10.0559 15.6831 10.0882 15.5315 10.151C15.3798 10.2138 15.2421 10.3059 15.126 10.422C15.01 10.538 14.9179 10.6758 14.8551 10.8274C14.7923 10.9791 14.76 11.1416 14.76 11.3057C14.76 11.4698 14.7923 11.6323 14.8551 11.784C14.9179 11.9356 15.01 12.0734 15.126 12.1895L16.7423 13.8057H9.75977C9.42824 13.8057 9.1103 13.9374 8.87588 14.1718C8.64146 14.4062 8.50977 14.7242 8.50977 15.0557C8.50977 15.3872 8.64146 15.7052 8.87588 15.9396C9.1103 16.174 9.42824 16.3057 9.75977 16.3057H16.7423Z" fill="#00FF95"/>
</svg>
