<svg width="30" height="30" viewBox="0 0 30 30" fill="none" xmlns="http://www.w3.org/2000/svg">
<path d="M25 25.974C25 27.0929 24.1046 28 23 28H7C5.89543 28 5 27.0929 5 25.974V7.74026H25V25.974Z" fill="#00FF95"/>
<path d="M17.5485 2C17.8211 2 18.0664 2.16805 18.1676 2.42439L18.4001 3.01299H25C25.5523 3.01299 26 3.46652 26 4.02597V5.37662H5C4.44772 5.37662 4 4.92309 4 4.36364V4.02597C4 3.46652 4.44772 3.01299 5 3.01299H11.5999L11.8324 2.42439C11.9336 2.16805 12.1789 2 12.4515 2H17.5485Z" fill="#00FF95"/>
</svg>
