<svg width="30" height="30" viewBox="0 0 30 30" fill="none" xmlns="http://www.w3.org/2000/svg">
<path d="M21.4646 18.638C22.0614 18.638 22.4499 19.2354 22.4499 20.2559V20.2678C22.4497 21.3056 22.0795 21.8842 21.4711 21.8846C20.8506 21.8846 20.486 21.3118 20.4859 20.2678V20.2559C20.4859 19.2354 20.8619 18.6381 21.4646 18.638Z" fill="#00FF95"/>
<path fill-rule="evenodd" clip-rule="evenodd" d="M25.9167 3C27.0278 3 28 3.97222 28 5.08333V25.9167C28 27.0278 27.0278 28 25.9167 28H5.08333C3.97222 28 3 27.0278 3 25.9167V5.08333C3 3.97222 3.97222 3 5.08333 3H25.9167ZM21.4646 16.8238C19.352 16.8238 18.0033 18.1074 18.0033 20.2559V20.2678C18.0035 22.4576 19.3045 23.6988 21.4646 23.6988C23.6189 23.6988 24.9323 22.4636 24.9325 20.2678V20.2559C24.9325 18.0895 23.5832 16.8238 21.4646 16.8238ZM6.92144 14.9444V23.5556H9.12956V18.5664H9.17188L11.0935 23.5556H12.4477L14.3694 18.5664H14.4117V23.5556H16.6198V14.9444H13.6955L11.7912 20.0703H11.75L9.8457 14.9444H6.92144ZM5.77778 5.96332V11.3333H25.2222V5.96332H5.77778Z" fill="#00FF95"/>
</svg>
