<svg width="30" height="30" viewBox="0 0 30 30" fill="none" xmlns="http://www.w3.org/2000/svg">
<path d="M3.95009 11.0051C2.4528 15.1554 3.36671 19.98 6.69305 23.3064C11.2807 27.894 18.7187 27.894 23.3064 23.3064C27.894 18.7187 27.894 11.2807 23.3064 6.69308C20.0701 3.45682 15.4155 2.50379 11.3435 3.83345L9.59269 2.0826C14.6772 -0.043505 20.7612 0.96179 24.8994 5.10002C30.3669 10.5675 30.3669 19.432 24.8994 24.8994C19.4319 30.3669 10.5674 30.3669 5.09999 24.8994C0.87521 20.6746 -0.084179 14.4219 2.22013 9.27512L3.95009 11.0051Z" fill="#00FF95"/>
<path d="M7.44713 11.7712L7.94496 12.269C6.8988 14.9761 7.46738 18.1636 9.65158 20.3478C12.6053 23.3015 17.3941 23.3015 20.3478 20.3478C23.3015 17.3941 23.3015 12.6053 20.3478 9.65161C18.253 7.55682 15.2353 6.94802 12.6037 7.82453L11.9987 7.21958L11.9003 5.68408C15.3134 4.55147 19.2248 5.3425 21.9409 8.05855C25.7744 11.8921 25.7744 18.1074 21.9409 21.9409C18.1074 25.7744 11.892 25.7744 8.05852 21.9409C5.27952 19.1619 4.51571 15.1314 5.76584 11.6638L7.44713 11.7712Z" fill="#00FF95"/>
<path d="M14.3743 9.59516C16.0432 9.33315 17.8101 9.84486 19.0961 11.1309C21.2328 13.2676 21.2328 16.7319 19.0961 18.8686C16.9594 21.0053 13.4951 21.0053 11.3584 18.8686C10.0724 17.5826 9.56071 15.8157 9.82271 14.1467L12.7239 17.0479L12.8404 17.1591C12.8762 17.1986 12.9133 17.2374 12.9515 17.2755C14.2084 18.5324 16.2462 18.5324 17.5031 17.2755C18.76 16.0186 18.76 13.9808 17.5031 12.7239C17.4649 12.6858 17.4259 12.6489 17.3864 12.613C17.3506 12.5735 17.3137 12.5345 17.2755 12.4963L14.3743 9.59516Z" fill="#00FF95"/>
<path d="M2.59662 2.36907C3.03653 1.92916 3.74976 1.92916 4.18967 2.36907L5.62805 3.80745L5.55048 2.59287C5.51254 2.00057 6.22823 1.67676 6.64793 2.09638L9.77493 5.22337L9.96161 8.14101L15.7962 13.9756C16.2361 14.4155 16.2361 15.1288 15.7962 15.5687C15.3563 16.0086 14.6431 16.0086 14.2032 15.5687L8.36856 9.73406L5.45092 9.54737L2.32392 6.42038C1.9043 6.00068 2.22811 5.28499 2.82042 5.32294L4.03499 5.4005L2.59662 3.96213C2.15671 3.52222 2.15671 2.80898 2.59662 2.36907Z" fill="#00FF95"/>
</svg>
