<svg width="30" height="30" viewBox="0 0 30 30" fill="none" xmlns="http://www.w3.org/2000/svg">
<path d="M6.73498 1.84386C6.75852 1.36781 7.02323 0.999991 7.34159 1L8.72895 1.00004C9.04722 1.0002 9.31203 1.36797 9.33557 1.84393L9.64286 7.08861L6.42857 7.08851L6.73498 1.84386Z" fill="#00FF95"/>
<path d="M11.3778 1.84386C11.4014 1.36781 11.6661 0.999991 11.9844 1L13.3718 1.00004C13.6901 1.0002 13.9549 1.36797 13.9784 1.84393L14.2857 7.08861L11.0714 7.08851L11.3778 1.84386Z" fill="#00FF95"/>
<path d="M16.3778 1.84386C16.4014 1.36781 16.6661 0.999991 16.9844 1L18.3718 1.00004C18.6901 1.0002 18.9549 1.36797 18.9784 1.84393L19.2857 7.08861L16.0714 7.08851L16.3778 1.84386Z" fill="#00FF95"/>
<path d="M21.0207 1.84386C21.0442 1.36781 21.3089 0.999991 21.6273 1L23.0147 1.00004C23.3329 1.0002 23.5977 1.36797 23.6213 1.84393L23.9286 7.08861L20.7143 7.08851L21.0207 1.84386Z" fill="#00FF95"/>
<path fill-rule="evenodd" clip-rule="evenodd" d="M25 26.1646C25 27.7305 23.7208 29 22.1429 29H7.85714C6.27919 29 5 27.7305 5 26.1646V9.1519H25V26.1646ZM15.354 13.8536C15.2706 13.7281 15.0865 13.7281 15.0031 13.8536C13.9844 15.3882 13.5472 17.0921 13.6984 18.7696C12.6731 17.9899 11.4916 17.3939 10.1998 17.0241C10.04 16.9784 9.89414 17.1218 9.93966 17.2799C10.3547 18.7216 11.0596 20.0247 11.9943 21.1257C11.2432 21.2989 10.4986 21.5491 9.76074 21.9062C9.60363 21.9823 9.60362 22.1984 9.76074 22.2745C10.7029 22.7304 11.6561 23.0118 12.6196 23.1817C12.8414 23.2207 13.0636 23.254 13.2865 23.282C13.1817 23.5583 13.0882 23.8407 13.0064 24.1287C12.9617 24.2863 13.107 24.4291 13.2663 24.3841C13.9227 24.1984 14.5499 23.9537 15.142 23.6559L15.1786 23.6379L15.2152 23.6559C15.8073 23.9537 16.4345 24.1984 17.0909 24.3841C17.2501 24.4291 17.3955 24.2863 17.3507 24.1287C17.269 23.8407 17.1754 23.5583 17.0707 23.282C17.235 23.2614 17.399 23.238 17.5628 23.2114C18.5858 23.0454 19.5973 22.7579 20.5964 22.2745C20.7535 22.1984 20.7535 21.9823 20.5964 21.9062C19.8585 21.5491 19.1139 21.2989 18.3629 21.1257C19.2975 20.0247 20.0025 18.7216 20.4175 17.2799C20.463 17.1218 20.3171 16.9784 20.1573 17.0241C18.8655 17.3939 17.6841 17.9898 16.6588 18.7696C16.8099 17.0921 16.3728 15.3882 15.354 13.8536Z" fill="#00FF95"/>
</svg>
