<svg width="30" height="30" viewBox="0 0 30 30" fill="none" xmlns="http://www.w3.org/2000/svg">
<path fill-rule="evenodd" clip-rule="evenodd" d="M2.62891 15.0557C2.62891 21.9482 8.23641 27.5557 15.1289 27.5557C22.0214 27.5557 27.6289 21.9482 27.6289 15.0557C27.6289 8.16316 22.0214 2.55566 15.1289 2.55566C8.23641 2.55566 2.62891 8.16316 2.62891 15.0557ZM21.6378 12.8145C22.1259 12.3264 22.1259 11.5349 21.6378 11.0468C21.1496 10.5586 20.3582 10.5586 19.87 11.0468L13.8789 17.0379L11.0128 14.1718C10.5246 13.6836 9.73318 13.6836 9.24502 14.1718C8.75687 14.6599 8.75687 15.4514 9.24502 15.9395L12.995 19.6895C13.4832 20.1777 14.2746 20.1777 14.7628 19.6895L21.6378 12.8145Z" fill="#00FF95"/>
</svg>
