<svg width="30" height="30" viewBox="0 0 30 30" fill="none" xmlns="http://www.w3.org/2000/svg">
<path d="M4.06634 10.6201C3.39803 11.0984 3 11.8802 3 12.7143V25.4436C3 26.8547 4.24444 28 5.77778 28H10.25C10.9404 28 11.5 27.4277 11.5 26.7218V19.0526C11.5 18.3466 12.0596 17.7744 12.75 17.7744H18C18.6904 17.7744 19.25 18.3466 19.25 19.0526V26.7218C19.25 27.4277 19.8096 28 20.5 28H25.2222C26.7556 28 28 26.8547 28 25.4436V12.7143C28 11.8802 27.602 11.0984 26.9337 10.6201L16.9337 3.46212C16.0729 2.84596 14.9271 2.84596 14.0663 3.46212L4.06634 10.6201Z" fill="#00FF95"/>
</svg>
