<svg width="30" height="30" viewBox="0 0 30 30" fill="none" xmlns="http://www.w3.org/2000/svg">
<path d="M10.4025 0.777832C10.9542 0.777832 11.4834 0.998737 11.8738 1.39202L13.942 3.74418L8.84788 9.51256C8.0635 10.4155 7.62962 11.5743 7.62641 12.7748V25.9776H4.1563C3.6041 25.9776 3.07452 25.7564 2.68406 25.3625C2.2936 24.9687 2.07424 24.4345 2.07424 23.8775V10.0446C2.07217 9.52813 2.26011 9.02925 2.60169 8.6445L7.47372 3.04413L8.93117 1.39202C9.32155 0.998737 9.85074 0.777832 10.4025 0.777832Z" fill="#00FF95"/>
<path fill-rule="evenodd" clip-rule="evenodd" d="M20.3305 4.19042L26.7416 11.3734C27.0876 11.7582 27.2779 12.2571 27.2759 12.7736V26.6775C27.2759 27.2346 27.0537 27.7688 26.6582 28.1627C26.2627 28.5565 25.7263 28.7778 25.1669 28.7778H12.5134C11.9664 28.7597 11.4478 28.5304 11.0674 28.1385C10.687 27.7465 10.4745 27.2227 10.4748 26.6775V12.8436C10.4727 12.3271 10.6631 11.8282 11.009 11.4434L15.9439 5.84265L17.3499 4.19042C17.7453 3.7971 18.2813 3.57618 18.8402 3.57618C19.399 3.57618 19.9351 3.7971 20.3305 4.19042ZM17.6685 12.3216C18.0153 12.5524 18.4231 12.6756 18.8402 12.6756C19.3995 12.6756 19.9359 12.4543 20.3314 12.0604C20.7269 11.6666 20.9491 11.1323 20.9491 10.5753C20.9491 10.1599 20.8254 9.75383 20.5937 9.40844C20.3619 9.06305 20.0326 8.79385 19.6472 8.63489C19.2619 8.47592 18.8378 8.43433 18.4287 8.51537C18.0197 8.59641 17.6439 8.79644 17.3489 9.09017C17.054 9.3839 16.8531 9.75814 16.7718 10.1656C16.6904 10.573 16.7322 10.9953 16.8918 11.3791C17.0514 11.7628 17.3217 12.0908 17.6685 12.3216Z" fill="#00FF95"/>
</svg>
