<svg width="30" height="30" viewBox="0 0 30 30" fill="none" xmlns="http://www.w3.org/2000/svg">
<path d="M2.68714 15.1346L26.3448 3.06719C26.7872 2.84352 27.2969 3.20565 27.2969 3.74884V25.1144C27.2969 25.6256 26.8449 25.9878 26.4025 25.8174L14.6218 21.1842L13.9967 20.9393L14.4006 20.3641L23.1135 7.7003L10.6884 19.363L10.4769 19.5653L10.2172 19.4588L2.74484 16.5192C2.17744 16.2955 2.13897 15.4115 2.68714 15.1346Z" fill="#00FF95"/>
<path d="M10.4481 21.6845L14.843 23.4952L14.8526 23.4845C15.2854 23.6656 15.4296 24.2727 15.1315 24.6668L12.8042 27.7342C12.4869 28.1496 11.8906 28.0644 11.679 27.5744L9.60177 22.6964C9.35173 22.0999 9.88066 21.4502 10.4481 21.6845Z" fill="#00FF95"/>
</svg>
