<svg width="30" height="30" viewBox="0 0 30 30" fill="none" xmlns="http://www.w3.org/2000/svg">
<path fill-rule="evenodd" clip-rule="evenodd" d="M8.33541 5.03542L6.73561 8.55556H4.15755C3.00704 8.55556 2.07422 9.48829 2.07422 10.6389V13.2527L2.77273 13.602C10.2017 17.3166 18.9464 17.3166 26.3757 13.602L27.0742 13.2527V10.6389C27.0742 9.48829 26.1414 8.55556 24.9909 8.55556H22.4128L20.813 5.03542C20.2495 3.79585 19.0135 3 17.6521 3H11.4964C10.1349 3 8.89897 3.79585 8.33541 5.03542ZM11.4964 5.77778C11.2241 5.77778 10.9769 5.93696 10.8643 6.18487L9.78669 8.55556H19.3617L18.2841 6.18487C18.1716 5.93696 17.9244 5.77778 17.6521 5.77778H11.4964Z" fill="#00FF95"/>
<path d="M27.0742 16.3513C23.5481 18.0242 19.7554 18.9437 15.9492 19.125L13.1853 19.1327C9.37911 18.9514 5.60069 18.0243 2.07422 16.3515V25.9167C2.07422 27.0673 3.00704 28 4.15755 28H24.9909C26.1414 28 27.0742 27.0673 27.0742 25.9167V16.3513Z" fill="#00FF95"/>
</svg>
