<svg width="30" height="30" viewBox="0 0 30 30" fill="none" xmlns="http://www.w3.org/2000/svg">
<path d="M10.3466 3.9339L10.3466 17.5177H5.86683C4.58987 17.5177 3.55469 16.4825 3.55469 15.2056L3.55469 5.08997C3.55469 3.81301 4.58987 2.77783 5.86683 2.77783L9.19053 2.77783C9.82901 2.77783 10.3466 3.29542 10.3466 3.9339Z" fill="#00FF95"/>
<path fill-rule="evenodd" clip-rule="evenodd" d="M12.6587 17.5177H10.3466V25.4657C10.3466 26.7427 11.3818 27.7778 12.6587 27.7778H23.9304C25.2074 27.7778 26.2425 26.7427 26.2425 25.4657V18.6738C26.2425 18.0353 25.725 17.5177 25.0865 17.5177H24.0749V13.1825C24.0749 12.3844 23.4279 11.7374 22.6298 11.7374H21.0394C21.4926 11.1602 21.7628 10.4327 21.7628 9.64199C21.7628 9.25176 21.697 8.8769 21.5758 8.5279C21.4375 8.01792 21.1427 7.28872 20.5345 6.24604C20.0508 5.41702 19.1639 3.95542 18.6049 3.07534C18.4934 2.89973 18.2403 2.89973 18.1287 3.07534C17.5698 3.95542 16.6828 5.41702 16.1992 6.24604C15.5909 7.28872 15.2962 8.01792 15.1578 8.5279C15.0367 8.8769 14.9709 9.25176 14.9709 9.64199C14.9709 10.4327 15.2411 11.1602 15.6942 11.7374H14.1038C13.3057 11.7374 12.6587 12.3844 12.6587 13.1825V17.5177ZM21.7628 17.5177H14.9709V14.0495H21.7628V17.5177ZM18.3668 11.7374C18.9964 11.7374 19.5067 11.227 19.5067 10.5975C19.5067 10.4664 19.4846 10.3406 19.4439 10.2234C19.3975 10.0522 19.2985 9.80747 19.0944 9.45757C18.9063 9.1352 18.5366 8.52789 18.3668 8.26918C18.197 8.52789 17.8273 9.1352 17.6392 9.45757C17.4351 9.80756 17.3361 10.0523 17.2897 10.2235C17.249 10.3407 17.2269 10.4665 17.2269 10.5975C17.2269 11.227 17.7373 11.7374 18.3668 11.7374Z" fill="#00FF95"/>
</svg>
