<svg width="30" height="30" viewBox="0 0 30 30" fill="none" xmlns="http://www.w3.org/2000/svg">
<path fill-rule="evenodd" clip-rule="evenodd" d="M24.8765 27.4606L20.7496 23.307C18.9038 24.6635 16.6287 25.4642 14.1676 25.4642C7.99991 25.4642 3 20.4354 3 14.2321C3 8.02878 7.99991 3 14.1676 3C20.3353 3 25.3352 8.02878 25.3352 14.2321C25.3352 16.6317 24.5871 18.8555 23.3126 20.6805L27.4646 24.8594C28.1788 25.5782 28.1784 26.7432 27.4637 27.4615C26.749 28.1798 25.5907 28.1794 24.8765 27.4606ZM14.1487 21.573C18.1901 21.573 21.4664 18.2779 21.4664 14.2131C21.4664 10.1483 18.1901 6.85309 14.1487 6.85309C10.1072 6.85309 6.83096 10.1483 6.83096 14.2131C6.83096 18.2779 10.1072 21.573 14.1487 21.573Z" fill="#00FF95"/>
</svg>
