<svg width="30" height="30" viewBox="0 0 30 30" fill="none" xmlns="http://www.w3.org/2000/svg">
<path fill-rule="evenodd" clip-rule="evenodd" d="M2.74171 24.5405L13.1553 3.70772C13.9233 2.17165 16.1136 2.17165 16.8816 3.70772L27.2952 24.5405C27.9882 25.9265 26.9813 27.5557 25.4327 27.5557H4.60554C3.05697 27.5557 2.05006 25.9265 2.74171 24.5405ZM15.0192 10.8893C15.7859 10.8893 16.4081 11.5115 16.4081 12.2782V16.4447C16.4081 17.2114 15.7859 17.8336 15.0192 17.8336C14.2526 17.8336 13.6304 17.2114 13.6304 16.4447V12.2782C13.6304 11.5115 14.2526 10.8893 15.0192 10.8893ZM16.4081 22.0001C16.4081 22.7671 15.7863 23.3889 15.0192 23.3889C14.2522 23.3889 13.6304 22.7671 13.6304 22.0001C13.6304 21.233 14.2522 20.6112 15.0192 20.6112C15.7863 20.6112 16.4081 21.233 16.4081 22.0001Z" fill="#00FF95"/>
</svg>
