<svg width="30" height="30" viewBox="0 0 30 30" fill="none" xmlns="http://www.w3.org/2000/svg">
<path d="M25.5743 1.07859C25.6791 0.973802 25.849 0.973802 25.9538 1.07859L29.2924 4.41719C29.3972 4.52198 29.3972 4.69188 29.2924 4.79667L28.584 5.50511C28.5509 5.53821 28.5097 5.56208 28.4645 5.57434L27.4084 5.86087C27.3632 5.87313 27.3221 5.89699 27.289 5.9301L24.6326 8.58646C24.6034 8.61563 24.5814 8.65113 24.5681 8.69021L23.5532 11.6905C23.54 11.7296 23.5179 11.7651 23.4888 11.7943L21.3511 13.932C21.2463 14.0367 21.0764 14.0367 20.9716 13.932L16.4391 9.39938C16.3343 9.29459 16.3343 9.12469 16.4391 9.0199L18.5767 6.88224C18.6059 6.85307 18.6414 6.83102 18.6805 6.8178L21.6808 5.80285C21.7199 5.78963 21.7554 5.76758 21.7845 5.73841L24.4409 3.08205C24.474 3.04894 24.4979 3.00775 24.5101 2.96257L24.7967 1.90651C24.8089 1.86132 24.8328 1.82014 24.8659 1.78703L25.5743 1.07859Z" fill="#00FF95"/>
<path fill-rule="evenodd" clip-rule="evenodd" d="M14.5417 10.9173C14.6465 10.8125 14.8164 10.8125 14.9212 10.9173L15.6583 11.6544L15.659 11.6551L19.4538 15.4499C19.5586 15.5547 19.5586 15.7246 19.4538 15.8294L6.36171 28.9214C6.25693 29.0262 6.08702 29.0262 5.98224 28.9214L5.24505 28.1842L5.24447 28.1836L1.44968 24.3888C1.3449 24.284 1.3449 24.1141 1.44968 24.0094L14.5417 10.9173ZM13.0745 17.3299C13.7133 17.9687 14.749 17.9687 15.3878 17.3299C16.0266 16.6911 16.0266 15.6554 15.3878 15.0166C14.749 14.3778 13.7133 14.3778 13.0745 15.0166C12.4357 15.6554 12.4357 16.6911 13.0745 17.3299Z" fill="#00FF95"/>
</svg>
