<svg width="30" height="30" viewBox="0 0 30 30" fill="none" xmlns="http://www.w3.org/2000/svg">
<path fill-rule="evenodd" clip-rule="evenodd" d="M24.4982 2.77783H16.6033C15.5931 2.77783 14.5829 3.16382 13.8121 3.9346L4.60148 13.1452C3.05992 14.6868 3.05992 17.1861 4.60148 18.7277L11.1805 25.3067C12.2911 26.4174 13.8989 26.7278 15.2875 26.2381C16.744 25.7244 16.7033 25.0721 16.636 23.9959C16.6204 23.7457 16.6033 23.4725 16.6033 23.1728C16.6033 17.9436 20.6705 13.6644 25.814 13.3258C26.2526 13.3186 27.1298 13.0411 27.1298 11.9885V5.40944C27.1298 3.95604 25.9516 2.77783 24.4982 2.77783ZM23.1823 9.35687C23.1823 10.8103 22.0041 11.9885 20.5507 11.9885C19.0973 11.9885 17.9191 10.8103 17.9191 9.35687C17.9191 7.90347 19.0973 6.72526 20.5507 6.72526C22.0041 6.72526 23.1823 7.90347 23.1823 9.35687ZM23.5977 15.9356C24.2351 15.9356 24.7519 16.3775 24.7519 16.9225V17.1163C25.3232 17.2877 26.0317 17.608 26.7222 18.1984C27.173 18.5838 27.173 19.2086 26.7222 19.594C26.2715 19.9794 25.5407 19.9794 25.0899 19.594C24.6538 19.2211 24.2372 19.0496 23.954 18.9689C23.8105 18.928 23.6984 18.9097 23.6328 18.9017C23.607 18.8985 23.5886 18.897 23.5788 18.8963C22.9495 18.9049 22.4434 19.343 22.4434 19.883C22.4434 20.3632 22.6053 20.4803 22.7031 20.543C22.914 20.6782 23.2426 20.7636 23.8776 20.8994L23.9539 20.9156C24.4752 21.0263 25.2536 21.1917 25.8772 21.5915C26.645 22.0839 27.0603 22.8303 27.0603 23.8305C27.0603 25.1199 26.097 26.2164 24.7519 26.6227V26.791C24.7519 27.336 24.2351 27.7779 23.5977 27.7779C22.9602 27.7779 22.4434 27.336 22.4434 26.791V26.5972C21.8721 26.4258 21.1636 26.1055 20.4731 25.5151C20.0223 25.1297 20.0223 24.5049 20.4731 24.1195C20.9238 23.7341 21.6546 23.7341 22.1054 24.1195C22.5415 24.4924 22.9581 24.6639 23.2413 24.7446C23.3848 24.7855 23.4969 24.8038 23.5625 24.8118C23.5883 24.815 23.6067 24.8165 23.6165 24.8172C24.2458 24.8086 24.7519 24.3705 24.7519 23.8305C24.7519 23.3503 24.59 23.2333 24.4922 23.1705C24.2813 23.0353 23.9527 22.9499 23.3177 22.8141L23.2414 22.7979C22.7202 22.6872 21.9417 22.5218 21.3181 22.122C20.5503 21.6296 20.135 20.8832 20.135 19.883C20.135 18.5936 21.0983 17.4971 22.4434 17.0908V16.9225C22.4434 16.3775 22.9602 15.9356 23.5977 15.9356Z" fill="#00FF95"/>
</svg>
