<svg width="30" height="30" viewBox="0 0 30 30" fill="none" xmlns="http://www.w3.org/2000/svg">
<path fill-rule="evenodd" clip-rule="evenodd" d="M8.69553 3.38297C8.7496 3.15833 8.95056 3 9.18164 3H20.9473C21.1783 3 21.3793 3.15833 21.4334 3.38297L21.9683 5.60499L24.2275 8.91716C24.2841 9.00021 24.3145 9.09839 24.3145 9.19891V22.8297C24.3145 22.9487 24.272 23.0638 24.1948 23.1543L21.8959 25.8475L21.3546 27.6442C21.291 27.8554 21.0965 28 20.8759 28H9.17227C8.95026 28 8.75485 27.8536 8.69244 27.6405L8.1636 25.835L5.92969 23.1431C5.85522 23.0534 5.81445 22.9404 5.81445 22.8238V9.19891C5.81445 9.09839 5.84476 9.00021 5.9014 8.91716L8.16061 5.60499L8.69553 3.38297ZM12.6647 5.49511H10.7314L10.4555 6.64093L8.2868 9.82038V22.0974L10.3889 24.6305L10.645 25.5049H12.5615L12.4818 25.2327L10.2562 22.5508V19.6586H12.3409C13.8964 19.6586 14.7599 19.3682 16.231 18.8735C16.3295 18.8404 16.4308 18.8064 16.5351 18.7714C16.6241 18.7416 16.7154 18.7112 16.8092 18.6801C17.1458 18.5686 17.4726 18.4571 17.7886 18.3492C19.2055 17.8658 20.4039 17.457 21.2775 17.457H21.8421V11.3415H20.5005C18.945 11.3415 18.0814 11.6319 16.6103 12.1265C16.4278 12.1879 16.2359 12.2525 16.0322 12.32C15.6956 12.4315 15.3688 12.543 15.0528 12.6508C13.6359 13.1342 12.4375 13.5431 11.5638 13.5431H10.2562V9.4325L12.5136 6.12296L12.6647 5.49511Z" fill="#00FF95"/>
</svg>
