<svg width="30" height="30" viewBox="0 0 30 30" fill="none" xmlns="http://www.w3.org/2000/svg">
<path fill-rule="evenodd" clip-rule="evenodd" d="M24.8145 12.333C24.8145 6.80801 20.3395 2.33301 14.8145 2.33301C9.28945 2.33301 4.81445 6.80801 4.81445 12.333C4.81445 12.5205 4.81445 12.6955 4.82695 12.883C4.98945 17.3205 7.31445 22.408 13.7395 26.9955C14.377 27.4455 15.252 27.4455 15.8895 26.9955C22.3145 22.408 24.6395 17.3205 24.802 12.883C24.8145 12.6955 24.8145 12.5205 24.8145 12.333ZM17.4657 14.9843C18.1694 14.2818 18.5645 13.328 18.5645 12.333C18.5645 11.338 18.1682 10.3855 17.4657 9.68176C16.7632 8.97801 15.8095 8.58301 14.8145 8.58301C13.8195 8.58301 12.867 8.97926 12.1632 9.68176C11.4595 10.3843 11.0645 11.338 11.0645 12.333C11.0645 13.328 11.4595 14.2818 12.1632 14.9843C12.8657 15.688 13.8195 16.083 14.8145 16.083C15.8082 16.083 16.762 15.688 17.4657 14.9843Z" fill="#00FF95"/>
</svg>
