<svg width="30" height="30" viewBox="0 0 30 30" fill="none" xmlns="http://www.w3.org/2000/svg">
<path d="M10.8886 17.8732C10.8319 18.0738 11.0137 18.2574 11.2158 18.2039C12.4304 17.8826 13.5888 17.4504 14.6795 16.9186L14.744 16.8885L14.8084 16.9186C15.8991 17.4504 17.0575 17.8826 18.2721 18.2039C18.4742 18.2574 18.656 18.0738 18.5993 17.8732C18.4458 17.3311 18.2671 16.8007 18.0645 16.2829C18.3531 16.2477 18.6411 16.2077 18.9287 16.1625C20.778 15.8715 22.6056 15.3618 24.4101 14.494C24.6128 14.3966 24.6128 14.1139 24.4101 14.0164C23.0636 13.3689 21.7042 12.9207 20.3326 12.614C22.0067 10.7024 23.2612 8.43283 23.9831 5.91994C24.041 5.71871 23.8583 5.53404 23.6554 5.58833C21.3205 6.21328 19.1873 7.24482 17.3421 8.60526C17.6118 5.70484 16.8147 2.75865 14.9642 0.11492C14.8569 -0.0383066 14.6309 -0.0383066 14.5237 0.11492C12.673 2.75865 11.8762 5.70484 12.1458 8.60526C10.3006 7.24482 8.16739 6.21328 5.83238 5.58833C5.62963 5.53404 5.44697 5.71871 5.50478 5.91994C6.22675 8.43283 7.48124 10.7024 9.15534 12.614C7.78374 12.9207 6.42434 13.3689 5.07784 14.0164C4.87509 14.1139 4.87509 14.3965 5.07784 14.494C6.78262 15.3138 8.50788 15.8141 10.2527 16.1122C10.642 16.1787 11.0322 16.2352 11.4234 16.2829C11.2208 16.8007 11.0421 17.3311 10.8886 17.8732Z" fill="#00FF95"/>
<path d="M10.1149 29.7701C10.3337 29.8713 10.5758 29.9229 10.8073 29.9979V30H19.2571C19.2979 29.9814 19.3376 29.9546 19.3813 29.9449C20.4725 29.7102 21.1331 29.0562 21.3231 27.9866C21.4033 27.5351 21.4716 27.0815 21.5367 26.6275C21.5983 26.1987 21.6571 25.7695 21.7205 25.3413C21.8369 24.5524 21.954 23.7629 22.0713 22.9699C22.2102 22.9561 22.3141 22.9479 22.4179 22.9355C22.8992 22.8777 23.2924 22.5417 23.4145 22.0868C23.6319 21.2779 23.0439 20.6054 22.1044 20.6054C17.3893 20.6027 12.6736 20.6034 7.95853 20.6061C7.80749 20.6068 7.65224 20.6213 7.50608 20.6557C6.98591 20.7782 6.61949 21.2277 6.60049 21.7488C6.58217 22.2527 6.93651 22.7462 7.44121 22.8928C7.60704 22.9403 7.78496 22.9479 7.97264 22.9761C7.97997 23.0056 7.98798 23.0351 7.99599 23.0646C8.01444 23.1324 8.0329 23.2006 8.04321 23.27C8.0975 23.6422 8.15219 24.0144 8.20688 24.3865C8.37339 25.519 8.53977 26.6513 8.69543 27.7849C8.81974 28.6914 9.25876 29.3736 10.1149 29.7701Z" fill="#00FF95"/>
</svg>
