<svg width="30" height="30" viewBox="0 0 30 30" fill="none" xmlns="http://www.w3.org/2000/svg">
<path d="M3.03939 3.91036C2.9372 3.75926 3.0457 3.55566 3.22853 3.55566H5.42996C5.50578 3.55566 5.5767 3.59324 5.6191 3.65593L11.788 12.7757C12.5907 12.3563 13.476 12.073 14.4134 11.9564L20.0282 3.65593C20.0706 3.59324 20.1415 3.55566 20.2173 3.55566H22.4187C22.6015 3.55566 22.7101 3.75926 22.6079 3.91036L17.08 12.0823C17.8146 12.2457 18.5099 12.5131 19.1495 12.868L25.3809 3.65593C25.4233 3.59324 25.4942 3.55566 25.57 3.55566H27.7715C27.9543 3.55566 28.0628 3.75926 27.9606 3.91036L20.9616 14.2572C22.3099 15.6486 23.1395 17.5431 23.1395 19.6309C23.1395 23.9024 19.6668 27.3652 15.383 27.3652C11.0992 27.3652 7.62648 23.9024 7.62648 19.6309C7.62648 17.4722 8.51339 15.5201 9.94368 14.1171L3.03939 3.91036Z" fill="#00FF95"/>
<path d="M8.39212 3.91036C8.28986 3.75926 8.39843 3.55566 8.58119 3.55566H10.7827C10.8585 3.55566 10.9294 3.59324 10.9718 3.65593L14.5162 8.89569C14.5683 8.9726 14.5683 9.07323 14.5162 9.15013L13.4155 10.7774C13.3251 10.9111 13.1277 10.9111 13.0372 10.7774L8.39212 3.91036Z" fill="#00FF95"/>
</svg>
