<svg width="30" height="30" viewBox="0 0 30 30" fill="none" xmlns="http://www.w3.org/2000/svg">
<path fill-rule="evenodd" clip-rule="evenodd" d="M2.81445 15.0557C2.81445 8.16316 8.42195 2.55566 15.3145 2.55566C22.207 2.55566 27.8145 8.16316 27.8145 15.0557C27.8145 21.9482 22.207 27.5557 15.3145 27.5557C8.42195 27.5557 2.81445 21.9482 2.81445 15.0557ZM12.4483 10.4218C11.9602 9.93363 11.1687 9.93363 10.6806 10.4218C10.1924 10.9099 10.1924 11.7014 10.6806 12.1895L13.5467 15.0557L10.6806 17.9218C10.1924 18.4099 10.1924 19.2014 10.6806 19.6895C11.1687 20.1777 11.9602 20.1777 12.4483 19.6895L15.3145 16.8234L18.1806 19.6895C18.6687 20.1777 19.4602 20.1777 19.9483 19.6895C20.4365 19.2014 20.4365 18.4099 19.9483 17.9218L17.0822 15.0557L19.9483 12.1895C20.4365 11.7014 20.4365 10.9099 19.9483 10.4218C19.4602 9.93363 18.6687 9.93363 18.1806 10.4218L15.3145 13.2879L12.4483 10.4218Z" fill="#00FF95"/>
</svg>
