<svg width="30" height="30" viewBox="0 0 30 30" fill="none" xmlns="http://www.w3.org/2000/svg">
<path fill-rule="evenodd" clip-rule="evenodd" d="M15.5 27.5557C8.6075 27.5557 3 21.9482 3 15.0557C3 8.16316 8.6075 2.55566 15.5 2.55566C22.3925 2.55566 28 8.16316 28 15.0557C28 21.9482 22.3925 27.5557 15.5 27.5557ZM16.75 8.80566C16.75 8.11531 16.1904 7.55566 15.5 7.55566C14.8096 7.55566 14.25 8.11531 14.25 8.80566V9.01891C12.7933 9.53353 11.75 10.9224 11.75 12.5557C11.75 13.8225 12.1997 14.768 13.0312 15.3916C13.7066 15.8981 14.5497 16.1075 15.1142 16.2478L15.1968 16.2683C15.8845 16.4403 16.2404 16.5485 16.4688 16.7197C16.5747 16.7992 16.75 16.9475 16.75 17.5557C16.75 18.2397 16.2019 18.7946 15.5205 18.8055C15.5098 18.8046 15.4899 18.8027 15.4619 18.7987C15.3909 18.7885 15.2695 18.7654 15.114 18.7136C14.8074 18.6114 14.3562 18.3941 13.8839 17.9218C13.3957 17.4336 12.6043 17.4336 12.1161 17.9218C11.628 18.4099 11.628 19.2014 12.1161 19.6895C12.8639 20.4374 13.6312 20.8431 14.25 21.0601V21.3057C14.25 21.996 14.8096 22.5557 15.5 22.5557C16.1904 22.5557 16.75 21.996 16.75 21.3057V21.0924C18.2067 20.5778 19.25 19.1889 19.25 17.5557C19.25 16.2889 18.8003 15.3434 17.9688 14.7197C17.2934 14.2132 16.4503 14.0038 15.8858 13.8636L15.8032 13.843C15.1155 13.6711 14.7596 13.5629 14.5312 13.3916C14.4253 13.3121 14.25 13.1639 14.25 12.5557C14.25 11.8716 14.7981 11.3167 15.4795 11.3058C15.4902 11.3067 15.5101 11.3086 15.5381 11.3126C15.6091 11.3228 15.7305 11.3459 15.886 11.3978C16.1926 11.5 16.6438 11.7173 17.1161 12.1895C17.6043 12.6777 18.3957 12.6777 18.8839 12.1895C19.372 11.7014 19.372 10.9099 18.8839 10.4218C18.1361 9.67396 17.3688 9.26824 16.75 9.05119V8.80566Z" fill="#00FF95"/>
</svg>
