<svg width="30" height="30" viewBox="0 0 30 30" fill="none" xmlns="http://www.w3.org/2000/svg">
<path d="M26.9382 13.2989C27.0783 13.2989 27.1913 13.1831 27.1853 13.0431C26.9289 7.08484 22.0104 2.33301 15.9804 2.33301C15.8506 2.33301 15.7468 2.43924 15.7468 2.56904V13.0489C15.7468 13.187 15.8588 13.2989 15.9969 13.2989H26.9382Z" fill="#00FF95"/>
<path d="M13.1501 4.44494C13.2881 4.44192 13.4009 4.55415 13.4009 4.69227L13.401 15.3914C13.401 15.5295 13.513 15.6415 13.6511 15.6415H24.3663C24.5044 15.6415 24.6166 15.7543 24.6136 15.8924C24.48 21.9617 19.5111 26.8407 13.4009 26.8407C7.20685 26.8407 2.18555 21.8267 2.18555 15.6415C2.18555 9.54001 7.07182 4.57815 13.1501 4.44494Z" fill="#00FF95"/>
</svg>
