<svg width="30" height="30" viewBox="0 0 30 30" fill="none" xmlns="http://www.w3.org/2000/svg">
<path fill-rule="evenodd" clip-rule="evenodd" d="M12.8005 1.91104C14.0155 0.696356 15.9847 0.696281 17.1996 1.91104L18.032 2.74339C18.907 3.61846 20.0943 4.11047 21.3318 4.11059H22.7778C24.4959 4.11059 25.8882 5.50319 25.8884 7.22124V8.66719C25.8884 9.90484 26.3805 11.0919 27.2556 11.9671L28.0891 12.8005C29.3036 14.0154 29.3037 15.9847 28.0891 17.1996L27.2556 18.0331C26.3805 18.9082 25.8884 20.0953 25.8884 21.3329V22.7778C25.8882 24.4958 24.4959 25.8884 22.7778 25.8884H21.3329C20.0953 25.8885 18.9082 26.3805 18.0331 27.2556L17.1996 28.0891C15.9847 29.3037 14.0154 29.3036 12.8005 28.0891L11.966 27.2556C11.0909 26.3806 9.90463 25.8886 8.66719 25.8884H7.22234C5.50426 25.8884 4.11084 24.4958 4.11059 22.7778V21.3329C4.11059 20.0954 3.6195 18.9082 2.74449 18.0331L1.91104 17.1996C0.696281 15.9847 0.696356 14.0155 1.91104 12.8005L2.74449 11.9671C3.61956 11.0919 4.11057 9.90479 4.11059 8.66719V7.22124C4.1108 5.50319 5.50423 4.11059 7.22234 4.11059H8.66719C9.90485 4.11059 11.0919 3.61853 11.9671 2.74339L12.8005 1.91104ZM15.2308 7.83922C15.1212 7.68044 14.8789 7.68044 14.7693 7.83922C13.4296 9.77895 12.8544 11.9324 13.0532 14.0529C11.7047 13.0672 10.1506 12.3141 8.45172 11.8468C8.24173 11.7892 8.05077 11.9697 8.11047 12.1694C8.65626 13.9917 9.58283 15.6395 10.8121 17.0312C9.82446 17.2501 8.84557 17.5665 7.87531 18.0177C7.66858 18.1139 7.66858 18.3864 7.87531 18.4826C9.1143 19.0588 10.3674 19.4153 11.6346 19.6299C11.9262 19.6793 12.2186 19.7214 12.5118 19.7568C12.374 20.1059 12.2507 20.4626 12.1432 20.8265C12.0843 21.0258 12.276 21.2061 12.4855 21.1492C13.3486 20.9144 14.1734 20.6057 14.9519 20.2293L15.0001 20.2064L15.0482 20.2293C15.8268 20.6057 16.6515 20.9144 17.5146 21.1492C17.7241 21.2061 17.9147 21.0258 17.8559 20.8265C17.7484 20.4627 17.6261 20.1058 17.4884 19.7568C17.7045 19.7307 17.9205 19.7007 18.1359 19.6671C19.4812 19.4573 20.811 19.0936 22.1248 18.4826C22.3314 18.3864 22.3314 18.1139 22.1248 18.0177C21.1546 17.5665 20.1756 17.2501 19.1881 17.0312C20.4173 15.6395 21.3439 13.9917 21.8896 12.1694C21.9493 11.9696 21.7574 11.789 21.5473 11.8468C19.8486 12.3141 18.2953 13.0673 16.9469 14.0529C17.1457 11.9325 16.5705 9.77891 15.2308 7.83922Z" fill="#00FF95"/>
</svg>
