<svg width="30" height="30" viewBox="0 0 30 30" fill="none" xmlns="http://www.w3.org/2000/svg">
<path fill-rule="evenodd" clip-rule="evenodd" d="M27.9431 14.921C27.9285 14.8623 27.9123 14.8044 27.8948 14.747C27.8593 14.6113 27.8142 14.4737 27.7597 14.3355C27.6625 14.0873 27.5188 13.8525 27.3652 13.6306C27.2925 13.5126 27.216 13.3964 27.1378 13.2796L27.1341 13.2741C26.7814 12.664 26.637 12.0054 26.711 11.2754C26.8675 9.73162 26.1924 8.57114 24.7756 7.9212C24.0027 7.5672 23.4463 7.01386 23.0916 6.24048C22.4911 4.9308 21.4627 4.26013 20.1033 4.27604C19.9626 4.27724 19.8182 4.28583 19.6709 4.30165C19.5413 4.31579 19.4128 4.3231 19.2858 4.3231C18.7286 4.32189 18.201 4.18183 17.7313 3.86212C17.1364 3.45736 16.5267 3.11677 15.8094 3H15.1906C14.4733 3.11677 13.8636 3.45736 13.2687 3.86212C12.799 4.18183 12.2714 4.32189 11.7142 4.3231C11.5872 4.3231 11.4587 4.31579 11.3291 4.30165L11.2552 4.29435C11.2007 4.28937 11.1466 4.28535 11.0929 4.28238C11.0594 4.28053 11.026 4.27909 10.9927 4.27796C10.9604 4.27692 10.9285 4.27628 10.8967 4.27604C9.53735 4.26013 8.5089 4.9308 7.90835 6.24048C7.5537 7.01386 6.99732 7.5672 6.22442 7.9212C4.80696 8.57058 4.13252 9.73162 4.28897 11.2754C4.36301 12.0061 4.21862 12.6645 3.8659 13.2741L3.8622 13.2796C3.78398 13.3958 3.70753 13.5126 3.63477 13.6306C3.48121 13.8519 3.33746 14.0873 3.24029 14.3355C3.18584 14.4737 3.14118 14.6107 3.10521 14.747C3.06055 14.8931 3.02441 15.0435 3 15.1988V15.809C3.00787 15.8592 3.01703 15.9089 3.02714 15.9581C3.03421 15.9929 3.04192 16.0273 3.05011 16.0615C3.0832 16.2381 3.13267 16.4125 3.19852 16.5845C3.30726 16.8686 3.46082 17.1463 3.65854 17.4171L3.66528 17.4262C3.72825 17.5264 3.79378 17.6261 3.86092 17.7258C4.22054 18.3366 4.36735 19 4.29025 19.7367C4.13124 21.2579 4.81371 22.4447 6.20242 23.0757C6.98624 23.4321 7.55306 23.9866 7.91269 24.7711C8.48321 26.0159 9.44017 26.6866 10.7091 26.7288C10.8912 26.7355 11.0803 26.7288 11.2746 26.7093C11.3284 26.7037 11.3816 26.6995 11.4349 26.6964L11.4783 26.6946C11.5144 26.6927 11.5504 26.6915 11.5859 26.6909H11.6856C11.7039 26.6909 11.7222 26.6909 11.7399 26.6915L11.7762 26.693L11.8286 26.6958C11.8519 26.697 11.8745 26.6983 11.8978 26.7L11.9341 26.7036L11.9582 26.7062C11.9913 26.7093 12.0244 26.7123 12.0567 26.7166L12.0836 26.7203C12.4261 26.7673 12.7513 26.8694 13.0644 27.0229C13.0877 27.0345 13.1116 27.0467 13.1347 27.0589L13.1543 27.0692L13.1722 27.0785C13.3035 27.1501 13.4325 27.2314 13.5597 27.3231C13.6169 27.3643 13.6744 27.4056 13.7329 27.4456C13.8342 27.5149 13.9381 27.58 14.047 27.6331C14.1204 27.6691 14.1932 27.7021 14.266 27.7327C14.669 27.9143 15.0805 28.003 15.5 27.9999C15.6372 28.0009 15.7735 27.992 15.9089 27.9734C16.0787 27.95 16.2472 27.9112 16.4142 27.8568C16.5214 27.8219 16.628 27.7805 16.734 27.7327C16.7782 27.7142 16.8227 27.6947 16.867 27.6741C16.8958 27.6609 16.9244 27.6472 16.953 27.6331C17.1247 27.5487 17.2843 27.4356 17.4403 27.3231C17.5668 27.2314 17.6965 27.1501 17.8278 27.0785L17.8439 27.0701L17.8653 27.0589C17.8884 27.0467 17.9117 27.0345 17.9356 27.0229C18.2487 26.8694 18.5746 26.7673 18.9164 26.7203L18.9433 26.7166C18.9756 26.7123 19.0087 26.7093 19.0418 26.7062L19.1028 26.7C19.1255 26.6983 19.1488 26.6976 19.1714 26.6958C19.2007 26.6939 19.2301 26.6921 19.2601 26.6915C19.2784 26.6915 19.2967 26.6915 19.3144 26.6909L19.3476 26.6906C19.3696 26.6903 19.3918 26.6901 19.4141 26.6909C19.4496 26.6909 19.4856 26.6927 19.5217 26.6946C19.5364 26.6952 19.5505 26.6952 19.5651 26.6964C19.6184 26.6995 19.6716 26.7037 19.7254 26.7093C19.9198 26.7294 20.1088 26.7355 20.2909 26.7288C21.5598 26.686 22.5168 26.0159 23.0873 24.7711C23.4469 23.9866 24.0131 23.4321 24.7976 23.0757C26.1863 22.4447 26.8688 21.2579 26.7097 19.7367C26.6327 19 26.7795 18.3366 27.1391 17.7258C27.2062 17.6268 27.2718 17.5264 27.3347 17.4262L27.3415 17.4171C27.6582 16.9817 27.8619 16.5292 27.9499 16.0615C27.9634 16.0045 27.9757 15.9467 27.9865 15.8881C27.9913 15.8619 27.9958 15.8355 28 15.809V15.1988C27.9852 15.1042 27.966 15.0117 27.9431 14.921ZM15.3588 8.92105C15.9947 8.92105 16.5101 8.40563 16.5101 7.76974C16.5101 7.13385 15.9947 6.61842 15.3588 6.61842C14.7229 6.61842 14.2075 7.13385 14.2075 7.76974C14.2075 8.40563 14.7229 8.92105 15.3588 8.92105ZM20.3046 11.5643C20.3046 12.2002 19.7892 12.7156 19.1533 12.7156C18.5174 12.7156 18.002 12.2002 18.002 11.5643C18.002 10.9284 18.5174 10.413 19.1533 10.413C19.7892 10.413 20.3046 10.9284 20.3046 11.5643ZM11.5642 12.7156C12.2001 12.7156 12.7155 12.2002 12.7155 11.5643C12.7155 10.9284 12.2001 10.413 11.5642 10.413C10.9283 10.413 10.4129 10.9284 10.4129 11.5643C10.4129 12.2002 10.9283 12.7156 11.5642 12.7156ZM16.5101 15.3588C16.5101 15.9947 15.9947 16.5101 15.3588 16.5101C14.7229 16.5101 14.2075 15.9947 14.2075 15.3588C14.2075 14.7229 14.7229 14.2075 15.3588 14.2075C15.9947 14.2075 16.5101 14.7229 16.5101 15.3588ZM22.9479 16.5102C23.5838 16.5102 24.0992 15.9948 24.0992 15.3589C24.0992 14.723 23.5838 14.2076 22.9479 14.2076C22.312 14.2076 21.7966 14.723 21.7966 15.3589C21.7966 15.9948 22.312 16.5102 22.9479 16.5102ZM8.92105 15.3587C8.92105 15.9946 8.40563 16.5101 7.76974 16.5101C7.13385 16.5101 6.61842 15.9946 6.61842 15.3587C6.61842 14.7228 7.13385 14.2074 7.76974 14.2074C8.40563 14.2074 8.92105 14.7228 8.92105 15.3587ZM19.1534 20.3048C19.7893 20.3048 20.3048 19.7893 20.3048 19.1534C20.3048 18.5175 19.7893 18.0021 19.1534 18.0021C18.5175 18.0021 18.0021 18.5175 18.0021 19.1534C18.0021 19.7893 18.5175 20.3048 19.1534 20.3048ZM12.7157 19.1534C12.7157 19.7892 12.2002 20.3047 11.5644 20.3047C10.9285 20.3047 10.413 19.7892 10.413 19.1534C10.413 18.5175 10.9285 18.002 11.5644 18.002C12.2002 18.002 12.7157 18.5175 12.7157 19.1534ZM15.3588 24.0993C15.9947 24.0993 16.5101 23.5839 16.5101 22.948C16.5101 22.3121 15.9947 21.7967 15.3588 21.7967C14.7229 21.7967 14.2075 22.3121 14.2075 22.948C14.2075 23.5839 14.7229 24.0993 15.3588 24.0993Z" fill="#00FF95"/>
</svg>
