<svg width="30" height="30" viewBox="0 0 30 30" fill="none" xmlns="http://www.w3.org/2000/svg">
<path d="M13.8858 3.63566V2.09566C13.8858 1.24515 14.5753 0.555664 15.4258 0.555664C16.2763 0.555664 16.9658 1.24515 16.9658 2.09566V3.63566H13.8858Z" fill="#00FF95"/>
<path fill-rule="evenodd" clip-rule="evenodd" d="M7.16578 3.63566C5.92866 3.63566 4.92578 4.63855 4.92578 5.87566V26.3157C4.92578 27.5528 5.92866 28.5557 7.16578 28.5557H23.4058C24.6429 28.5557 25.6458 27.5528 25.6458 26.3157V5.87566C25.6458 4.63855 24.6429 3.63566 23.4058 3.63566H16.9658V5.17567C16.9658 6.02618 16.2763 6.71566 15.4258 6.71566C14.5753 6.71566 13.8858 6.02618 13.8858 5.17567V3.63566H7.16578ZM15.4258 16.2357C17.0108 16.2357 18.2958 14.9821 18.2958 13.4357C18.2958 11.8893 17.0108 10.6357 15.4258 10.6357C13.8407 10.6357 12.5558 11.8893 12.5558 13.4357C12.5558 14.9821 13.8407 16.2357 15.4258 16.2357ZM9.68578 21.1357C9.68578 22.2955 10.6495 23.2357 11.8383 23.2357H19.0133C20.2021 23.2357 21.1658 22.2955 21.1658 21.1357C21.1658 19.9759 20.0895 17.6357 15.4258 17.6357C10.762 17.6357 9.68578 19.9759 9.68578 21.1357Z" fill="#00FF95"/>
</svg>
