<svg width="30" height="30" viewBox="0 0 30 30" fill="none" xmlns="http://www.w3.org/2000/svg">
<path d="M5 19.3173C4.9987 24.4065 9.01124 26.8803 12.4678 27.7598C13.5247 28.0287 13.9559 26.924 13.1791 26.1679C12.0463 25.0651 10.9494 23.5918 10.7528 21.5566C10.522 19.168 12.2903 17.4852 13.6681 16.6865C13.9089 16.5469 14.1539 16.7951 14.0568 17.0535C13.5999 18.2704 13.351 20.4469 16.5057 23.1987C17.7787 24.3092 18.4751 25.8633 18.8521 27.0895C19.0936 27.8752 19.9902 28.2956 20.6211 27.7598C22.6375 26.0472 24.788 22.8868 24.9837 19.3173C25.1554 16.1835 23.9424 12.6894 22.7904 10.3364C22.3434 9.42338 21.2317 9.6428 20.965 10.622C20.8223 11.1462 20.65 11.6443 20.4419 12.0023C19.8705 12.9852 19.1803 13.8435 18.6252 14.0923C18.5243 12.7487 19.2326 10.808 17.4141 7.67298C16.6728 6.39518 15.1203 4.22242 13.7406 2.36054C13.1887 1.61575 11.7578 2.11614 11.6364 3.03078C11.4998 4.05962 11.2338 5.23385 10.7529 6.47869C9.55009 9.59241 5.00188 12.0023 5 19.3173Z" fill="#00FF95"/>
</svg>
