<svg width="30" height="30" viewBox="0 0 30 30" fill="none" xmlns="http://www.w3.org/2000/svg">
<path fill-rule="evenodd" clip-rule="evenodd" d="M8.55581 17.6102L3.52266 13.4437C2.5727 12.684 2.98935 11.1563 4.19486 10.9841L11.3335 10.666L14.382 3.02326C14.5945 2.59966 15.0264 2.33301 15.5 2.33301C15.9736 2.33301 16.4055 2.60105 16.618 3.02326L19.6665 10.666L26.8051 10.9841C28.0106 11.1563 28.4273 12.684 27.4773 13.4437L22.4442 17.6102L23.8178 25.7446C23.9761 26.8543 22.8233 27.6849 21.822 27.1835L15.5 23.1656L9.17801 27.1821C8.17527 27.6835 7.02392 26.8529 7.18225 25.7433L8.55581 17.6102Z" fill="#00FF95"/>
</svg>
