<svg width="30" height="30" viewBox="0 0 30 30" fill="none" xmlns="http://www.w3.org/2000/svg">
<path d="M3.68024 4.88011L2.83409 10.2534C2.69011 11.1677 3.35629 12 4.23207 12H5.49697C6.3022 12 7.03832 11.5185 7.39843 10.7562L8.22811 8.99999L9.0578 10.7562C9.41791 11.5185 10.154 12 10.9593 12H12.5833C13.3885 12 14.1247 11.5185 14.4848 10.7562L15.3145 8.99999L16.1441 10.7562C16.5042 11.5185 17.2404 12 18.0456 12H19.6696C20.4749 12 21.211 11.5185 21.5711 10.7562L22.4008 8.99999L23.2305 10.7562C23.5906 11.5185 24.3267 12 25.1319 12H26.3968C27.2726 12 27.9388 11.1677 27.7948 10.2534L26.9487 4.88011C26.7778 3.79518 25.8909 3 24.8517 3H5.77722C4.73799 3 3.85109 3.79518 3.68024 4.88011Z" fill="#00FF95"/>
<path d="M26.0753 14H4.33619V25.4436C4.33619 26.0241 4.51933 26.5596 4.82774 26.9889C5.28331 27.6024 6.01332 28 6.83619 28H10.6405C11.2408 28 11.7275 27.4277 11.7275 26.7218V19.0526C11.7275 18.3466 12.2141 17.7744 12.8145 17.7744H17.3797C17.98 17.7744 18.4666 18.3466 18.4666 19.0526V26.7218C18.4666 27.4277 18.9533 28 19.5536 28H23.5753C24.3982 28 25.1282 27.6024 25.5838 26.9889C25.8922 26.5596 26.0753 26.0241 26.0753 25.4436V14Z" fill="#00FF95"/>
</svg>
