<svg width="30" height="30" viewBox="0 0 30 30" fill="none" xmlns="http://www.w3.org/2000/svg">
<path d="M9.93464 27.38C9.83055 27.7506 10.1683 28.0861 10.5387 27.9802C12.0654 27.5434 13.5238 26.9682 14.9009 26.2679L14.9863 26.2263L15.0718 26.2679C16.4489 26.9682 17.9072 27.5434 19.4339 27.9802C19.8044 28.0861 20.1421 27.7506 20.038 27.38C19.8478 26.7028 19.6303 26.0389 19.3866 25.3894C19.769 25.3408 20.1507 25.2856 20.5318 25.2231C22.9112 24.8327 25.2635 24.1572 27.5871 23.0206C27.9527 22.8417 27.9528 22.3329 27.5872 22.1541C25.871 21.3146 24.1391 20.7266 22.3923 20.3193C24.5662 17.7306 26.2061 14.6668 27.1713 11.2771C27.2772 10.9053 26.9378 10.5679 26.5661 10.6754C23.5615 11.5448 20.814 12.946 18.4293 14.7795C18.7809 10.8352 17.7639 6.82966 15.3944 3.22151C15.2005 2.92616 14.7721 2.92616 14.5781 3.22151C12.2087 6.82966 11.1918 10.8352 11.5433 14.7795C9.15862 12.946 6.41104 11.5448 3.40648 10.6754C3.03479 10.5679 2.6954 10.9053 2.80127 11.2771C3.76651 14.6668 5.40649 17.7306 7.58042 20.3193C5.83355 20.7266 4.10171 21.3146 2.38552 22.1541C2.01991 22.3329 2.01995 22.8417 2.38555 23.0206C4.57685 24.0925 6.79364 24.7543 9.03468 25.1536C9.55053 25.2455 10.0677 25.3235 10.5861 25.3894C10.3424 26.0389 10.1248 26.7028 9.93464 27.38Z" fill="#00FF95"/>
</svg>
