<svg width="30" height="30" viewBox="0 0 30 30" fill="none" xmlns="http://www.w3.org/2000/svg">
<path d="M3.73934 3.77783C3.06107 3.77783 2.51133 4.32758 2.51133 5.00577V7.16695H27.9913V5.00577C27.9913 4.32758 27.4416 3.77783 26.7633 3.77783H3.73934Z" fill="#00FF95"/>
<path fill-rule="evenodd" clip-rule="evenodd" d="M1.11133 11.6178C1.11133 10.7019 1.55115 9.88868 2.23105 9.37783H27.9916C28.6715 9.88868 29.1113 10.7019 29.1113 11.6178V22.8178C29.1113 24.3643 27.8578 25.6178 26.3113 25.6178H3.91133C2.3649 25.6178 1.11133 24.3643 1.11133 22.8178V11.6178ZM13.1769 22.8091C13.0157 22.8554 12.8689 22.7089 12.9141 22.5471C12.9968 22.2512 13.0914 21.9612 13.1974 21.6775C12.972 21.6487 12.7471 21.6146 12.5227 21.5745C11.5479 21.4001 10.5837 21.111 9.63055 20.6428C9.47154 20.5647 9.47154 20.3425 9.63055 20.2643C10.377 19.8977 11.1304 19.6408 11.8901 19.4629C10.9446 18.3322 10.2313 16.9939 9.81143 15.5133C9.76535 15.3509 9.91301 15.2035 10.0746 15.2504C11.3815 15.6302 12.5766 16.2423 13.6138 17.0431C13.4609 15.3202 13.9031 13.5707 14.9337 11.9946C15.0181 11.8656 15.2044 11.8656 15.2888 11.9946C16.3194 13.5707 16.7618 15.3202 16.6088 17.0431C17.6461 16.2423 18.8412 15.6302 20.1479 15.2504C20.3096 15.2035 20.4573 15.3509 20.4112 15.5133C19.9914 16.9939 19.2781 18.3322 18.3326 19.4629C19.0923 19.6408 19.8456 19.8977 20.5921 20.2643C20.7511 20.3425 20.7511 20.5647 20.5921 20.6428C19.5813 21.1393 18.5583 21.4344 17.5233 21.6049C17.4558 21.616 17.3881 21.6266 17.3204 21.6367C17.2221 21.6514 17.1237 21.6649 17.0253 21.6775C17.1312 21.9612 17.2258 22.2512 17.3085 22.5471C17.3538 22.7089 17.207 22.8554 17.0458 22.8091C16.3817 22.6184 15.7475 22.3671 15.1485 22.0613L15.1113 22.0431L15.0741 22.0613C14.4752 22.3671 13.8409 22.6184 13.1769 22.8091Z" fill="#00FF95"/>
</svg>
