<svg width="30" height="30" viewBox="0 0 30 30" fill="none" xmlns="http://www.w3.org/2000/svg">
<path d="M3 8.625C3 5.97335 3 4.64752 3.82376 3.82376C4.64752 3 5.97335 3 8.625 3C11.2767 3 12.6025 3 13.4262 3.82376C14.25 4.64752 14.25 5.97335 14.25 8.625C14.25 11.2767 14.25 12.6025 13.4262 13.4262C12.6025 14.25 11.2767 14.25 8.625 14.25C5.97335 14.25 4.64752 14.25 3.82376 13.4262C3 12.6025 3 11.2767 3 8.625Z" fill="#00FF95"/>
<path d="M16.75 22.375C16.75 19.7234 16.75 18.3975 17.5738 17.5738C18.3975 16.75 19.7234 16.75 22.375 16.75C25.0266 16.75 26.3525 16.75 27.1762 17.5738C28 18.3975 28 19.7234 28 22.375C28 25.0266 28 26.3525 27.1762 27.1762C26.3525 28 25.0266 28 22.375 28C19.7234 28 18.3975 28 17.5738 27.1762C16.75 26.3525 16.75 25.0266 16.75 22.375Z" fill="#00FF95"/>
<path d="M3 22.375C3 19.7234 3 18.3975 3.82376 17.5738C4.64752 16.75 5.97335 16.75 8.625 16.75C11.2767 16.75 12.6025 16.75 13.4262 17.5738C14.25 18.3975 14.25 19.7234 14.25 22.375C14.25 25.0266 14.25 26.3525 13.4262 27.1762C12.6025 28 11.2767 28 8.625 28C5.97335 28 4.64752 28 3.82376 27.1762C3 26.3525 3 25.0266 3 22.375Z" fill="#00FF95"/>
<path d="M16.75 8.625C16.75 5.97335 16.75 4.64752 17.5738 3.82376C18.3975 3 19.7234 3 22.375 3C25.0266 3 26.3525 3 27.1762 3.82376C28 4.64752 28 5.97335 28 8.625C28 11.2767 28 12.6025 27.1762 13.4262C26.3525 14.25 25.0266 14.25 22.375 14.25C19.7234 14.25 18.3975 14.25 17.5738 13.4262C16.75 12.6025 16.75 11.2767 16.75 8.625Z" fill="#00FF95"/>
</svg>
