<svg width="30" height="30" viewBox="0 0 30 30" fill="none" xmlns="http://www.w3.org/2000/svg">
<path fill-rule="evenodd" clip-rule="evenodd" d="M16.1132 2.77783H24.4253C25.9555 2.77783 27.196 4.01831 27.196 5.54853V13.8606C27.1961 14.3296 27.196 15.246 25.118 15.246H23.04C18.4493 15.246 14.7279 18.9674 14.7279 23.558V26.3287C14.7279 27.9496 13.4683 28.011 11.9572 27.478C11.3899 27.278 10.8575 26.9511 10.4038 26.4974L3.47704 19.5707C1.85401 17.9477 1.85401 15.3162 3.47704 13.6932L13.1745 3.99574C13.986 3.18422 15.0496 2.77783 16.1132 2.77783ZM20.2693 12.4753C21.7995 12.4753 23.04 11.2348 23.04 9.70457C23.04 8.17436 21.7995 6.93387 20.2693 6.93387C18.7391 6.93387 17.4986 8.17436 17.4986 9.70457C17.4986 11.2348 18.7391 12.4753 20.2693 12.4753ZM27.1965 20.7814C27.5638 20.7814 27.916 20.9273 28.1757 21.1871C28.4355 21.4468 28.5814 21.799 28.5814 22.1663C28.5814 22.5336 28.4355 22.8859 28.1757 23.1456C27.916 23.4053 27.5638 23.5512 27.1965 23.5512H18.8869C18.5196 23.5512 18.1673 23.4053 17.9076 23.1456C17.6479 22.8859 17.502 22.5336 17.502 22.1663C17.502 21.799 17.6479 21.4468 17.9076 21.1871C18.1673 20.9273 18.5196 20.7814 18.8869 20.7814H27.1965Z" fill="#00FF95"/>
</svg>
