<svg width="30" height="30" viewBox="0 0 30 30" fill="none" xmlns="http://www.w3.org/2000/svg">
<path d="M9.07108 6.18498L7.95706 3.50882C7.67621 2.83039 6.71509 2.83039 6.43425 3.50882L5.32023 6.18498C5.23285 6.39132 5.06746 6.5539 4.85839 6.63518L2.52425 7.55121C1.82525 7.82633 1.82525 8.81738 2.52425 9.08938L4.85839 10.0054C5.06746 10.0867 5.23285 10.2493 5.32023 10.4556L6.43425 13.1318C6.71509 13.8102 7.67621 13.8102 7.95706 13.1318L9.07108 10.4556C9.15846 10.2493 9.32384 10.0867 9.53292 10.0054L11.8671 9.08938C12.5661 8.81426 12.5661 7.8232 11.8671 7.55121L9.53292 6.63518C9.32384 6.5539 9.15846 6.39132 9.07108 6.18498Z" fill="#00FF95"/>
<path d="M21.3877 14.7325L19.3407 9.80849C19.0036 8.99563 17.8553 8.99563 17.5183 9.80849L15.4712 14.7325C15.3682 14.9795 15.1685 15.1765 14.9189 15.2734L10.4815 17.0148C9.64523 17.343 9.64523 18.5279 10.4815 18.8562L14.9189 20.5976C15.1685 20.6945 15.3682 20.8914 15.4712 21.1384L17.5183 26.0625C17.8553 26.8753 19.0036 26.8753 19.3407 26.0625L21.3877 21.1384C21.4907 20.8914 21.6904 20.6945 21.9401 20.5976L26.3774 18.8562C27.2137 18.5279 27.2137 17.343 26.3774 17.0148L21.9401 15.2734C21.6904 15.1765 21.4907 14.9795 21.3877 14.7325Z" fill="#00FF95"/>
<path d="M7.47613 22.1764L8.03158 23.5082C8.09712 23.6708 8.22818 23.7989 8.39044 23.8615L9.48574 24.2898C10.0318 24.5024 10.0318 25.2777 9.48574 25.4903L8.39044 25.9186C8.22818 25.9843 8.10024 26.1093 8.03158 26.2719L7.47613 27.6037C7.25458 28.1321 6.50565 28.1321 6.28722 27.6037L5.73177 26.2719C5.66624 26.1093 5.53518 25.9812 5.37291 25.9186L4.27761 25.4903C3.73152 25.2777 3.73152 24.5024 4.27761 24.2898L5.37291 23.8615C5.53518 23.7958 5.66312 23.6708 5.73177 23.5082L6.28722 22.1764C6.50877 21.648 7.2577 21.648 7.47613 22.1764Z" fill="#00FF95"/>
</svg>
