<svg width="30" height="30" viewBox="0 0 30 30" fill="none" xmlns="http://www.w3.org/2000/svg">
<path fill-rule="evenodd" clip-rule="evenodd" d="M25.9167 3C27.0278 3 28 3.97222 28 5.08333V25.9167C28 27.0278 27.0278 28 25.9167 28H5.08333C3.97222 28 3 27.0278 3 25.9167V5.08333C3 3.97222 3.97222 3 5.08333 3H25.9167ZM16.3138 16.967V21.1988C16.314 22.7799 17.1261 23.6988 18.5762 23.6988C19.5724 23.6986 20.2472 23.2215 20.5694 22.3327H20.6172V23.5556H23.064V16.967H20.6172V20.6671C20.6172 21.2816 20.2648 21.7291 19.6862 21.7294C19.0717 21.7294 18.7608 21.3238 18.7606 20.6617V16.967H16.3138ZM8.29948 14.9444V16.9497H10.5673V23.5556H13.0977V16.9497H15.3655V14.9444H8.29948ZM5.77778 5.96332V11.3333H25.2222V5.96332H5.77778Z" fill="#00FF95"/>
</svg>
