<svg width="30" height="30" viewBox="0 0 30 30" fill="none" xmlns="http://www.w3.org/2000/svg">
<path fill-rule="evenodd" clip-rule="evenodd" d="M25.917 3C27.0279 3.00019 27.9998 3.97214 28 5.08301V25.917C27.9998 27.0279 27.0279 27.9998 25.917 28H5.08301C3.97214 27.9998 3.00019 27.0279 3 25.917V5.08301C3.00019 3.97214 3.97214 3.00019 5.08301 3H25.917ZM5.96289 25.2227H11.333V5.77734H5.96289V25.2227ZM19.959 11.9082C19.959 11.1009 18.9728 10.6967 18.3955 11.2676L15.2686 14.3594C14.9107 14.7133 14.9107 15.2867 15.2686 15.6406L18.3955 18.7324C18.9728 19.3033 19.959 18.8991 19.959 18.0918V16.1709H23.7812C24.4544 16.1707 25 15.6285 25 14.96C24.9999 14.2915 24.4543 13.7493 23.7812 13.749H19.959V11.9082Z" fill="#00FF95"/>
</svg>
