<svg width="30" height="30" viewBox="0 0 30 30" fill="none" xmlns="http://www.w3.org/2000/svg">
<path fill-rule="evenodd" clip-rule="evenodd" d="M25.9167 3C27.0278 3 28 3.97222 28 5.08333V25.9167C28 27.0278 27.0278 28 25.9167 28H5.08333C3.97222 28 3 27.0278 3 25.9167V5.08333C3 3.97222 3.97222 3 5.08333 3H25.9167ZM10.0898 14.9444V23.5556H12.6202V20.5065H15.8071V18.6087H12.6202V16.9497H16.1413V14.9444H10.0898ZM21.3453 16.8238C20.5575 16.8238 20.0497 17.2893 19.8826 18.1487H19.8349V16.967H17.388V23.5556H19.8349V20.2255C19.8349 19.3064 20.3069 18.8409 21.2259 18.8409C21.4764 18.841 21.7268 18.8893 21.9355 18.9787V16.9193C21.7507 16.8537 21.5539 16.8238 21.3453 16.8238ZM5.77778 5.96332V11.3333H25.2222V5.96332H5.77778Z" fill="#00FF95"/>
</svg>
