<svg width="30" height="30" viewBox="0 0 30 30" fill="none" xmlns="http://www.w3.org/2000/svg">
<path fill-rule="evenodd" clip-rule="evenodd" d="M15.3887 2.55566C8.49617 2.55566 2.88867 8.16316 2.88867 15.0557C2.88867 21.9482 8.49617 27.5557 15.3887 27.5557C22.2812 27.5557 27.8887 21.9482 27.8887 15.0557C27.8887 8.16316 22.2812 2.55566 15.3887 2.55566ZM14.1387 10.0557C14.1387 9.36531 14.6983 8.80566 15.3887 8.80566C16.079 8.80566 16.6387 9.36531 16.6387 10.0557V15.0557C16.6387 15.746 16.079 16.3057 15.3887 16.3057C14.6983 16.3057 14.1387 15.746 14.1387 15.0557V10.0557ZM15.3887 21.3057C16.079 21.3057 16.6387 20.746 16.6387 20.0557C16.6387 19.3653 16.079 18.8057 15.3887 18.8057C14.6983 18.8057 14.1387 19.3653 14.1387 20.0557C14.1387 20.746 14.6983 21.3057 15.3887 21.3057Z" fill="#00FF95"/>
</svg>
