<svg width="30" height="30" viewBox="0 0 30 30" fill="none" xmlns="http://www.w3.org/2000/svg">
<path fill-rule="evenodd" clip-rule="evenodd" d="M22.8021 22.8057C22.7673 22.8409 22.7323 22.8758 22.6969 22.9103C22.6492 22.9572 22.6009 23.0035 22.5527 23.0492C21.3455 24.2039 20.0487 24.9923 18.6782 25.4414C18.1691 25.61 17.6513 25.7326 17.1243 25.809L17.0176 25.8237L16.9619 25.8311C15.504 26.0195 13.988 25.8619 12.4319 25.392L12.4294 25.3917L12.4285 25.3912C12.3846 25.3783 12.3406 25.3645 12.2966 25.3507C12.0626 25.278 11.8271 25.1975 11.5911 25.1114C11.3226 25.0155 11.053 24.9113 10.782 24.7981L10.7535 24.8869C10.6664 25.1673 10.5786 25.4506 10.4903 25.7355C10.3732 26.1134 10.2552 26.4942 10.1368 26.8749C10.0819 27.0515 10.0267 27.2278 9.97143 27.404C9.94025 27.5034 9.90907 27.6028 9.87799 27.7023C9.82829 27.869 9.77951 28.0358 9.73205 28.203C9.7244 28.2297 9.71662 28.2564 9.70805 28.2822C9.59929 28.6364 9.41907 28.8872 9.049 28.9998L8.62331 29L8.59667 28.9784C8.57176 28.9601 8.54644 28.942 8.52126 28.9239L8.5156 28.9199C8.34579 28.8527 8.1835 28.7421 8.04745 28.6189L8.0456 28.6171L8.04257 28.6142L8.03308 28.6055L8.02411 28.5974C8.01554 28.5897 8.00724 28.5815 7.99959 28.5737C7.6994 28.2953 7.41068 28.0012 7.10442 27.6892L7.04391 27.6275C6.95387 27.5358 6.86356 27.4445 6.77167 27.3528C6.74194 27.3809 6.7136 27.4083 6.68608 27.435C6.67016 27.4504 6.6545 27.4655 6.63904 27.4803C6.56838 27.5493 6.50193 27.6131 6.43391 27.6725L6.42731 27.6791L6.42613 27.6803L6.40833 27.6963C6.36047 27.7364 6.31143 27.7717 6.26067 27.8027L6.25975 27.8036C6.24143 27.8155 6.22205 27.8257 6.20293 27.836L6.1999 27.8377C6.19383 27.8406 6.1879 27.8438 6.182 27.847C6.17646 27.8501 6.17096 27.8531 6.16536 27.8558L6.15125 27.8624L6.13873 27.8679C5.94308 27.9584 5.73359 27.9843 5.53149 27.9435C5.45582 27.9284 5.38133 27.904 5.30935 27.8704C5.20928 27.8235 5.1141 27.7586 5.02722 27.6752C4.73981 27.3992 4.45531 27.1197 4.17358 26.8381L4.16765 26.832L4.16158 26.826C3.87985 26.5443 3.60036 26.2596 3.32429 25.9724C3.18046 25.8233 3.09173 25.6493 3.05614 25.468C3.01514 25.2659 3.04164 25.0561 3.13168 24.8609L3.13801 24.8466L3.14381 24.8342C3.14935 24.8225 3.15541 24.8114 3.16187 24.7997C3.16648 24.7911 3.17116 24.7826 3.17594 24.7741C3.1824 24.7626 3.18906 24.7512 3.19602 24.7398L3.19681 24.7389C3.20402 24.7271 3.21147 24.7153 3.21915 24.7036C3.2268 24.6919 3.23468 24.6804 3.24282 24.6689C3.26167 24.6425 3.28171 24.6165 3.30333 24.5911C3.30847 24.5851 3.31361 24.5791 3.31915 24.5735L3.3206 24.5722L3.32693 24.5657C3.38599 24.4981 3.4498 24.4317 3.51875 24.361L3.591 24.2862L3.64716 24.2274C3.59222 24.1723 3.53681 24.1176 3.48151 24.0629L3.37241 23.9552L3.30175 23.8858L3.29849 23.8826C3.12983 23.717 2.96639 23.5564 2.80776 23.3964C2.67737 23.2647 2.55028 23.1333 2.42636 22.9996L2.41515 22.9877L2.4025 22.975C2.39953 22.972 2.39686 22.9689 2.39419 22.9657C2.39152 22.9626 2.38885 22.9595 2.38588 22.9565L2.38285 22.9535L2.38101 22.9517C2.258 22.8156 2.14713 22.6533 2.08016 22.4835L2.05168 22.4441L2.02149 22.4025L2 22.3758L2.00013 21.9502C2.11232 21.5797 2.3636 21.3999 2.71785 21.2912L2.79655 21.2674C2.87473 21.2453 2.95291 21.2227 3.03083 21.2L3.29727 21.1217L3.54027 21.0455C3.73496 20.9845 3.92958 20.9235 4.12454 20.8628C4.68151 20.6894 5.23822 20.5169 5.78629 20.3471L6.11262 20.246L6.20148 20.2175C6.08784 19.9461 5.98408 19.6769 5.88811 19.4085C5.80162 19.172 5.7216 18.9368 5.64882 18.7029L5.63037 18.644L5.60848 18.5711L5.60809 18.5685L5.60756 18.5677C5.13756 17.0116 4.98015 15.4957 5.16854 14.0376C5.17158 14.0191 5.17369 14.0005 5.17632 13.9824L5.18107 13.9466L5.19096 13.8756C5.22813 13.6206 5.27573 13.368 5.33413 13.1174C5.37566 12.939 5.42286 12.7616 5.47533 12.5851C5.49326 12.5255 5.51185 12.4661 5.53083 12.4069L5.55865 12.3219C6.00808 10.9508 6.79619 9.65453 7.95081 8.44737C8.03018 8.36372 8.11112 8.28007 8.19392 8.19734L8.19523 8.19609L8.19655 8.19477C8.27974 8.11158 8.36293 8.03103 8.44691 7.95127C9.6536 6.79705 10.9503 6.00854 12.3214 5.55911C12.8303 5.39042 13.3483 5.26788 13.8751 5.19142L13.982 5.17672L14.0375 5.1694C15.4955 4.98101 17.0116 5.13849 18.5676 5.60835L18.569 5.60861L18.5704 5.60887L18.5711 5.60927C18.614 5.62186 18.6569 5.63531 18.7001 5.64869L18.7028 5.64968C18.8382 5.6918 18.974 5.7363 19.1102 5.78303C19.2093 5.81711 19.3086 5.85231 19.4081 5.88857C19.6766 5.98454 19.9458 6.08823 20.2171 6.20188L20.2456 6.11315L20.5144 5.24659C20.6296 4.87455 20.7458 4.49981 20.8623 4.12506L21.1212 3.29773C21.1708 3.13102 21.2194 2.96425 21.267 2.79701L21.2702 2.78647C21.2769 2.76326 21.2836 2.74019 21.2913 2.71778C21.3999 2.3636 21.58 2.11279 21.9502 2.0002L22.376 2L22.4027 2.02156C22.4175 2.03264 22.4326 2.04358 22.4477 2.05445C22.4596 2.06303 22.4716 2.07157 22.4836 2.08009C22.6532 2.14726 22.8156 2.25787 22.9516 2.38107L22.9535 2.38285L22.9564 2.38582C22.9593 2.38885 22.9624 2.39155 22.9656 2.39419L22.9751 2.40263C22.9835 2.41034 22.9917 2.41851 22.9994 2.42629C23.2967 2.70172 23.5821 2.99242 23.8847 3.30073L23.9552 3.37248C24.0451 3.46424 24.1358 3.55553 24.2273 3.64722C24.2523 3.62353 24.2764 3.60034 24.2999 3.57771C24.3204 3.55792 24.3405 3.53856 24.3602 3.51967L24.3842 3.49614L24.4575 3.42574C24.4936 3.39166 24.5292 3.35896 24.5653 3.32746L24.5719 3.32093L24.5906 3.30373C24.6386 3.26365 24.6876 3.22832 24.7385 3.19727C24.7588 3.18389 24.7789 3.17314 24.7994 3.16233L24.8166 3.1533L24.8237 3.1494C24.8271 3.14761 24.8305 3.14586 24.834 3.1442C24.8386 3.14184 24.8434 3.1396 24.8484 3.13741C24.8524 3.13563 24.8565 3.13389 24.8606 3.13214C24.9097 3.1094 24.9598 3.09068 25.0104 3.07611C25.1609 3.03274 25.3162 3.02595 25.4676 3.05653C25.6485 3.09266 25.8225 3.18132 25.972 3.32475C26.2591 3.60082 26.5439 3.88031 26.8255 4.16198L26.8316 4.16798L26.8376 4.17404C26.9436 4.27997 27.0494 4.38636 27.1546 4.49322C27.3291 4.6704 27.5026 4.84878 27.6748 5.02847C27.717 5.07204 27.7541 5.11772 27.7868 5.16512C27.8659 5.27981 27.9179 5.40453 27.9432 5.53287C27.9838 5.73491 27.9574 5.94473 27.8673 6.13998C27.8636 6.14901 27.8596 6.15804 27.8551 6.16668C27.8496 6.17828 27.8438 6.18955 27.8372 6.20115C27.8332 6.20891 27.8289 6.21659 27.8246 6.22423L27.814 6.24288L27.8032 6.26107C27.7713 6.31275 27.7365 6.36232 27.6959 6.40971L27.6927 6.41354L27.6798 6.42738L27.6721 6.43516C27.6426 6.46895 27.612 6.50242 27.5801 6.53626C27.5482 6.5702 27.5149 6.60451 27.4805 6.6399L27.4399 6.68209L27.3858 6.73785L27.3518 6.77345C27.4087 6.83047 27.4662 6.88709 27.5234 6.94358L27.5551 6.97503L27.6268 7.04563L27.6946 7.11224C28.0042 7.41632 28.2961 7.70303 28.5728 8.0013L28.5889 8.01818L28.5963 8.02583L28.6048 8.03512C28.6067 8.03735 28.6086 8.03961 28.6107 8.04183L28.6132 8.04441L28.6164 8.04738L28.6179 8.04909C28.7413 8.18521 28.8518 8.34757 28.9191 8.51731L28.9478 8.55686L28.9776 8.59832L28.9992 8.62495L28.9989 9.05065C28.8869 9.42124 28.6353 9.601 28.2815 9.7097L28.2024 9.73336C28.1045 9.76116 28.0067 9.78954 27.909 9.81818C27.8399 9.83845 27.7709 9.85884 27.7019 9.87924L27.4261 9.96559C27.2424 10.0232 27.0586 10.0808 26.8745 10.138C26.4134 10.2816 25.9522 10.4248 25.4961 10.5661L24.8862 10.7549L24.7979 10.7834C24.911 11.0544 25.0151 11.324 25.1111 11.5924C25.1704 11.7553 25.2269 11.9178 25.2801 12.0798C25.3041 12.1525 25.3273 12.2251 25.3497 12.2975L25.3703 12.3623L25.3903 12.4293C25.3909 12.4307 25.3903 12.432 25.3911 12.4328C25.861 13.9888 26.0187 15.5048 25.8301 16.9628C25.8286 16.972 25.8275 16.9811 25.8264 16.9903L25.8225 17.018C25.8177 17.0538 25.813 17.0895 25.8077 17.1249C25.7442 17.5613 25.6498 17.9909 25.5232 18.4153C25.4971 18.5036 25.4689 18.5911 25.4402 18.6786C24.9906 20.0497 24.2025 21.3459 23.0479 22.5531C22.9685 22.6367 22.8876 22.7203 22.8048 22.8031L22.8021 22.8057ZM17.6232 20.5753C16.9507 20.3958 16.3104 20.1486 15.7091 19.8412C15.1078 20.1487 14.4675 20.3958 13.795 20.5753C13.6974 20.6014 13.609 20.5132 13.6348 20.4155C13.7154 20.1108 13.8098 19.8126 13.9173 19.5217C12.6997 19.3884 11.4996 19.0931 10.3183 18.4876C10.2233 18.4389 10.2233 18.3051 10.3183 18.2564C11.1024 17.8545 11.8948 17.5892 12.6951 17.4173C11.8249 16.3609 11.1747 15.1096 10.8029 13.7258C10.7766 13.6278 10.8655 13.5391 10.9634 13.5656C12.2277 13.9074 13.3818 14.4861 14.3766 15.2554C14.2333 13.6386 14.6627 11.9961 15.6579 10.5261C15.71 10.4491 15.8224 10.4491 15.8745 10.526C16.8511 11.9663 17.2827 13.575 17.1632 15.1628C18.1301 14.4395 19.2416 13.8936 20.4546 13.5656C20.5526 13.5391 20.6414 13.6278 20.6151 13.7258C20.2377 15.1312 19.5727 16.4 18.6821 17.4667C19.4143 17.6384 20.1397 17.8904 20.8581 18.2563C20.9536 18.3048 20.9535 18.4391 20.8581 18.4877C19.7513 19.0512 18.628 19.3449 17.4893 19.4905C17.6015 19.7913 17.6997 20.0999 17.7833 20.4155C17.8092 20.5131 17.7208 20.6014 17.6232 20.5753Z" fill="#00FF95"/>
</svg>
