<svg width="30" height="30" viewBox="0 0 30 30" fill="none" xmlns="http://www.w3.org/2000/svg">
<path fill-rule="evenodd" clip-rule="evenodd" d="M3.69525 10.6201C3.02693 11.0984 2.62891 11.8802 2.62891 12.7143V25.4436C2.62891 26.8547 3.87335 28 5.40668 28H24.8511C26.3845 28 27.6289 26.8547 27.6289 25.4436V12.7143C27.6289 11.8802 27.2309 11.0984 26.5626 10.6201L16.5626 3.46212C15.7018 2.84596 14.5561 2.84596 13.6953 3.46212L3.69525 10.6201ZM12.742 23.4295C12.702 23.5746 12.8337 23.7062 12.9788 23.6661C13.7614 23.45 14.5081 23.1608 15.2118 22.806L15.2539 22.7856L15.296 22.806C15.9997 23.1608 16.7464 23.45 17.5291 23.6661C17.6741 23.7062 17.8058 23.5746 17.7658 23.4295C17.6669 23.0708 17.5522 22.7196 17.4224 22.3766C17.6109 22.3529 17.799 22.3259 17.9868 22.2953C19.1878 22.0999 20.3747 21.7584 21.5468 21.1782C21.6899 21.1074 21.69 20.907 21.5468 20.8361C20.6739 20.404 19.7927 20.1043 18.9037 19.8987C19.9924 18.6131 20.8093 17.0876 21.2817 15.399C21.3224 15.2534 21.1901 15.1211 21.0445 15.1617C19.5311 15.5846 18.1481 16.2783 16.9507 17.1913C17.126 15.241 16.6109 13.26 15.4137 11.4806C15.337 11.3666 15.1708 11.3666 15.0941 11.4806C13.8969 13.26 13.3818 15.241 13.5571 17.1913C12.3597 16.2783 10.9767 15.5846 9.46324 15.1617C9.3177 15.1211 9.18535 15.2534 9.22606 15.399C9.69849 17.0876 10.5155 18.6131 11.6042 19.8987C10.7151 20.1043 9.83392 20.404 8.96098 20.8361C8.81786 20.907 8.81784 21.1074 8.96097 21.1782C10.0679 21.7261 11.1881 22.0612 12.3208 22.2614C12.5751 22.3063 12.8299 22.3444 13.0854 22.3766C12.9556 22.7196 12.8409 23.0708 12.742 23.4295Z" fill="#00FF95"/>
</svg>
