<svg width="30" height="30" viewBox="0 0 30 30" fill="none" xmlns="http://www.w3.org/2000/svg">
<path d="M12.1758 16.833C12.1758 16.1427 12.7354 15.583 13.4258 15.583H17.1758C17.8661 15.583 18.4258 16.1427 18.4258 16.833V27.333H12.1758V16.833Z" fill="#00FF95"/>
<path d="M21.4258 12.333C21.4258 11.6427 21.9854 11.083 22.6758 11.083H26.6758C27.3661 11.083 27.9258 11.6427 27.9258 12.333V27.333H21.4258V12.333Z" fill="#00FF95"/>
<path d="M2.92578 21.333C2.92578 20.6427 3.48543 20.083 4.17578 20.083H7.92578C8.61614 20.083 9.17578 20.6427 9.17578 21.333V27.333H2.92578V21.333Z" fill="#00FF95"/>
<path d="M24.2757 3.45801C24.5644 2.95801 24.2035 2.33301 23.6262 2.33301L18.43 2.33301C17.8527 2.33301 17.4918 2.95801 17.7805 3.45801L18.4545 4.62545L5.05099 12.364C4.45312 12.7092 4.24828 13.4737 4.59346 14.0715C4.93864 14.6694 5.70313 14.8743 6.30099 14.5291L19.7045 6.79052L20.3786 7.95801C20.6672 8.45801 21.3889 8.45801 21.6776 7.95801L24.2757 3.45801Z" fill="#00FF95"/>
</svg>
