<svg width="30" height="30" viewBox="0 0 30 30" fill="none" xmlns="http://www.w3.org/2000/svg">
<path d="M28.2437 9.50057C27.9558 6.54859 25.936 3.92038 23.1143 3.10494C22.6041 2.95771 22.0733 2.88576 21.5515 2.77916H20.6538C20.6049 2.79715 20.5567 2.82647 20.5066 2.83046C19.1713 2.95371 17.9779 3.46803 16.942 4.32677C16.917 4.34743 16.8925 4.36941 16.8675 4.39073C16.5025 4.6832 16.1587 5.00897 15.8335 5.36406C15.5996 5.59924 15.3657 5.83641 15.126 6.07025C15.0142 5.96099 14.9037 5.85106 14.7938 5.74047C13.718 4.4407 12.4309 3.46669 10.8115 3.02167C10.4234 2.91507 10.0224 2.85778 9.62781 2.77783H8.73008C8.65875 2.79649 8.58871 2.8238 8.51609 2.8318C5.59992 3.13492 3.22996 5.12423 2.35601 7.96828C2.33866 8.02225 2.32259 8.07688 2.30653 8.13084C2.30524 8.13617 2.30331 8.14083 2.30203 8.14616C2.18636 8.54456 2.10218 8.95494 2.05334 9.37199C2.03599 9.47792 2 10.4426 2 10.819C2.00964 10.8636 2.08611 11.4452 2.12338 11.6877C2.19021 12.1548 2.28918 12.6138 2.41513 13.0655C2.42348 13.0954 2.43184 13.1248 2.43955 13.1541C2.44147 13.1601 2.44276 13.1661 2.44469 13.1714C2.87138 14.6924 3.56605 16.1047 4.41751 17.4571C6.11979 20.1599 8.27704 22.4431 10.6097 24.5543C11.6148 25.4643 12.6564 26.3317 13.6943 27.2018C14.6087 27.9686 15.6497 27.9659 16.5706 27.2171C19.1038 25.1565 21.5374 22.9814 23.656 20.4544C25.1906 18.6243 26.5382 16.6657 27.4243 14.4019C27.8144 13.4059 28.0984 12.3806 28.2057 11.31C28.218 11.2121 28.2282 11.1141 28.2379 11.0155C28.2501 10.9582 28.2552 9.57185 28.243 9.50057H28.2437Z" fill="#00FF95"/>
</svg>
