<svg width="30" height="30" viewBox="0 0 30 30" fill="none" xmlns="http://www.w3.org/2000/svg">
<path d="M18.6438 1.11806C18.1908 0.664424 17.4563 0.664424 17.0032 1.11806L15.9845 2.13813L27.9383 14.1075L28.9571 13.0875C29.4101 12.6338 29.4101 11.8983 28.9571 11.4447L18.6438 1.11806Z" fill="#00FF95"/>
<path d="M11.5897 26.2978L3.77367 18.4717L2.14633 20.1011C1.01372 21.2352 1.01372 23.0739 2.14633 24.208L5.86078 27.9273C6.99339 29.0614 8.82971 29.0614 9.96233 27.9273L11.5897 26.2978Z" fill="#00FF95"/>
<path fill-rule="evenodd" clip-rule="evenodd" d="M14.7541 3.37012C13.6047 4.52103 10.7695 7.60545 8.62389 10.7359C6.47832 13.8664 5.22674 16.2858 4.86915 17.1042L12.9916 25.2373C13.809 24.8793 16.2253 23.6261 19.3517 21.4777C22.4781 19.3293 25.5585 16.4904 26.7079 15.3395L14.7541 3.37012ZM13.2976 16.7385C14.4303 17.8726 16.2666 17.8726 17.3992 16.7385C18.5318 15.6044 18.5318 13.7657 17.3992 12.6316C16.2666 11.4975 14.4303 11.4975 13.2976 12.6316C12.165 13.7657 12.165 15.6044 13.2976 16.7385Z" fill="#00FF95"/>
</svg>
