<?xml version="1.0" encoding="UTF-8"?>
<svg id="Layer_1" xmlns="http://www.w3.org/2000/svg" version="1.1" viewBox="0 0 16 16">
  <!-- Generator: Adobe Illustrator 29.7.1, SVG Export Plug-In . SVG Version: 2.1.1 Build 8)  -->
  <defs>
    <style>
      .st0 {
        fill: #fff;
      }
    </style>
  </defs>
  <path class="st0" d="M16,8c0,4.42-3.58,8-8,8S0,12.42,0,8,3.58,0,8,0s8,3.58,8,8M5.35,4.65c-.2-.2-.51-.2-.71,0s-.2.51,0,.71l2.65,2.65-2.65,2.65c-.2.2-.2.51,0,.71s.51.2.71,0l2.65-2.65,2.65,2.65c.2.2.51.2.71,0s.2-.51,0-.71l-2.65-2.65,2.65-2.65c.2-.2.2-.51,0-.71s-.51-.2-.71,0l-2.65,2.65s-2.65-2.65-2.65-2.65Z"/>
</svg>