<svg width="502" height="500" viewBox="0 0 502 500" fill="none" xmlns="http://www.w3.org/2000/svg">
<path d="M379.749 183.956L447.21 450.637L447.272 450.884L447.109 451.079L422.012 481.196L421.584 481.71L421.213 481.153L280.268 270.339L280.023 269.974L280.354 269.685L378.936 183.702L379.55 183.167L379.749 183.956Z" fill="white" stroke="black"/>
<path d="M45.2979 48.7217L313.585 116.885L314.364 117.083L313.841 117.694L226.955 219.187L226.669 219.521L226.301 219.278L14.7832 79.7402L14.2715 79.4023L45.0225 48.6514L45.2979 48.7217Z" fill="white" stroke="black"/>
<path d="M415.529 31.5215C419.341 31.2602 423.463 31.157 427.234 31.4395C430.993 31.7209 434.459 32.3886 436.925 33.7061L437.189 33.8477V33.9014C442.959 37.0667 451.306 44.5068 458.577 52.7002C462.275 56.8672 465.71 61.2448 468.398 65.377C471.081 69.4998 473.046 73.4152 473.769 76.6523V76.6533C474.563 80.2147 474.557 86.1881 474.363 91.2178C474.266 93.744 474.12 96.0513 473.998 97.7266C473.937 98.564 473.882 99.2439 473.843 99.7148C473.823 99.9503 473.807 100.134 473.796 100.259C473.79 100.321 473.786 100.368 473.783 100.4C473.782 100.416 473.78 100.428 473.779 100.437C473.779 100.441 473.779 100.444 473.778 100.446V100.449L473.76 100.645L473.614 100.775L115.079 421.314L114.721 421.634L114.387 421.29L79.9541 385.853L79.6299 385.52L79.9395 385.172L329.453 105.09L329.473 105.068L401.2 33.3418L401.311 33.2314L401.465 33.2031H401.466C401.467 33.203 401.468 33.2024 401.47 33.2021C401.473 33.2016 401.478 33.2013 401.484 33.2002C401.497 33.1979 401.516 33.1938 401.541 33.1895C401.591 33.1807 401.664 33.1687 401.76 33.1523C401.951 33.1195 402.233 33.0721 402.595 33.0137C403.318 32.8968 404.36 32.735 405.641 32.5576C408.201 32.2028 411.716 31.7829 415.529 31.5215Z" fill="#B0F4BE" stroke="black"/>
<path d="M496.468 5.48964C490.394 -0.583818 481.661 -1.68808 472.977 2.5282C468.259 4.83712 464.294 8.3005 461.784 10.76L447.73 24.8143C425.644 14.1732 396.13 12.6674 378.964 28.9804L378.512 29.4321C378.512 29.4321 375.701 32.4438 374.246 34.2508L312.306 104.623L60.3833 40.6756C49.9429 38.0153 38.6995 41.1273 31.07 48.7568L0 79.7766L209.911 220.972L63.0435 387.867L111.983 436.806L278.978 289.838L420.173 500L451.193 468.98C458.873 461.351 461.935 450.057 459.274 439.567L395.277 187.493L465.599 125.604C467.406 124.148 470.417 121.337 470.417 121.337L470.919 120.885C486.078 104.974 488.186 77.3673 477.193 54.2781L491.248 40.2238C493.757 37.7141 497.221 33.7488 499.48 29.0306C503.696 20.3972 502.592 11.6133 496.518 5.53984L496.468 5.48964ZM227.278 200.744L106.01 119.129L137.531 87.6069L290.623 126.457L227.278 200.694V200.744ZM49.7924 67.4791C50.8464 66.425 52.4024 65.9733 53.8581 66.3749L107.616 80.0276L83.5729 104.07L41.5104 75.7611L49.7924 67.4791ZM373.543 209.478L412.393 362.418L380.922 393.89L299.758 273.124L373.543 209.427V209.478ZM432.471 450.208L424.239 458.439L395.98 416.377L419.972 392.384L433.625 446.092C433.977 447.547 433.575 449.154 432.471 450.258V450.208ZM313.461 143.523L230.49 297.217L180.748 340.986L159.315 319.553L313.461 143.523ZM99.3839 386.712L141.346 339.078L160.821 358.554L113.137 400.516L99.3839 386.763V386.712ZM451.846 102.364C451.243 102.916 449.888 104.221 449.135 104.823L235.209 293L372.288 76.6646L394.374 51.5677L395.026 50.8147C395.679 50.0116 396.933 48.6564 397.486 48.0541C406.119 40.1736 427.853 42.2316 442.459 52.3206L449.687 59.5485C459.224 73.3518 460.228 93.2788 451.846 102.364Z" fill="black"/>
</svg>
