<?xml version="1.0" encoding="UTF-8"?>
<svg xmlns="http://www.w3.org/2000/svg" width="192" height="192" viewBox="0 0 192 192">
  <path d="M0,0 h9.6v9.6h-9.6z M9.6,0 h9.6v9.6h-9.6z M182.4,0 h9.6v9.6h-9.6z M192,0 h9.6v9.6h-9.6z M0,9.6 h9.6v9.6h-9.6z M192,9.6 h9.6v9.6h-9.6z M163.2,28.8 h9.6v9.6h-9.6z M28.8,38.4 h9.6v9.6h-9.6z M38.4,38.4 h9.6v9.6h-9.6z M134.4,38.4 h9.6v9.6h-9.6z M153.6,38.4 h9.6v9.6h-9.6z M19.2,48 h9.6v9.6h-9.6z M28.8,48 h9.6v9.6h-9.6z M57.6,48 h9.6v9.6h-9.6z M67.2,48 h9.6v9.6h-9.6z M76.8,48 h9.6v9.6h-9.6z M124.8,48 h9.6v9.6h-9.6z M38.4,57.6 h9.6v9.6h-9.6z M48,57.6 h9.6v9.6h-9.6z M96,57.6 h9.6v9.6h-9.6z M105.6,57.6 h9.6v9.6h-9.6z M115.2,57.6 h9.6v9.6h-9.6z M153.6,57.6 h9.6v9.6h-9.6z M48,67.2 h9.6v9.6h-9.6z M57.6,67.2 h9.6v9.6h-9.6z M105.6,67.2 h9.6v9.6h-9.6z M115.2,67.2 h9.6v9.6h-9.6z M144,67.2 h9.6v9.6h-9.6z M67.2,76.8 h9.6v9.6h-9.6z M96,76.8 h9.6v9.6h-9.6z M134.4,76.8 h9.6v9.6h-9.6z M76.8,86.4 h9.6v9.6h-9.6z M86.4,86.4 h9.6v9.6h-9.6z M124.8,86.4 h9.6v9.6h-9.6z M134.4,86.4 h9.6v9.6h-9.6z M76.8,96 h9.6v9.6h-9.6z M86.4,96 h9.6v9.6h-9.6z M115.2,96 h9.6v9.6h-9.6z M134.4,96 h9.6v9.6h-9.6z M67.2,105.6 h9.6v9.6h-9.6z M76.8,105.6 h9.6v9.6h-9.6z M96,105.6 h9.6v9.6h-9.6z M105.6,105.6 h9.6v9.6h-9.6z M134.4,105.6 h9.6v9.6h-9.6z M67.2,115.2 h9.6v9.6h-9.6z M86.4,115.2 h9.6v9.6h-9.6z M96,115.2 h9.6v9.6h-9.6z M105.6,115.2 h9.6v9.6h-9.6z M144,115.2 h9.6v9.6h-9.6z M57.6,124.8 h9.6v9.6h-9.6z M67.2,124.8 h9.6v9.6h-9.6z M76.8,124.8 h9.6v9.6h-9.6z M115.2,124.8 h9.6v9.6h-9.6z M144,124.8 h9.6v9.6h-9.6z M48,134.4 h9.6v9.6h-9.6z M67.2,134.4 h9.6v9.6h-9.6z M124.8,134.4 h9.6v9.6h-9.6z M144,134.4 h9.6v9.6h-9.6z M48,144 h9.6v9.6h-9.6z M57.6,144 h9.6v9.6h-9.6z M124.8,144 h9.6v9.6h-9.6z M134.4,144 h9.6v9.6h-9.6z M134.4,153.6 h9.6v9.6h-9.6z M153.6,153.6 h9.6v9.6h-9.6z M144,163.2 h9.6v9.6h-9.6z M153.6,163.2 h9.6v9.6h-9.6z M144,172.8 h9.6v9.6h-9.6z M0,182.4 h9.6v9.6h-9.6z M192,182.4 h9.6v9.6h-9.6z M0,192 h9.6v9.6h-9.6z M9.6,192 h9.6v9.6h-9.6z M182.4,192 h9.6v9.6h-9.6z M192,192 h9.6v9.6h-9.6z" fill="#000000"/>
</svg>